<?xml version="1.0" encoding="UTF-8"?>
<svg xmlns="http://www.w3.org/2000/svg" id="Line" viewBox="0 0 64 64" width="512" height="512"><path d="M38.19824,61.5a4.50491,4.50491,0,0,0,4.5-4.5V46.49023H53.00977a4.50492,4.50492,0,0,0,4.5-4.5v-20a4.50493,4.50493,0,0,0-4.5-4.5H38.54V7a4.50492,4.50492,0,0,0-4.5-4.5h-16A4.50491,4.50491,0,0,0,13.54,7V23a4.50491,4.50491,0,0,0,4.5,4.5H28.50977v9H17.8418a4.50491,4.50491,0,0,0-4.5,4.5V57a4.50491,4.50491,0,0,0,4.5,4.5Zm1.5-18.00977H33.00977a1.50164,1.50164,0,0,1-1.5-1.5V39.5h6.68847a1.50164,1.50164,0,0,1,1.5,1.5ZM38.54,23V20.49023H53.00977a1.50165,1.50165,0,0,1,1.5,1.5v20a1.50164,1.50164,0,0,1-1.5,1.5H42.69824V41a4.50491,4.50491,0,0,0-4.5-4.5H31.50977v-9H34.04A4.50492,4.50492,0,0,0,38.54,23Zm-7.03027,1.5V21.99023a1.50164,1.50164,0,0,1,1.5-1.5H35.54V23a1.50164,1.50164,0,0,1-1.5,1.5ZM18.04,24.5a1.50164,1.50164,0,0,1-1.5-1.5V7a1.50164,1.50164,0,0,1,1.5-1.5h16A1.50164,1.50164,0,0,1,35.54,7V17.49023H33.00977a4.50492,4.50492,0,0,0-4.5,4.5V24.5ZM16.3418,57V41a1.50164,1.50164,0,0,1,1.5-1.5h10.668v2.49023a4.50491,4.50491,0,0,0,4.5,4.5h6.68847V57a1.50164,1.50164,0,0,1-1.5,1.5H17.8418A1.50164,1.50164,0,0,1,16.3418,57Z"/><path d="M61.5,5A1.49977,1.49977,0,0,0,60,3.5H54A1.49977,1.49977,0,0,0,52.5,5v6A1.49977,1.49977,0,0,0,54,12.5h6A1.49977,1.49977,0,0,0,61.5,11Zm-3,4.5h-3v-3h3Z"/><path d="M4,36.5h6A1.49977,1.49977,0,0,0,11.5,35V29A1.49977,1.49977,0,0,0,10,27.5H4A1.49977,1.49977,0,0,0,2.5,29v6A1.49977,1.49977,0,0,0,4,36.5Zm1.5-6h3v3h-3Z"/><path d="M61.5,53A1.49977,1.49977,0,0,0,60,51.5H54A1.49977,1.49977,0,0,0,52.5,53v6A1.49977,1.49977,0,0,0,54,60.5h6A1.49977,1.49977,0,0,0,61.5,59Zm-3,4.5h-3v-3h3Z"/></svg>
