<svg width="100" height="100" viewBox="0 0 100 100" xmlns="http://www.w3.org/2000/svg">
  <!-- Background -->
  <rect width="100%" height="100%" fill="white"/>
  <!-- Argyle Pattern -->
  <!-- Diamonds -->
  <polygon points="25,0 50,25 25,50 0,25" fill="lightgrey"/>
  <polygon points="75,0 100,25 75,50 50,25" fill="lightgrey"/>
  <polygon points="25,50 50,75 25,100 0,75" fill="lightgrey"/>
  <polygon points="75,50 100,75 75,100 50,75" fill="lightgrey"/>
  <!-- Diagonal Dashed Overlay Lines to create the Argyle effect -->
  <line x1="0" y1="0" x2="100" y2="100" stroke="black" stroke-width="2" stroke-dasharray="5,5"/>
  <line x1="100" y1="0" x2="0" y2="100" stroke="black" stroke-width="2" stroke-dasharray="5,5"/>
  <line x1="50" y1="0" x2="100" y2="50" stroke="black" stroke-width="2" stroke-dasharray="5,5"/>
  <line x1="0" y1="50" x2="50" y2="100" stroke="black" stroke-width="2" stroke-dasharray="5,5"/>
  <line x1="50" y1="100" x2="100" y2="50" stroke="black" stroke-width="2" stroke-dasharray="5,5"/>
  <line x1="0" y1="50" x2="50" y2="0" stroke="black" stroke-width="2" stroke-dasharray="5,5"/>
</svg>
