<svg id="SVGRoot" height="512" viewBox="0 0 32 32" width="512" xmlns="http://www.w3.org/2000/svg"><path d="m12.98 4a1 1 0 0 0 -.7207.32812l-10 11a1.0001 1.0001 0 0 0 0 1.3438l10 11a1 1 0 0 0 1.4121.068359 1 1 0 0 0 .068359-1.4121l-8.4805-9.3281h23.74c.55228 0 1-.44772 1-1s-.44772-1-1-1h-23.74l8.4805-9.3281a1 1 0 0 0 -.068359-1.4121 1 1 0 0 0 -.69141-.25977z" font-feature-settings="normal" font-variant-alternates="normal" font-variant-caps="normal" font-variant-east-asian="normal" font-variant-ligatures="normal" font-variant-numeric="normal" font-variant-position="normal" font-variation-settings="normal" inline-size="0" isolation="auto" mix-blend-mode="normal" shape-margin="0" shape-padding="0" text-decoration-color="rgb(0,0,0)" text-decoration-line="none" text-decoration-style="solid" text-indent="0" text-orientation="mixed" text-transform="none" white-space="normal"/></svg>