<?xml version="1.0" encoding="iso-8859-1"?>
<!-- Generator: Adobe Illustrator 19.0.0, SVG Export Plug-In . SVG Version: 6.00 Build 0)  -->
<svg version="1.1" id="Capa_1" xmlns="http://www.w3.org/2000/svg" xmlns:xlink="http://www.w3.org/1999/xlink" x="0px" y="0px"
	 viewBox="0 0 512.002 512.002" style="enable-background:new 0 0 512.002 512.002;" xml:space="preserve">
<g>
	<g>
		<path d="M492.435,283.097l-84.478-34.191c-3.641-1.475-7.701-1.624-11.438-0.42c-5.811,1.873-11.735,3.583-17.608,5.081
			c-4.015,1.024-6.439,5.108-5.415,9.122c1.023,4.014,5.107,6.436,9.122,5.415c6.172-1.574,12.398-3.37,18.503-5.34
			c0.398-0.128,0.813-0.111,1.204,0.047l84.48,34.192c6.192,2.506,10.192,8.456,10.192,15.159v1.821
			c0,0.995-0.798,1.805-1.779,1.805H350.049c-42.071,0-84.226-2.954-125.956-8.772v-42.938c17.441,4.441,32.583,7.656,46.084,9.807
			c26.336,4.199,52.677,4.471,79.094,0.783c4.103-0.572,6.965-4.362,6.393-8.465c-0.573-4.103-4.357-6.976-8.466-6.393
			c-5.659,0.789-11.414,1.417-17.105,1.865c-27.842,2.187-56.033,0.297-111.143-14.427c-0.292-0.097-0.59-0.179-0.897-0.239
			c-12.958-3.477-27.395-7.657-43.655-12.655c-48.784-14.997-97.771-32.506-145.601-52.039c-3.788-1.545-8.099-1.468-11.831,0.214
			c-3.726,1.68-6.633,4.855-7.98,8.71c-12.329,35.326-11.973,74.389,1.083,109.46v13.722c0,9.026,7.333,16.369,16.345,16.369h32.57
			c9.653,0,9.669-15.002,0-15.002H26.416c-0.741,0-1.343-0.613-1.343-1.367v-7.617c0.04-0.06,0.075-0.123,0.113-0.184h104.371v7.801
			c0,0.754-0.603,1.367-1.343,1.367H92.676c-9.653,0-9.669,15.002,0,15.002h35.537c9.012,0,16.345-7.343,16.345-16.369v-6.606
			l13.335,2.827c18.252,3.87,36.64,7.169,55.115,9.93c1.492,0.813,3.418,1.098,5.085,0.76c43.697,6.283,87.874,9.458,131.957,9.458
			h145.171c9.253,0,16.781-7.539,16.781-16.807v-1.821C512.002,299.316,504.321,287.907,492.435,283.097z M209.092,304.808
			c-16.112-2.52-32.152-5.463-48.087-8.842l-19.739-4.185c-0.512-0.108-1.033-0.163-1.556-0.163h-2.652H22.756
			c-4.666-13.679-7.272-27.88-7.747-42.335c-0.593-18.055,2.146-35.92,8.116-53.079c48.242,19.702,97.654,37.362,146.865,52.49
			c14.163,4.354,27.135,8.142,39.102,11.416V304.808z"/>
	</g>
</g>
<g>
</g>
<g>
</g>
<g>
</g>
<g>
</g>
<g>
</g>
<g>
</g>
<g>
</g>
<g>
</g>
<g>
</g>
<g>
</g>
<g>
</g>
<g>
</g>
<g>
</g>
<g>
</g>
<g>
</g>
</svg>
