<svg id="Capa_1" enable-background="new 0 0 512 512" height="512" viewBox="0 0 512 512" width="512" xmlns="http://www.w3.org/2000/svg"><g><path d="m511.55 428.442-65.807-316.215c-4.511-22.18-21.534-42.206-43.447-49.849l-49.098-15.786-39.056-40.27c-1.292-1.975-3.489-3.298-6.003-3.389-.023-.001-.045-.002-.068-.003-.069-.002-.137-.01-.207-.01h-100.673c-1.609.118-3.404.32-5.384 2.279l-39.562 40.795-52.478 16.365c-21.391 7.463-38.916 27.102-43.51 49.868l-65.807 316.216c-1.307 6.279.265 12.734 4.312 17.71s10.047 7.83 16.461 7.83h42.688c11.921 0 22.436-8.45 25.002-20.091l11.305-51.292c.892-4.045-1.665-8.047-5.71-8.938-4.044-.895-8.047 1.665-8.938 5.71l-11.305 51.292c-1.062 4.821-5.417 8.32-10.354 8.32h-42.688c-2.573 0-4.127-1.438-4.824-2.294-.697-.857-1.788-2.67-1.264-5.189l65.807-316.216c2.987-14.352 11.992-26.805 24.351-34.289l2.12 29.922c1.072 22.353 10.768 45.759 22.916 65.367l-37.215 168.849c-.892 4.045 1.665 8.047 5.71 8.938 4.042.891 8.047-1.665 8.938-5.71l33.611-152.498 13.443 23.836c2.617 4.644 3.246 10.237 1.725 15.349l-15.18 51.018c-9.285 31.179-15.121 63.437-17.344 95.877l-7.331 106.923c-.355 5.211 1.486 10.389 5.051 14.205s8.607 6.005 13.832 6.005h157.666c.013 0 .026.002.039.002 17.539 0 31.808-14.269 31.808-31.808v-172.497c0-7.582-1.865-15.136-5.394-21.847l-8.095-15.396-28.977-68.385 80.482-92.05c1.201-1.689 2.166-3.04 1.736-6.26l-6.61-36.872 33.877 10.892-2.484 35.001c-.785 20.974-11.127 43.211-22.45 61.602l-23.053 40.875c-4.603 8.167-5.709 18.004-3.035 26.991l15.181 51.022c8.97 30.12 14.607 61.283 16.755 92.623l7.33 106.917c.101 1.48-.612 2.48-1.046 2.945-.435.465-1.385 1.245-2.871 1.245h-33.896c-4.142 0-7.5 3.358-7.5 7.5s3.358 7.5 7.5 7.5h33.896c5.225 0 10.267-2.189 13.832-6.005 3.564-3.816 5.406-8.994 5.05-14.208l-7.33-106.919c-2.224-32.441-8.059-64.699-17.344-95.876l-15.18-51.02c-1.521-5.111-.892-10.705 1.724-15.347l13.444-23.838 52.461 238.027c2.566 11.642 13.081 20.091 25.002 20.091h42.688c6.414 0 12.414-2.854 16.461-7.83 4.049-4.975 5.621-11.43 4.314-17.71zm-315.862-340.336c-1.428-3.888-5.735-5.885-9.626-4.455l-18.966 6.965 6.174-34.445 26.296-27.115-.072 10.75c0 .031-.005.062-.005.094 0 1.064.225 2.075.624 2.992l79.522 187.669-109.4-125.117 20.997-7.71c3.89-1.431 5.884-5.74 4.456-9.628zm18.953-70.186h85.573l.097 14.479h-85.767zm3.677 29.483h78.219l-39.109 92.299zm91.765 429.869c0 9.261-7.53 16.797-16.789 16.807-.007 0-.013-.001-.019-.001h-157.705c-1.485 0-2.436-.78-2.871-1.245-.434-.465-1.147-1.465-1.047-2.942l7.33-106.92c2.148-31.339 7.786-62.502 16.756-92.624l15.18-51.02c2.674-8.987 1.568-18.825-3.036-26.993l-23.053-40.876c-11.205-18.413-21.227-38.909-22.449-61.6l-2.479-34.947 36.83-11.485-6.706 37.415c-.273 1.414-.074 4.307 1.736 6.26l146.821 167.914 7.831 14.893c2.401 4.566 3.67 9.707 3.67 14.866zm-44.509-318.347 49.155-116.007c.406-.923.636-1.942.636-3.015v-10.774l26.224 27.039 6.176 34.448-18.966-6.965c-3.89-1.429-8.199.567-9.626 4.455-1.428 3.888.567 8.198 4.455 9.626l20.994 7.71-68.509 78.355zm230.027 277.763c-.697.857-2.25 2.294-4.824 2.294h-42.688c-4.937 0-9.291-3.499-10.354-8.32l-56.065-254.38c11.912-19.328 21.503-41.542 22.916-65.367l2.12-29.922c12.359 7.484 21.364 19.937 24.351 34.29l65.807 316.215c.525 2.52-.566 4.333-1.263 5.19z"/><g><g><circle cx="201.93" cy="307.942" r="7.5"/><circle cx="283.64" cy="307.942" r="7.5"/></g><g><circle cx="201.93" cy="378.138" r="7.5"/><circle cx="283.64" cy="378.138" r="7.5"/></g><g><circle cx="201.93" cy="448.334" r="7.5"/><circle cx="283.64" cy="448.334" r="7.5"/></g></g></g></svg>