<?xml version="1.0" encoding="UTF-8"?>
<svg xmlns="http://www.w3.org/2000/svg" width="512" height="512" viewBox="0 0 128 128"><g><path d="M122.706,84.282l-13.3-58.06a13.667,13.667,0,0,0-11.373-10.53l-10.3-1.538-2.549-7.7a1.747,1.747,0,0,0-1.661-1.2H44.469a1.747,1.747,0,0,0-1.661,1.2l-2.549,7.7-10.3,1.538A13.667,13.667,0,0,0,18.59,26.222l-13.3,58.06a1.752,1.752,0,0,0,1.315,2.1L30.1,91.757a84.6,84.6,0,0,0-3.846,20.575,1.75,1.75,0,0,0,.558,1.369c.216.2,5.447,4.919,16.842,4.056,4.955-.384,6.944.749,9.242,2.053A19.432,19.432,0,0,0,64,122.75a19.425,19.425,0,0,0,11.105-2.94c2.3-1.3,4.284-2.428,9.243-2.053,11.409.862,16.627-3.855,16.842-4.056a1.75,1.75,0,0,0,.558-1.369A84.6,84.6,0,0,0,97.9,91.757l23.489-5.378a1.752,1.752,0,0,0,1.315-2.1ZM64,23.951,48.711,8.75H79.289ZM61.7,26.6l-4.856,6.589A48.805,48.805,0,0,1,43.458,15.627l1.784-5.391Zm21.063-16.36,1.784,5.391A49.035,49.035,0,0,1,71.159,33.183L66.305,26.6Zm1.855,104.031c-6.025-.456-8.673,1.044-11.234,2.5A16.054,16.054,0,0,1,64,119.25a16.054,16.054,0,0,1-9.379-2.484c-2.561-1.455-5.211-2.953-11.234-2.5-7.7.587-12.073-1.689-13.586-2.685,1.07-16.591,8.707-32.2,10.7-36.033H87.5c2,3.824,9.63,19.419,10.7,36.032C96.675,112.583,92.311,114.854,84.613,114.267Zm12.194-25.85a106.854,106.854,0,0,0-6.382-14.826,195.621,195.621,0,0,0,6.293-33.732,1.751,1.751,0,0,0-3.491-.273,191.459,191.459,0,0,1-6.006,32.463H40.779a191.929,191.929,0,0,1-6.007-32.463,1.75,1.75,0,0,0-3.49.273,195.621,195.621,0,0,0,6.293,33.732,106.854,106.854,0,0,0-6.382,14.826L9.1,83.357,22,27a10.188,10.188,0,0,1,8.478-7.85l10.061-1.5A50.691,50.691,0,0,0,56.21,37.1a1.752,1.752,0,0,0,2.392-.411l3.648-4.948V53.02a1.75,1.75,0,1,0,3.5,0V31.744L69.4,36.692a1.753,1.753,0,0,0,2.393.411A50.691,50.691,0,0,0,87.459,17.651l10.061,1.5A10.188,10.188,0,0,1,106,27L118.9,83.357Z"/><path d="M54.451,85.435a1.754,1.754,0,0,0-2.112,1.289,132.352,132.352,0,0,0-2.858,17.424,1.749,1.749,0,0,0,1.593,1.894c.052,0,.1.007.153.007a1.75,1.75,0,0,0,1.741-1.6,131.083,131.083,0,0,1,2.773-16.9A1.75,1.75,0,0,0,54.451,85.435Z"/><path d="M73.549,85.435a1.75,1.75,0,0,0-1.29,2.112,131.281,131.281,0,0,1,2.773,16.9,1.75,1.75,0,0,0,1.741,1.6c.05,0,.1,0,.153-.007a1.749,1.749,0,0,0,1.593-1.894,132.352,132.352,0,0,0-2.858-17.424A1.753,1.753,0,0,0,73.549,85.435Z"/></g></svg>
