<svg id="Capa_1" enable-background="new 0 0 512.106 512.106" height="512" viewBox="0 0 512.106 512.106" width="512" xmlns="http://www.w3.org/2000/svg"><g><g><path d="m168.885 182.087c0-4.129-3.347-7.475-7.475-7.475s-7.475 3.346-7.475 7.475v26.442c0 4.129 3.347 7.475 7.475 7.475 4.129 0 7.475-3.346 7.475-7.475z"/><path d="m168.885 129.201c0-4.129-3.347-7.475-7.475-7.475s-7.475 3.346-7.475 7.475v26.443c0 4.129 3.347 7.475 7.475 7.475 4.129 0 7.475-3.346 7.475-7.475z"/><path d="m161.41 227.497c-4.128 0-7.475 3.346-7.475 7.475v14.951c0 4.129 3.347 7.475 7.475 7.475 4.129 0 7.475-3.346 7.475-7.475v-14.951c0-4.129-3.347-7.475-7.475-7.475z"/><path d="m506.743 352.575c-.12-.082-.251-.142-.374-.219-1.192-12.987-7.643-23.829-18.952-31.62-9.966-6.864-23.823-11.521-41.188-13.839-4.093-.562-7.853 2.326-8.399 6.419-.547 4.093 2.328 7.853 6.42 8.399 15.008 2.005 26.678 5.818 34.685 11.334 7.313 5.037 11.413 11.468 12.44 19.538-2.559 1.111-5.384 2.456-8.535 3.958-8.003 3.813-17.965 8.56-28.283 11.526-20.473 5.888-44.836 12.409-70.301 16.13-15.73 2.298-31.733 2.159-47.479.089-45.544-5.987-87.738-26.841-128.931-45.763-.064-.029-.128-.057-.191-.085-5.398-2.278-129.611-54.348-192.381-53.1-.696-20.549.134-58.581 13.629-81.833.021-.037.042-.074.063-.112.912-1.635 22.196-40.698 16.4-108.115h81.688v154.641c0 4.129 3.347 7.475 7.475 7.475 4.129 0 7.475-3.346 7.475-7.475v-154.641h11.928v7.475c0 4.129 3.347 7.475 7.475 7.475 4.129 0 7.475-3.346 7.475-7.475v-7.475h70.394c3.526 14.277 12.99 50.379 27.159 87.996 18.388 48.822 37.824 82.119 57.77 98.977 1.37 1.315 9.279 8.807 20.072 17.035 18.716 14.273 42.181 21.723 66.015 20.965l.82-.021c4.127-.107 7.385-3.54 7.278-7.668-.108-4.127-3.531-7.36-7.668-7.277l-.86.022c-20.463.628-40.527-5.716-56.519-17.911-10.892-8.304-18.843-15.989-18.921-16.064-.129-.125-.264-.246-.402-.362-43.319-36.363-74.529-156.115-80.346-179.752-1.579-6.411-7.319-10.89-13.959-10.89h-194.989c-4.036 0-7.91 1.703-10.629 4.673-2.693 2.943-4.037 6.901-3.686 10.863 5.511 62.182-13.832 99.004-14.485 100.221-15.556 26.885-16.84 61.744-15.546 92.034.184 4.298.476 8.591.743 12.885.436 7.004.768 14.014 1.236 21.017.238 3.562.51 7.122.848 10.677 1.534 16.107 3.412 32.073 4.14 48.27.458 10.194.718 20.404.718 30.609 0 10.642 8.705 19.299 19.404 19.299h118.939c9.797 0 17.768-7.93 17.768-17.677v-37.929c0-.652.367-1.039.675-1.247.332-.227.87-.437 1.554-.165 7.184 2.867 18.482 7.391 31.508 12.663 3.824 1.549 8.185-.297 9.734-4.124s-.297-8.185-4.125-9.735c-13.055-5.284-24.378-9.818-31.577-12.69-5.126-2.045-10.915-1.42-15.481 1.673-4.533 3.072-7.239 8.165-7.239 13.624v37.929c0 1.503-1.263 2.726-2.817 2.726h-118.938c-2.456 0-4.454-1.95-4.454-4.365-.066-29.674-2.025-57.326-3.937-71.569-.084-.625-2.064-15.463-2.447-28.166-.154-5.119-.267-8.849-.35-11.567.494-.007.995-.01 1.498-.01 59.494 0 179.968 50.249 183.971 51.928 42.714 17.916 83.47 39.784 129.956 46.555 18.375 2.676 36.252 2.959 54.713.262 26.346-3.85 51.318-10.529 72.271-16.555 13.391-3.851 25.749-10.512 38.464-16.063v8.526c0 3.834-1.759 7.421-4.707 9.595-12.724 9.386-38.289 17.793-73.933 24.311-32.138 5.876-66.477 10.716-99.092 6.155-14.703-2.056-29.169-5.927-42.788-11.87-13.227-5.772-29.68-12.632-41.154-17.371-3.815-1.575-8.187.24-9.763 4.055-1.576 3.816.24 8.187 4.055 9.763 16.364 6.759 30.501 12.726 40.882 17.256 22.832 9.963 48.424 14.978 76.308 14.978 27.345 0 55.273-4.317 82.02-9.647 24.301-4.843 51.988-10.589 72.34-25.598 6.752-4.979 10.782-13.064 10.782-21.626v-11.804c.001-4.374-1.954-8.21-5.362-10.526z"/></g></g></svg>