<svg viewBox="0 -47 512 512" xmlns="http://www.w3.org/2000/svg"><path d="m502 0h-190c-23.597656 0-44.328125 12.457031-56 31.128906-11.671875-18.671875-32.402344-31.128906-56-31.128906h-190c-5.523438 0-10 4.476562-10 10v66.992188c0 5.523437 4.476562 10 10 10s10-4.476563 10-10v-56.992188h180c25.363281 0 46 20.636719 46 46v295.136719c-11.6875-11.226563-27.550781-18.136719-45-18.136719h-181v-187.445312c0-5.523438-4.476562-10-10-10s-10 4.476562-10 10v252.445312c0 5.523438 4.476562 10 10 10h337.667969c5.523437 0 10-4.476562 10-10s-4.476563-10-10-10h-80.535157c4.5625-20.015625 22.492188-35 43.867188-35h181v35h-69c-5.523438 0-10 4.476562-10 10s4.476562 10 10 10h79c5.523438 0 10-4.476562 10-10v-398c0-5.523438-4.476562-10-10-10zm-482 363h181c21.375 0 39.304688 14.984375 43.867188 35h-224.867188zm291-20c-17.449219 0-33.3125 6.910156-45 18.136719v-295.136719c0-25.363281 20.636719-46 46-46h180v323zm0 0"/><path d="m10 126.328125c2.628906 0 5.210938-1.058594 7.070312-2.929687 1.859376-1.859376 2.929688-4.429688 2.929688-7.070313 0-2.628906-1.070312-5.207031-2.929688-7.066406-1.859374-1.863281-4.441406-2.933594-7.070312-2.933594s-5.210938 1.070313-7.070312 2.933594c-1.859376 1.859375-2.929688 4.4375-2.929688 7.066406 0 2.640625 1.070312 5.210937 2.929688 7.070313 1.859374 1.871093 4.441406 2.929687 7.070312 2.929687zm0 0"/><path d="m84.914062 280.089844c-5.523437 0-10 4.480468-10 10 0 5.523437 4.476563 10 10 10h96.171876c5.523437 0 10-4.476563 10-10 0-5.519532-4.476563-10-10-10h-38.085938v-34.347656h33.582031c5.523438 0 10-4.476563 10-10v-22.179688c0-14.429688-3.21875-28.96875-9.304687-42.046875-1.277344-2.738281-1.949219-5.785156-1.949219-8.804687 0-3.871094 1.074219-7.664063 3.109375-10.960938l11.15625-18.058594c.976562-1.578125 1.492188-3.398437 1.492188-5.253906v-24.09375c0-3.863281-2.226563-7.382812-5.71875-9.039062l-25.796876-12.160157v-10.238281c0-5.519531-4.476562-10-10-10h-33.082031c-5.519531 0-10 4.480469-10 10l.050781 10.15625-25.847656 12.242188c-3.492187 1.65625-5.71875 5.175781-5.71875 9.039062v24.09375c0 1.855469.515625 3.675781 1.492188 5.253906l11.152344 18.0625c2.039062 3.292969 3.113281 7.082032 3.113281 10.957032 0 3.023437-.671875 6.066406-1.949219 8.804687-6.089844 13.078125-9.304688 27.617187-9.304688 42.046875v22.179688c0 5.523437 4.476563 10 10 10h33.523438v34.347656zm19.722657-138.847656-9.660157-15.640626v-14.929687l20.125-9.53125c6.917969-3.273437 11.390626-10.339844 11.390626-17.996094v-.234375h13.078124v.234375c0 7.65625 4.46875 14.722657 11.390626 17.996094l20.125 9.53125v14.929687l-9.660157 15.640626c-3.988281 6.457031-6.097656 13.882812-6.097656 21.472656 0 5.914062 1.320313 11.878906 3.816406 17.242187 4.867188 10.453125 7.4375 22.074219 7.4375 33.605469v12.183594h-33.523437c-.019532 0-.039063 0-.058594 0h-33.523438v-12.183594c0-11.53125 2.574219-23.152344 7.4375-33.605469 2.5-5.363281 3.820313-11.324219 3.820313-17.242187 0-7.59375-2.109375-15.015625-6.097656-21.472656zm0 0"/><path d="m471.046875 95.199219c2.933594-4.503907 1.78125-10.519531-2.609375-13.625l-36.335938-25.664063c-2.480468-1.753906-5.625-2.285156-8.542968-1.441406-2.917969.84375-5.292969 2.96875-6.460938 5.773438l-2.351562 5.660156c-2.480469 5.976562-8.269532 9.84375-14.746094 9.84375-5.523438 0-10 4.476562-10 10v150c0 5.519531 4.476562 10 10 10h62.667969c2.941406 0 5.734375-1.296875 7.632812-3.542969 1.902344-2.246094 2.714844-5.214844 2.226563-8.117187l-5.277344-31.367188c-3.695312-21.941406-1.992188-44.71875 4.921875-65.867188.996094-3.042968.472656-6.382812-1.410156-8.976562-1.878907-2.59375-4.890625-4.128906-8.09375-4.128906h-6.84375c-1.003907 0-1.824219-.820313-1.824219-1.824219 0-.355469.105469-.699219.296875-.996094zm-61.046875 130.542969v-131.402344c8.359375-2.40625 15.601562-7.785156 20.320312-15.203125l18.710938 13.21875-11.496094 17.65625c-2.3125 3.554687-3.535156 7.671875-3.535156 11.910156 0 9.910156 6.640625 18.300781 15.707031 20.949219-4.9375 20.632812-5.703125 42.230468-2.179687 63.164062l3.316406 19.707032zm0 0"/><path d="m361.667969 135.15625c-6.476563 0-12.265625-3.863281-14.75-9.84375l-2.351563-5.660156c-1.164062-2.804688-3.539062-4.925782-6.460937-5.769532-2.917969-.84375-6.058594-.3125-8.542969 1.4375l-36.332031 25.667969c-4.390625 3.105469-5.542969 9.121094-2.609375 13.625l16.75 25.726563c.195312.296875.296875.640625.296875.996094 0 1.003906-.820313 1.820312-1.824219 1.820312h-6.84375c-3.203125 0-6.214844 1.535156-8.09375 4.128906-1.882812 2.597656-2.40625 5.933594-1.410156 8.980469 6.914062 21.148437 8.613281 43.921875 4.921875 65.863281l-5.28125 31.367188c-.488281 2.902344.328125 5.871094 2.226562 8.117187 1.902344 2.246094 4.695313 3.542969 7.636719 3.542969h62.664062c5.523438 0 10-4.476562 10-10v-150c.003907-5.519531-4.476562-10-9.996093-10zm-10 150h-40.84375l3.316406-19.707031c3.523437-20.933594 2.757813-42.535157-2.179687-63.164063 9.066406-2.652344 15.707031-11.039062 15.707031-20.949218 0-4.242188-1.222657-8.359376-3.535157-11.910157l-11.496093-17.65625 18.710937-13.21875c4.71875 7.417969 11.957032 12.796875 20.320313 15.203125zm0 0"/><path d="m385.328125 398c-2.628906 0-5.207031 1.070312-7.066406 2.929688-1.863281 1.859374-2.933594 4.429687-2.933594 7.070312 0 2.628906 1.070313 5.210938 2.933594 7.070312 1.859375 1.859376 4.4375 2.929688 7.066406 2.929688 2.640625 0 5.210937-1.070312 7.070313-2.929688 1.871093-1.859374 2.929687-4.441406 2.929687-7.070312s-1.058594-5.210938-2.929687-7.070312c-1.859376-1.859376-4.429688-2.929688-7.070313-2.929688zm0 0"/></svg>