<?xml version="1.0" encoding="UTF-8"?>
<svg xmlns="http://www.w3.org/2000/svg" viewBox="0 0 64 64" width="512" height="512"><g id="Layer_31" data-name="Layer 31"><path d="M51,35a11.916,11.916,0,0,0-4.431.858,23.874,23.874,0,0,1-.564-4.957,8.452,8.452,0,0,0,1.223.1,2.772,2.772,0,0,0,.973-5.368L42,23.307V23a1,1,0,0,0,1-1V18c0-.086-.01-.17-.013-.255A4.39,4.39,0,0,0,44.414,18a3.548,3.548,0,0,0,3.19-1.971l.291-.582A1,1,0,0,0,48,15v-.764l.258-.515.227.136A1,1,0,0,0,50,13V12a7.009,7.009,0,0,0-7-7h-.271a2.735,2.735,0,0,0-2.182,4.376l-1.541,2.312A6.956,6.956,0,0,0,36,11a20.745,20.745,0,0,0-11.545,3.5l-4,2.664A7.751,7.751,0,0,0,17,23.619,12.93,12.93,0,0,0,18.921,30.4L21.562,34.7l-1.876,2.345A12,12,0,1,0,24.949,48h.663L26,53.077A1,1,0,0,0,27,54h7a1,1,0,0,0,1-1V52a4.005,4.005,0,0,0-3-3.873V45.156l12.436-9.673c.081.439.191.871.294,1.3A11.976,11.976,0,1,0,51,35ZM27.167,25.248l.641-.642,1.468,1.1-1.322,1.587ZM30.149,33h.437l-.316.316Zm-.77-2-.6-1.569,2.1-2.523,1.209.907A2.264,2.264,0,0,1,32.54,31Zm3.908-4.784L29.266,23.2a13.868,13.868,0,0,1,5.088-2.977l.7,2.092A1,1,0,0,0,36,23v4a1,1,0,0,0,.684.948L44,30.387v.393c0,.074.009.146.01.22H34.761A4.253,4.253,0,0,0,35,29.641,4.3,4.3,0,0,0,33.287,26.216Zm7.362-1.279,6.85,2.568a.772.772,0,0,1-.271,1.5,6.538,6.538,0,0,1-2.077-.337L38,26.279V23h2v1A1,1,0,0,0,40.649,24.937Zm1.567-14.458c.46.165.916.338,1.359.543a19.389,19.389,0,0,1-2.457,1.1Zm3.889,3.074A1,1,0,0,0,46,14v.764l-.186.371a1.555,1.555,0,0,1-1.4.865,2.4,2.4,0,0,1-1.707-.707.979.979,0,0,0-.36-.225,6.939,6.939,0,0,0-.595-1.046,21.358,21.358,0,0,0,3.876-1.879l.909.546ZM42.729,7H43a5.009,5.009,0,0,1,4.936,4.2l-1.8-1.079a18.342,18.342,0,0,0-3.616-1.664A.758.758,0,0,1,42,7.729.73.73,0,0,1,42.729,7ZM25.563,16.16A18.755,18.755,0,0,1,36,13a5.006,5.006,0,0,1,5,5v3H36.721l-.773-2.316a1,1,0,0,0-1.19-.654,15.886,15.886,0,0,0-7.38,4.178l-1.461,1.461-5.254-4.087a5.785,5.785,0,0,1,.9-.758ZM19,23.619a5.757,5.757,0,0,1,.527-2.386l5.639,4.385,1.655,4.3a15.739,15.739,0,0,1-4.765,1.762l-1.432-2.327A10.936,10.936,0,0,1,19,23.619ZM13,57a10,10,0,1,1,5.428-18.387L17.8,39.4A8.993,8.993,0,1,0,21.941,48h1.008A10.013,10.013,0,0,1,13,57Zm9.949-11H21.941a8.975,8.975,0,0,0-2.576-5.356l.626-.782A9.973,9.973,0,0,1,22.949,46ZM12.1,47.434A1,1,0,0,0,13,48h6.92a7.011,7.011,0,1,1-3.379-7.028l-4.322,5.4A1,1,0,0,0,12.1,47.434ZM15.08,46,18.1,42.223A6.97,6.97,0,0,1,19.92,46Zm9.869,0a11.96,11.96,0,0,0-3.708-7.7l1.435-1.794,2.345,3.812L25.459,46ZM33,52H27.926L27,39.923a1.013,1.013,0,0,0-.145-.447l-3.681-5.982a17.679,17.679,0,0,0,4.374-1.69L30,38.186V49a1,1,0,0,0,1,1A2,2,0,0,1,33,52Zm-1-9.378V38a1,1,0,0,0-.066-.359l-.878-2.283L33.414,33H44.1c.006.066.013.131.019.2ZM51,57a9.993,9.993,0,0,1-5.7-18.2c.109.335.2.674.324,1a8.934,8.934,0,1,0,1.763-1.036c-.112-.317-.209-.639-.308-.96A10,10,0,1,1,51,57ZM48.135,40.62a7.026,7.026,0,1,1-1.708,1.092,25.886,25.886,0,0,0,3.814,5.938l1.518-1.3A23.889,23.889,0,0,1,48.135,40.62Z"/><rect x="13" y="9" width="12" height="2"/><rect x="7" y="13" width="10" height="2"/><rect x="1" y="28" width="13" height="2"/><rect x="1" y="24" width="6" height="2"/></g></svg>
