<svg id="Layer_1" height="512" viewBox="0 0 128 128" width="512" xmlns="http://www.w3.org/2000/svg" data-name="Layer 1"><path d="m77.196 31.722h3.505v3.505h-3.505z" transform="matrix(.707 -.707 .707 .707 -.547 65.628)"/><path d="m77.66 62.083h3.505v3.505h-3.505z" transform="matrix(.707 -.707 .707 .707 -21.879 74.848)"/><path d="m47.299 62.547h3.505v3.505h-3.505z" transform="matrix(.707 -.707 .707 .707 -31.1 53.518)"/><path d="m46.835 32.186h3.505v3.505h-3.505z" transform="matrix(.707 -.707 .707 .707 -9.767 44.297)"/><path d="m62.763 38.334-9.316 9.316a1.748 1.748 0 0 0 0 2.474l9.316 9.316a1.748 1.748 0 0 0 2.474 0l9.316-9.316a1.748 1.748 0 0 0 0-2.474l-9.316-9.316a1.748 1.748 0 0 0 -2.474 0zm1.237 17.394-6.841-6.841 6.841-6.841 6.841 6.841z"/><path d="m93.863 81.571v-32.684a29.751 29.751 0 0 0 -8.263-20.593c-.155-.178-.312-.355-.48-.523s-.348-.328-.528-.484a29.749 29.749 0 0 0 -18.842-8.208v-3.079a1.75 1.75 0 0 0 -3.5 0v3.079a29.753 29.753 0 0 0 -18.836 8.2c-.18.157-.36.317-.53.487s-.325.345-.48.523a29.751 29.751 0 0 0 -8.267 20.593v32.689a7.1 7.1 0 0 0 -5.344 6.866c0 3.26 4.651 11.381 5.584 12.976a1.749 1.749 0 0 0 3.021 0c.932-1.595 5.583-9.716 5.583-12.976a7.1 7.1 0 0 0 -5.344-6.866v-18.671a30.045 30.045 0 0 0 4.763 6.571c.158.181.317.361.489.532.1.1.215.19.322.288a29.757 29.757 0 0 0 19.044 8.4v10.409a8.3 8.3 0 0 0 -6.54 8.1c0 3.888 5.647 13.746 6.779 15.682a1.75 1.75 0 0 0 3.022 0c1.132-1.936 6.779-11.794 6.779-15.682a8.3 8.3 0 0 0 -6.54-8.1v-10.405a29.761 29.761 0 0 0 19.045-8.4c.106-.1.219-.185.321-.288.172-.171.331-.351.489-.532a30.045 30.045 0 0 0 4.753-6.575v18.671a7.1 7.1 0 0 0 -5.344 6.866c0 3.26 4.651 11.381 5.583 12.976a1.749 1.749 0 0 0 3.021 0c.933-1.595 5.584-9.716 5.584-12.976a7.1 7.1 0 0 0 -5.344-6.866zm-54.382 6.866c0 1.215-1.674 4.927-3.594 8.508-1.92-3.581-3.594-7.293-3.594-8.508a3.583 3.583 0 0 1 1.844-3.119v.712a1.75 1.75 0 0 0 3.5 0v-.712a3.583 3.583 0 0 1 1.844 3.119zm44.473-46.537a29.608 29.608 0 0 1 -1.242 3.308 52.948 52.948 0 0 0 -15.061-15.022 29.572 29.572 0 0 1 3.334-1.253c5.046-1.511 9.12-1.076 11.522 1.2.083.081.164.162.245.245 2.279 2.405 2.714 6.48 1.202 11.522zm-1.211 25.5c-.075.076-.15.151-.226.226-3.047 2.9-8.672 2.656-14.827-.046a51.905 51.905 0 0 0 8.259-6.749 52.021 52.021 0 0 0 6.75-8.251c2.701 6.156 2.943 11.778.044 14.82zm-18.743 7.85a26.213 26.213 0 0 1 -10.385-2.135 29.722 29.722 0 0 0 10.385-3.365 29.722 29.722 0 0 0 10.385 3.365 26.213 26.213 0 0 1 -10.385 2.135zm-18.743-7.85c-2.9-3.046-2.655-8.668.044-14.82a52.021 52.021 0 0 0 6.75 8.251 51.936 51.936 0 0 0 8.258 6.748c-6.155 2.7-11.779 2.947-14.826.047-.076-.071-.151-.146-.226-.226zm28.217-9.043a46.727 46.727 0 0 1 -9.474 7.343 46.744 46.744 0 0 1 -9.473-7.343 46.9 46.9 0 0 1 -7.355-9.454 47.992 47.992 0 0 1 16.828-16.856 47.992 47.992 0 0 1 16.829 16.86 46.9 46.9 0 0 1 -7.355 9.454zm-29.428-16.457c-1.512-5.044-1.077-9.119 1.2-11.522.124-.126.25-.248.376-.371a8.63 8.63 0 0 1 5.924-1.967 19.245 19.245 0 0 1 5.467.891 29.572 29.572 0 0 1 3.334 1.253 52.948 52.948 0 0 0 -15.059 15.026 29.608 29.608 0 0 1 -1.242-3.31zm19.954-19.376a26.2 26.2 0 0 1 10.4 2.141 24.742 24.742 0 0 0 -4.417.915 34.755 34.755 0 0 0 -5.983 2.479 34.755 34.755 0 0 0 -5.98-2.479 24.72 24.72 0 0 0 -4.416-.916 26.214 26.214 0 0 1 10.396-2.14zm-24.232 15.987a29.75 29.75 0 0 0 3.365 10.376 29.739 29.739 0 0 0 -3.364 10.376 26.321 26.321 0 0 1 0-20.752zm29.022 58.689c0 1.767-2.462 6.953-4.79 11.232-2.328-4.278-4.79-9.463-4.79-11.232a4.788 4.788 0 0 1 3.04-4.448v1.5a1.75 1.75 0 0 0 3.5 0v-1.5a4.788 4.788 0 0 1 3.04 4.448zm19.441-37.937a29.739 29.739 0 0 0 -3.364-10.376 29.75 29.75 0 0 0 3.365-10.376 26.321 26.321 0 0 1 0 20.752zm3.882 37.682c-1.92-3.581-3.594-7.293-3.594-8.508a3.583 3.583 0 0 1 1.844-3.119v.712a1.75 1.75 0 0 0 3.5 0v-.712a3.583 3.583 0 0 1 1.844 3.119c0 1.215-1.674 4.927-3.594 8.508z"/></svg>