<svg clip-rule="evenodd" fill-rule="evenodd" height="512" image-rendering="optimizeQuality" shape-rendering="geometricPrecision" text-rendering="geometricPrecision" viewBox="0 0 43.3492 43.3492" width="512" xmlns="http://www.w3.org/2000/svg"><g id="Layer_x0020_1"><g id="_307643992"><path id="_307644640" d="m17.2342 14.5078c1.1998.145 4.8998.5007 8.8728-.0368.0928-1.0031.4122-3.7285 1.2689-5.6422-.9188-.0651-2.5515-.2737-4.3054-.9364-3.3597-1.2697-5.6027-3.6349-6.5107-6.8571l-1.2087.2707c.2347 1.5976.2307 4.1955.2278 5.9705-.0008.5762-.002 1.0737.0059 1.3954.0119.4744.2701 1.0614.5688 1.7407.4715 1.07 1.049 2.3818 1.0806 4.0952zm4.3528 1.2011c-2.7803 0-4.7748-.2993-4.901-.3188-.2366-.0365-.4091-.2445-.4013-.4841.0602-1.711-.5018-2.9866-.9967-4.112-.3399-.7713-.6329-1.4371-.6497-2.0986-.0079-.3343-.0069-.8375-.0059-1.4204.0031-1.9189.0079-4.8183-.2878-6.2354-.0531-.2533.1074-.5018.3598-.5583l2.095-.4698c.2524-.0566.5038.1006.5639.3525.7553 3.1784 2.7881 5.4136 6.0415 6.643 2.457.9282 4.7016.9047 4.7243.9042.1727-.0048.3322.0881.418.2368.0859.1488.0838.3325-.0049.4798-1.2273 2.0455-1.5203 6.2479-1.5232 6.2901-.0137.2221-.1824.4038-.4023.4365-1.7922.2669-3.5254.3546-5.0297.3545z"/><path id="_307644880" d="m28.137 8.8575c-.2591 0-.4703-.2079-.4732-.4673-.0363-2.8968.5649-5.9751.8409-7.2294l-1.4757-.0273c-1.2127 3.3113-4.7846 5.9409-4.9414 6.0549-.2109.1536-.5067.1072-.6605-.1039-.1537-.2114-.1075-.5072.1035-.6611.0376-.0272 3.7217-2.743 4.7095-5.9102.0622-.2009.2485-.3377.4605-.3323l2.4055.0442c.144.0027.279.071.3667.1854.0879.1143.1183.2626.0838.4024-.0106.0397-.9907 4.0168-.9464 7.5656.003.2612-.206.4758-.4673.4791-.0019-.0001-.004 0-.0059-.0001z"/><path id="_307644616" d="m24.0308 43.349c-.5412 0-1.0391-.2445-1.4798-.4616-.3174-.1563-.6181-.304-.8764-.3372-.2582.0331-.5591.1811-.8765.3372-.4622.2274-.9869.4848-1.5577.4602-.5559-.0245-1.0628-.3079-1.5537-.582-.3735-.2096-.7276-.4071-1.0599-.4687-.3114-.0581-.6664-.0022-1.042.0566-.5283.083-1.1259.1769-1.7391-.0339-.5855-.2014-1.119-.6603-1.6356-1.1042-.3784-.3261-.7709-.6634-1.1436-.8577-.3362-.1756-.702-.2591-1.0894-.3476-.5826-.1332-1.2442-.2842-1.8682-.7847-.1724-.1382-.2268-.377-.1302-.5758 4.0748-8.4049 7.9777-20.5328 8.306-21.5611l.0001-2.1661c0-.2613.2119-.4732.4732-.4732.2612 0 .4732.2119.4732.4732l.0001 2.2395c0 .0483-.007.0965-.0218.1426-.0403.1267-4.0007 12.6047-8.2015 21.3896.3697.2081.766.2988 1.1801.3933.4289.0978.8725.1993 1.3161.4311.4704.2448.9041.6184 1.3241.9795.4477.3855.9109.7844 1.325.9265.3904.1342.8252.0663 1.2846-.006.4379-.0687.8902-.1398 1.3625-.0522.4842.0899.9237.3356 1.3486.5732.4124.2304.8016.4479 1.1328.4625.3303.0149.703-.1692 1.0993-.3639.3974-.1957.8094-.3982 1.254-.4353.0267-.0024.0533-.0022.0789 0 .4458.0371.8567.2396 1.254.4353.3965.1945.7719.3789 1.0993.3639.3324-.0148.7207-.2321 1.1327-.4625.4251-.2377.8647-.4832 1.3497-.5732.4713-.0877.9238-.0165 1.3615.0522.4596.0721.8942.1404 1.2856.006.4131-.1422.8764-.5408 1.325-.9265.419-.3611.8538-.7346 1.3231-.9795.4446-.2319.8872-.3331 1.3161-.4311.4142-.0947.8104-.1851 1.1811-.3933-4.2027-8.7855-8.2055-21.2974-8.2459-21.4246-.0146-.0466-.0217-.0949-.0217-.1437l.0002-2.2394c0-.2615.2108-.4733.473-.4733.2615-.0001.4732.212.4732.4733l.0001 2.1652c.3323 1.0342 4.2757 13.1952 8.3494 21.598.0967.1987.0424.4377-.1292.5758-.625.5004-1.2856.6515-1.8692.7847-.3873.0884-.7532.1721-1.0894.3476-.3726.1942-.765.5316-1.1436.8577-.5156.4438-1.049.9029-1.6346 1.1041-.6132.2108-1.2116.1169-1.7401.0341-.3746-.0591-.7295-.1146-1.0421-.0567-.3321.0615-.6851.2593-1.0598.4687-.4909.274-.9977.5575-1.5537.582-.0255.001-.0513.0016-.0779.0014z"/><path id="_307645144" d="m21.225 18.135c-2.9072 0-4.5242-.5271-4.6238-.5606-.2474-.0836-.3806-.3517-.2977-.5994s.3509-.3806.5984-.2979l.0002-.0001c.0353.0115 3.546 1.1418 9.5559-.0158.2564-.0497.5048.1185.5541.3751.0495.2567-.1183.5048-.3756.5542-2.1177.4078-3.9317.5447-5.4115.5445z"/><path id="_307645000" d="m23.1367 18.0598c-.2614 0-.4733-.2118-.4733-.4732l.0001-2.3843c0-.2615.2118-.4732.4731-.4732.2614-.0002.4732.2119.4732.4732l.0002 2.3843c0 .2614-.2121.4733-.4733.4732zm-2.9733.0473c-.2614 0-.4734-.2119-.4734-.4732v-2.4148c0-.2615.2119-.4731.4732-.4731.2612-.0002.4732.2118.4732.4732l.0001 2.4145c0 .2615-.2121.4734-.4731.4734z"/><path id="_307644856" d="m12.3483 37.8186c-.0701 0-.1411-.0154-.2072-.048-.2355-.1146-.3332-.3979-.2179-.6329.0416-.0851 4.1555-8.569 4.7598-14.1739.0277-.2599.2613-.4479.5216-.4198.2594.0279.4476.2614.419.5212-.621 5.7705-4.678 14.1344-4.8506 14.4876-.0817.168-.2504.2659-.4247.2658z"/><path id="_307644544" d="m31.0012 37.8186c-.1746 0-.3433-.0977-.4252-.2658-.1724-.3533-4.2284-8.717-4.8505-14.4876-.0286-.26.1597-.4932.42-.5212.2593-.0276.4929.1599.5205.4198.6045 5.6048 4.7184 14.089 4.7599 14.1739.1154.2348.0177.5183-.217.6329-.0669.0325-.138.0481-.2077.048z"/><path id="_307644376" d="m16.3342 42.2723c-.0425 0-.085-.0056-.1283-.0174-.2514-.0704-.3983-.3314-.3283-.5831.0248-.0854 2.3878-8.595 2.7358-14.2327.0158-.2609.2425-.4594.5008-.4432.2615.0162.4594.2407.4437.5016-.3539 5.738-2.7447 14.3428-2.7684 14.429-.0579.2089-.2484.346-.4553.3458z"/><path id="_307644232" d="m27.0152 42.2723c-.2072 0-.3965-.1367-.4556-.3458-.0235-.0863-2.4135-8.6909-2.7684-14.429-.0157-.2609.1824-.4855.4436-.5016.2605-.0162.4851.1825.5019.4433.3471 5.6393 2.7111 14.1473 2.7348 14.2326.0701.2516-.0769.5128-.3283.5831-.0423.0116-.0858.0176-.128.0174z"/><path id="_307644040" d="m21.6746 42.5476c-.2613 0-.4733-.2118-.4733-.4732l.0002-12.1398c0-.2613.2118-.4732.4731-.4732.2613-.0002.4732.2119.4732.4732v12.1396c0 .2616-.212.4734-.4732.4734z"/></g></g></svg>