<svg id="svg8" height="512" viewBox="0 0 12.47831 14.816149" width="512" xmlns="http://www.w3.org/2000/svg" xmlns:svg="http://www.w3.org/2000/svg"><marker id="marker1501" orient="auto" overflow="visible" refX="0" refY="0"><path id="path1238" d="m0 0 5-5-17.5 5 17.5 5z" fill-rule="evenodd" stroke="rgb(0,0,0)" stroke-width="1pt" transform="matrix(.8 0 0 .8 10 0)"/></marker><marker id="marker4165" orient="auto" overflow="visible" refX="0" refY="0"><path id="path4163" d="m0 0 5-5-17.5 5 17.5 5z" fill-rule="evenodd" stroke="rgb(0,0,0)" stroke-width="1pt" transform="matrix(.8 0 0 .8 10 0)"/></marker><marker id="marker4143" orient="auto" overflow="visible" refX="0" refY="0"><path id="path4141" d="m0 0 5-5-17.5 5 17.5 5z" fill-rule="evenodd" stroke="rgb(0,0,0)" stroke-width="1pt" transform="matrix(.8 0 0 .8 10 0)"/></marker><marker id="Arrow1Lend" orient="auto" overflow="visible" refX="0" refY="0"><path id="path3866" d="m0 0 5-5-17.5 5 17.5 5z" fill-rule="evenodd" stroke="rgb(0,0,0)" stroke-width="1pt" transform="matrix(-.8 0 0 -.8 -10 0)"/></marker><marker id="Arrow1Lstart" orient="auto" overflow="visible" refX="0" refY="0"><path id="path3863" d="m0 0 5-5-17.5 5 17.5 5z" fill-rule="evenodd" stroke="rgb(0,0,0)" stroke-width="1pt" transform="matrix(.8 0 0 .8 10 0)"/></marker><g id="layer2" transform="translate(18.939 -43.393)"><path id="ic-dres_code" d="m-56.833984 164.00391c-.388324-.00017-.741644.22446-.90625.57617l-2.570313 5.50586-8.636719 3.0039c-.566048.19716-1.1589.44542-1.683593.89454-.524693.44906-.951172 1.18288-.951172 2.01367v25.8457c-.0022.55534.448565 1.00608 1.003906 1.00391.552288-.002.998257-.45162.996094-1.00391v-25.8457c-.03924-.56678.733444-.80661 1.292969-1.01758l8.037109-2.79688 4.488281 8.97461c.276349.54491.97242.71685 1.470703.36328l1.806641-1.29101.515625 1.54883c-1.313014 8.10555-2.589721 16.18074-3.888672 24.30078-.04532.29246.04121.58997.236328.8125l6.873047 7.85351c.398482.4558 1.107377.4558 1.505859 0l6.865235-7.85351c.195114-.22253.28165-.52004.236328-.8125l-3.888672-24.30078.517578-1.54883 1.806641 1.29101c.49927.35826 1.200507.18573 1.476562-.36328l4.486328-8.97265c2.678006.93086 5.35556 1.86302 8.033203 2.79492.704591.23373 1.291016.5655 1.291016 1.01758v41.03711c0 .55121-.415858.96679-.966797.96679h-41.228515c-.550938 0-.966797-.41558-.966797-.96679v-11.19141c-.0021-.54924-.446858-.99395-.996094-.99609-.552285-.002-1.00175.44381-1.003906.99609v11.19141c0 1.62448 1.342314 2.96679 2.966797 2.96679h41.228515c1.624482 0 2.966797-1.34231 2.966797-2.96679v-41.03711c0-.83079-.418666-1.56461-.943359-2.01367-.524694-.44912-1.125348-.69738-1.691407-.89454-2.876488-1.00076-5.752712-2.00229-8.628906-3.0039l-2.576172-5.50586c-.164904-.35235-.519173-.5771-.908203-.57617zm2.109375 1.99218h13.455078l-6.726563 8.22461zm-1.878907.86524 7.15625 8.74609-5.052734 3.60938-4.068359-8.14063zm17.205078.002 1.966797 4.21289-4.070312 8.14063-5.050781-3.60742zm-8.601562 10.16206 2.783203 1.98828-.558594 1.67969h-4.451171l-.556641-1.67969zm-2.095703 5.66992h4.191406l.568359 3.55664-5.890624 3.52735zm5.099609 5.67969.640625 4-8.085937 5.00391.802734-5.0293zm.982422 6.13867.658203 4.11133-10.308593 6.41016.804687-5.04297zm1 6.25781.826172 5.16016-5.808594 6.63672-4.93164-5.63281z" opacity=".99" transform="scale(.265)" font-variant-ligatures="normal" font-variant-position="normal" font-variant-caps="normal" font-variant-numeric="normal" font-variant-alternates="normal" font-variant-east-asian="normal" font-feature-settings="normal" font-variation-settings="normal" text-indent="0" text-align="start" text-decoration-line="none" text-decoration-style="solid" text-decoration-color="rgb(0,0,0)" text-transform="none" text-orientation="mixed" white-space="normal" shape-padding="0" shape-margin="0" inline-size="0" isolation="auto" mix-blend-mode="normal" solid-color="rgb(0,0,0)" solid-opacity="1" vector-effect="none"/></g></svg>