<svg id="Capa_1" enable-background="new 0 0 511.462 511.462" height="512" viewBox="0 0 511.462 511.462" width="512" xmlns="http://www.w3.org/2000/svg"><g><path d="m447.769 217.28 63.205-194.5-14.266-4.637-20.736 63.81-58.501-18.973 20.175-58.056-14.169-4.924-55.606 160.018c-2.063 6.15-6.676 11.238-12.987 14.327-6.721 3.288-14.442 3.819-21.182 1.459-37.11-13.006-103.263-29.401-167.397-36.714-75.563-8.613-124.222-2.525-144.625 18.097-15.585 15.751-22.811 39.279-20.898 68.041 3.056 45.935 28.98 97.592 61.644 122.829 16.677 12.887 47.821 19.411 92.615 19.411 1.518 0 3.054-.008 4.603-.022 34.56-.334 77.418-4.55 121.355-11.897 5.563 18.44 15.617 35.283 29.484 49.084v41.83l48 20v45h15v-55l-48-20v-21.5h136v21.5l-48 20v55h15v-45l48-20v-41.83c22.065-21.96 34.5-51.619 34.5-83.17-.002-45.218-25.679-84.544-63.214-104.183zm-170.183 123.636c-80.917 13.451-175.316 18.973-205.989-4.729-29.088-22.476-53.097-70.606-55.848-111.955-1.129-16.98.833-40.566 16.594-56.496 16.524-16.702 63.495-21.585 132.263-13.742 62.979 7.18 127.816 23.237 164.137 35.966 10.504 3.681 22.436 2.9 32.735-2.143 9.944-4.866 17.266-13.045 20.589-22.953l30.481-87.713 58.791 19.067-37.351 114.941c-12.632-4.654-26.277-7.197-40.505-7.197-64.79 0-117.5 52.71-117.5 117.5-.002 6.585.545 13.086 1.603 19.454zm181.791 59.046h-131.791c-23.295-19.555-36.604-48.015-36.604-78.5 0-56.519 45.981-102.5 102.5-102.5s102.5 45.981 102.5 102.5c-.001 30.485-13.31 58.945-36.605 78.5z"/><path d="m336.481 282.795h15v15h-15z"/><path d="m387.481 282.795h15v15h-15z"/><path d="m438.481 282.795h15v15h-15z"/><path d="m336.481 361.462h15v15h-15z"/><path d="m387.481 361.462h15v15h-15z"/><path d="m438.481 361.462h15v15h-15z"/><path d="m362.481 243.462h15v15h-15z"/><path d="m413.481 243.462h15v15h-15z"/><path d="m311.481 322.129h15v15h-15z"/><path d="m362.481 322.129h15v15h-15z"/><path d="m413.481 322.129h15v15h-15z"/><path d="m464.481 322.129h15v15h-15z"/><path d="m140.981 195.962h15v15h-15z"/><path d="m170.981 195.962h15v15h-15z"/><path d="m41.981 195.962h84v15h-84z"/><path d="m200.981 195.962h27v15h-27z"/><path d="m41.981 236.962h175v15h-175z"/><path d="m231.981 236.962h15v15h-15z"/><path d="m182.981 277.962h15v15h-15z"/><path d="m61.981 277.962h106v15h-106z"/><path d="m212.981 277.962h15v15h-15z"/></g></svg>