<svg id="Layer_1" enable-background="new 0 0 512 512" height="512" viewBox="0 0 512 512" width="512" xmlns="http://www.w3.org/2000/svg"><g><path d="m504.5 86c9.697 0 9.697-15 0-15h-75.333v-56h75.333c9.697 0 9.697-15 0-15h-497c-9.697 0-9.697 15 0 15h75.333v56h-75.333c-9.697 0-9.697 15 0 15h158.167v11.916c-27.173 3.872-51.444 20.542-65.415 44.084h-92.752c-9.697 0-9.697 15 0 15h85.547c-6.789 18.019-7.242 37.154-4.234 56h-81.313c-9.697 0-9.697 15 0 15h84.529c5.687 21.026 15.808 39.469 28.804 56h-113.333c-9.697 0-9.697 15 0 15h75.333v56h-75.333c-9.697 0-9.697 15 0 15h158.167v56h-158.167c-9.697 0-9.697 15 0 15h75.333v56h-75.333c-9.697 0-9.697 15 0 15h497c9.697 0 9.697-15 0-15h-75.333v-56h75.333c9.697 0 9.697-15 0-15h-148.838v-56h148.838c9.697 0 9.697-15 0-15h-75.333v-56h75.333c9.697 0 9.697-15 0-15h-113.413c13.085-16.658 23.227-35.514 28.806-56h84.607c9.697 0 9.697-15 0-15h-81.365c3.059-18.848 2.639-37.968-4.148-56h85.513c9.697 0 9.697-15 0-15h-92.716c-13.976-23.548-38.271-40.213-65.45-44.084v-11.916zm-90.333-15h-75.333-75.334v-56h150.667zm-316.334 0v-56h150.667v56h-75.333zm0 284v-56h36.017c20.289 21.336 45.15 39.407 70.432 56h-31.115zm82.834 15h47.027c5.866 3.698 11.742 7.382 17.601 11.092 2.007 1.271 3.205 3.448 3.205 5.825v11.083c0 29.413 45.721 29.46 45.721 0v-19.243c0-10.292 15.72-10.937 15.72-.434v47.677h-53.941-75.333zm-82.834 71h75.333 75.334v56h-150.667zm316.334 0v56h-150.667v-56h46.441v11.479c0 29.517 45.721 30.606 45.721.434v-11.913zm0-142v56h-58.504v-29.812c0-9.745 16.342-19.802 22.411-26.188zm-4.119-106.948c-1.047 44.703-27.535 84.78-60.407 113.342-5.707 4.959-8.979 12.174-8.979 19.795v127.725c0 10.503-15.721 9.858-15.721-.434v-74.157c0-29.699-45.72-29.539-45.72.434v19.243c0 10.161-15.721 10.161-15.721 0v-11.083c0-7.546-3.806-14.461-10.181-18.498-36.759-23.278-75.081-45.694-105.808-76.935-29.706-30.204-44.605-62.609-45.551-99.068-1.112-42.863 33.897-80.416 76.634-80.416 30.772.017 58.447 18.325 70.505 46.644 2.539 5.964 11.262 5.964 13.801 0 12.058-28.319 39.733-46.627 70.506-46.644 42.959 0 77.64 37.476 76.642 80.052zm-78.715-95.017c-30.964.707-59.086 16.883-75.333 42.577-16.247-25.693-44.369-41.87-75.333-42.577v-11.035h75.333 75.333z"/></g></svg>