<svg id="Line" height="512" viewBox="0 0 64 64" width="512" xmlns="http://www.w3.org/2000/svg"><path d="m55.11 27.82c-.09-1.58-1.41-2.82-2.99-2.82h-2.11v-3c0-.74-.41-1.37-1-1.72v-.28c0-4.54-1.77-8.81-4.97-12.03-3.22-3.21-7.49-4.97-12.03-4.97-9.37 0-17 7.63-17 17v.28c-.59.35-1 .99-1 1.72v3h-2.11c-1.59 0-2.9 1.24-2.99 2.82l-1.64 27.88c-.08 1.39.4 2.71 1.35 3.72s2.25 1.57 3.64 1.57h39.5c1.39 0 2.68-.56 3.64-1.57.95-1.01 1.44-2.33 1.35-3.72zm-11.11-2.82v-3h4v3zm-23-4.72v-.28c0-6.07 4.93-11 11-11 2.94 0 5.71 1.14 7.78 3.22 2.07 2.07 3.22 4.84 3.22 7.78v.28c-.59.35-1 .99-1 1.72v3h-20v-3c0-.74-.41-1.37-1-1.72zm11-15.28c4 0 7.77 1.56 10.61 4.39 2.83 2.84 4.39 6.61 4.39 10.61h-2c0-3.48-1.35-6.75-3.8-9.2s-5.72-3.8-9.2-3.8c-7.17 0-13 5.83-13 13h-2c0-8.27 6.73-15 15-15zm-16 17h4v3h-4zm-4.11 5h40.22c.36 0 .67.2.85.5l-.72 2.55c-2.13 7.47-8.05 13.07-15.24 14.56v-.6c0-1.1-.9-2-2-2h-6c-1.1 0-2 .9-2 2v.6c-7.19-1.49-13.11-7.08-15.24-14.55l-.72-2.55c.18-.29.49-.5.85-.5zm23.12 21h-6v-4h6zm18.94 10.06c-.57.61-1.35.94-2.18.94h-39.53c-.83 0-1.61-.33-2.18-.94s-.86-1.4-.81-2.23l1.35-23.02c2.85 7.21 9.03 12.46 16.4 13.83v1.37c0 1.1.9 2 2 2h6c1.1 0 2-.9 2-2v-1.37c7.36-1.37 13.55-6.63 16.4-13.83l1.35 23.02c.05.83-.24 1.63-.81 2.23z"/></svg>