<?xml version="1.0" encoding="UTF-8" standalone="no"?>
<!-- Created with Inkscape (http://www.inkscape.org/) -->

<svg
   version="1.1"
   id="svg1053"
   xml:space="preserve"
   width="682.66669"
   height="682.66669"
   viewBox="0 0 682.66669 682.66669"
   xmlns="http://www.w3.org/2000/svg"
   xmlns:svg="http://www.w3.org/2000/svg"><defs
     id="defs1057"><clipPath
       clipPathUnits="userSpaceOnUse"
       id="clipPath1067"><path
         d="M 0,512 H 512 V 0 H 0 Z"
         id="path1065" /></clipPath></defs><g
     id="g1059"
     transform="matrix(1.3333333,0,0,-1.3333333,0,682.66667)"><g
       id="g1061"><g
         id="g1063"
         clip-path="url(#clipPath1067)"><g
           id="g1069"
           transform="translate(111.7095,155.7983)"><path
             d="m 0,0 c 0,-8.854 -7.178,-16.032 -16.032,-16.032 -8.854,0 -16.032,7.178 -16.032,16.032 0,8.854 7.178,16.032 16.032,16.032 C -7.178,16.032 0,8.854 0,0 Z"
             style="fill:none;stroke:#000000;stroke-width:15;stroke-linecap:round;stroke-linejoin:round;stroke-miterlimit:10;stroke-dasharray:none;stroke-opacity:1"
             id="path1071" /></g><g
           id="g1073"
           transform="translate(47.5806,179.8467)"><path
             d="m 0,0 h -32.064 c -4.428,0 -8.017,-3.589 -8.017,-8.016 v -16.032 c 0,-4.428 3.589,-8.016 8.017,-8.016 H 0"
             style="fill:none;stroke:#000000;stroke-width:15;stroke-linecap:round;stroke-linejoin:round;stroke-miterlimit:10;stroke-dasharray:none;stroke-opacity:1"
             id="path1075" /></g><g
           id="g1077"
           transform="translate(113.5112,195.8789)"><path
             d="m 0,0 h -35.689 c -6.581,0 -12.973,-2.604 -17.445,-7.432 -10.128,-10.936 -15.239,-26.58 -11.653,-43.295 3.869,-18.035 18.486,-32.571 36.539,-36.357 31.111,-6.524 58.511,17.04 58.511,47.003 0,12.466 -4.747,23.816 -12.529,32.357 C 13.206,-2.754 6.724,0 0,0 Z"
             style="fill:none;stroke:#000000;stroke-width:15;stroke-linecap:round;stroke-linejoin:round;stroke-miterlimit:10;stroke-dasharray:none;stroke-opacity:1"
             id="path1079" /></g><g
           id="g1081"
           transform="translate(400.2905,155.7983)"><path
             d="m 0,0 c 0,-8.854 7.178,-16.032 16.032,-16.032 8.854,0 16.032,7.178 16.032,16.032 0,8.854 -7.178,16.032 -16.032,16.032 C 7.178,16.032 0,8.854 0,0 Z"
             style="fill:none;stroke:#000000;stroke-width:15;stroke-linecap:round;stroke-linejoin:round;stroke-miterlimit:10;stroke-dasharray:none;stroke-opacity:1"
             id="path1083" /></g><g
           id="g1085"
           transform="translate(464.4194,179.8467)"><path
             d="m 0,0 h 32.064 c 4.428,0 8.017,-3.589 8.017,-8.016 v -16.032 c 0,-4.428 -3.589,-8.016 -8.017,-8.016 H 0"
             style="fill:none;stroke:#000000;stroke-width:15;stroke-linecap:round;stroke-linejoin:round;stroke-miterlimit:10;stroke-dasharray:none;stroke-opacity:1"
             id="path1087" /></g><g
           id="g1089"
           transform="translate(398.4888,195.8789)"><path
             d="m 0,0 h 35.689 c 6.581,0 12.973,-2.604 17.445,-7.432 10.128,-10.936 15.239,-26.58 11.653,-43.295 -3.869,-18.035 -18.486,-32.571 -36.539,-36.357 -31.111,-6.524 -58.511,17.04 -58.511,47.003 0,12.466 4.747,23.816 12.529,32.357 C -13.206,-2.754 -6.724,0 0,0 Z"
             style="fill:none;stroke:#000000;stroke-width:15;stroke-linecap:round;stroke-linejoin:round;stroke-miterlimit:10;stroke-dasharray:none;stroke-opacity:1"
             id="path1091" /></g><g
           id="g1093"
           transform="translate(143.7744,147.7822)"><path
             d="M 0,0 H 224.451"
             style="fill:none;stroke:#000000;stroke-width:15;stroke-linecap:round;stroke-linejoin:round;stroke-miterlimit:10;stroke-dasharray:none;stroke-opacity:1"
             id="path1095" /></g><g
           id="g1097"
           transform="translate(496.4839,179.8467)"><path
             d="m 0,0 v 109.335 c 0,12.444 -2.897,24.718 -8.463,35.849 l -32.987,65.974 c -4.073,8.147 -12.401,13.294 -21.509,13.294 h -393.96 c -13.282,0 -24.049,-10.767 -24.049,-24.049 V 0"
             style="fill:none;stroke:#000000;stroke-width:15;stroke-linecap:round;stroke-linejoin:round;stroke-miterlimit:10;stroke-dasharray:none;stroke-opacity:1"
             id="path1099" /></g><g
           id="g1101"
           transform="translate(15.5161,308.1047)"><path
             d="M 0,0 H 476.959"
             style="fill:none;stroke:#000000;stroke-width:15;stroke-linecap:round;stroke-linejoin:round;stroke-miterlimit:10;stroke-dasharray:none;stroke-opacity:1"
             id="path1103" /></g><g
           id="g1105"
           transform="translate(464.4194,372.2339)"><path
             d="m 0,0 h -104.21 c -8.854,0 -16.032,-7.178 -16.032,-16.032 v -48.097"
             style="fill:none;stroke:#000000;stroke-width:15;stroke-linecap:round;stroke-linejoin:round;stroke-miterlimit:10;stroke-dasharray:none;stroke-opacity:1"
             id="path1107" /></g><g
           id="g1109"
           transform="translate(231.9517,308.1047)"><path
             d="m 0,0 v 48.097 c 0,8.854 7.178,16.032 16.032,16.032 h 48.097 c 8.854,0 16.032,-7.178 16.032,-16.032 V 0"
             style="fill:none;stroke:#000000;stroke-width:15;stroke-linecap:round;stroke-linejoin:round;stroke-miterlimit:10;stroke-dasharray:none;stroke-opacity:1"
             id="path1111" /></g><g
           id="g1113"
           transform="translate(119.7256,308.1047)"><path
             d="m 0,0 v 48.097 c 0,8.854 7.178,16.032 16.033,16.032 h 48.096 c 8.854,0 16.033,-7.178 16.033,-16.032 L 80.162,0"
             style="fill:none;stroke:#000000;stroke-width:15;stroke-linecap:round;stroke-linejoin:round;stroke-miterlimit:10;stroke-dasharray:none;stroke-opacity:1"
             id="path1115" /></g><g
           id="g1117"
           transform="translate(15.5161,372.2339)"><path
             d="m 0,0 h 56.113 c 8.854,0 16.032,-7.178 16.032,-16.032 v -48.097"
             style="fill:none;stroke:#000000;stroke-width:15;stroke-linecap:round;stroke-linejoin:round;stroke-miterlimit:10;stroke-dasharray:none;stroke-opacity:1"
             id="path1119" /></g><g
           id="g1121"
           transform="translate(384.2583,372.2339)"><path
             d="M 0,0 V -64.129"
             style="fill:none;stroke:#000000;stroke-width:15;stroke-linecap:round;stroke-linejoin:round;stroke-miterlimit:10;stroke-dasharray:none;stroke-opacity:1"
             id="path1123" /></g><g
           id="g1125"
           transform="translate(191.8677,308.1084)"><path
             d="m 0,0 c -10.065,-13.398 -16.029,-30.053 -16.029,-48.1 0,-44.272 35.889,-80.162 80.161,-80.162 44.272,0 80.161,35.89 80.161,80.162 0,18.05 -5.965,34.707 -16.033,48.106"
             style="fill:none;stroke:#000000;stroke-width:15;stroke-linecap:round;stroke-linejoin:round;stroke-miterlimit:10;stroke-dasharray:none;stroke-opacity:1"
             id="path1127" /></g><g
           id="g1129"
           transform="translate(256,179.8467)"><path
             d="M 0,0 V 128.258"
             style="fill:none;stroke:#000000;stroke-width:15;stroke-linecap:round;stroke-linejoin:round;stroke-miterlimit:10;stroke-dasharray:none;stroke-opacity:1"
             id="path1131" /></g><g
           id="g1133"
           transform="translate(312.6826,203.3254)"><path
             d="M 0,0 -56.683,56.683"
             style="fill:none;stroke:#000000;stroke-width:15;stroke-linecap:round;stroke-linejoin:round;stroke-miterlimit:10;stroke-dasharray:none;stroke-opacity:1"
             id="path1135" /></g><g
           id="g1137"
           transform="translate(199.3174,203.3254)"><path
             d="M 0,0 56.683,56.683"
             style="fill:none;stroke:#000000;stroke-width:15;stroke-linecap:round;stroke-linejoin:round;stroke-miterlimit:10;stroke-dasharray:none;stroke-opacity:1"
             id="path1139" /></g><g
           id="g1141"
           transform="translate(496.4839,211.9111)"><path
             d="m 0,0 c -13.282,0 -24.048,10.767 -24.048,24.049 0,13.281 10.766,24.048 24.048,24.048"
             style="fill:none;stroke:#000000;stroke-width:15;stroke-linecap:round;stroke-linejoin:round;stroke-miterlimit:10;stroke-dasharray:none;stroke-opacity:1"
             id="path1143" /></g><g
           id="g1145"
           transform="translate(368.2266,253.1169)"><path
             d="M 0,0 104.209,-9.141"
             style="fill:none;stroke:#000000;stroke-width:15;stroke-linecap:round;stroke-linejoin:round;stroke-miterlimit:10;stroke-dasharray:none;stroke-opacity:1"
             id="path1147" /></g><g
           id="g1149"
           transform="translate(15.5161,284.0564)"><path
             d="M 0,0 128.256,-11.25"
             style="fill:none;stroke:#000000;stroke-width:15;stroke-linecap:round;stroke-linejoin:round;stroke-miterlimit:10;stroke-dasharray:none;stroke-opacity:1"
             id="path1151" /></g><g
           id="g1153"
           transform="translate(15.5161,260.0081)"><path
             d="M 0,0 200.403,-112.226"
             style="fill:none;stroke:#000000;stroke-width:15;stroke-linecap:round;stroke-linejoin:round;stroke-miterlimit:10;stroke-dasharray:none;stroke-opacity:1"
             id="path1155" /></g></g></g></g></svg>
