<svg enable-background="new 0 0 512 512" height="512" viewBox="0 0 512 512" width="512" xmlns="http://www.w3.org/2000/svg"><g id="_x31_0_hoodie"><g><path d="m82.54 476.531c.243 2.747 2.546 4.852 5.306 4.852h29.542c2.414 0 4.522-1.623 5.147-3.954l9.834-36.887c3.67-1.901 8.227-6.689 12.328-18.067 1.573 10.343 4.293 17.995 8.324 22.661l9.336 26.909c.749 2.147 2.768 3.583 5.036 3.583h177.216c2.268 0 4.287-1.436 5.036-3.579l9.35-26.931c4.021-4.667 6.738-12.311 8.309-22.639 4.107 11.398 8.669 16.182 12.332 18.075l9.831 36.874c.624 2.331 2.733 3.954 5.147 3.954h29.549c2.761 0 5.064-2.105 5.306-4.852l3.41-38.125c3.911-5.553 14.176-25.428 7.584-75.111-10.093-76.075-39.271-252.001-95.26-276.221 3.631-15.154-4.878-31.989-14.05-36.836-83.435-44.177-150.771.075-150.06-.111-.008.004-.903.554-.909.558-7.382 5.54-17.449 19.041-13.333 36.37-56.022 24.137-85.215 200.142-95.311 276.24-6.596 49.714 3.687 69.585 7.592 75.123zm30.756-5.802h-20.58l-2.592-29.018h30.904zm227.525-5.754h-169.642l-5.877-16.942h181.395zm-162.733-27.631v-29.112c11.313-2.56 36.305-15.028 42.436-74.954h70.952c6.132 59.926 31.123 72.394 42.436 74.954v29.112zm241.203 33.385h-20.587l-7.733-29.018h30.911zm-89.887-407.648c4.717 5.549 10.613 16.619 1.117 31.366-14.518 20.837-39.655 32.23-74.711 33.86h-25.352c16.097-30.499 68.057-27.317 98.946-65.226zm-8.734-6.222c-.005.005-.01.012-.015.017-20.019 23.769-51.79 31.469-64.678 37.286-22.031-10.161-43.338-13.432-64.599-37.317 42.832-20.958 86.267-20.951 129.292.014zm-138.039 6.184c15.817 19.447 39.819 29.615 61.2 37.629-12.379 7.665-18.947 15.7-22.363 21.888-17.604-5.588-30.751-14.767-39.884-27.946-9.552-14.896-3.656-26.015 1.047-31.571zm-100.535 301.654c15.774-118.872 47.149-249.665 88.572-267.742.629 1.18 1.278 2.365 2.051 3.569 10.393 14.999 25.572 25.716 45.047 32.029-.564 3.795 2.165 6.409 5.227 6.409h10.656c-4.542 5.223-7.389 11.959-7.389 19.408v75.602c0 2.941 2.386 5.327 5.327 5.327s5.327-2.386 5.327-5.327v-75.602c0-10.522 8.559-19.085 19.082-19.085 10.774 0 19.082 8.555 19.082 19.085v75.602c0 2.941 2.386 5.327 5.327 5.327s5.327-2.386 5.327-5.327v-75.602c0-7.686-3.105-15.77-9.383-21.666 34.227-5.814 55.868-22.784 64.994-39.744 41.418 18.097 72.788 148.877 88.56 267.738 5.657 42.655-1.985 61.018-4.978 66.329h-40.265c-12.129-7.253-14.897-56.238-16.089-58.53-1.589-33.971-6.573-76.458-12.434-122.487-3.225-25.335-6.014-47.212-6.777-60.367-.173-2.941-2.726-5.206-5.632-5.008-2.934.17-5.174 2.691-5.008 5.625.791 13.522 3.6 35.569 6.846 61.095 7.952 62.44 21.114 165.804 6.251 185.991h-7.249v-33.79c0-1.425-.61-2.788-1.623-3.791-1.013-.999-2.56-1.675-3.857-1.533-.028-.035-31.657.212-37.442-70.712-.222-2.764-2.532-4.894-5.306-4.894h-80.676c-2.775 0-5.084 2.129-5.306 4.894-5.729 70.192-37.026 70.712-37.366 70.712-1.443-.108-2.865.472-3.912 1.477-1.047 1.006-1.644 2.393-1.644 3.846v33.79h-7.249c-20.014-27.182 10.374-200.531 13.097-247.086.166-2.934-2.074-5.455-5.008-5.625-3.163-.215-5.459 2.067-5.632 5.008-1.743 30.055-16.314 120.753-19.214 182.925-1.03 1.983-4.123 51.28-16.086 58.459h-40.256c-3.055-5.411-10.636-23.791-4.992-66.329z"/></g></g></svg>