<svg width="100" height="100" xmlns="http://www.w3.org/2000/svg" viewBox="0 0 40 40">
  <!-- Background -->
  <rect width="100%" height="100%" fill="white"/>
  <!-- Houndstooth Pattern -->
  <path d="M0,0 L10,0 L20,10 L10,10 L20,20 L10,20 L0,10 Z" fill="black"/>
  <path d="M20,0 L30,0 L40,10 L30,10 L40,20 L30,20 L20,10 Z" fill="black"/>
  <path d="M0,20 L10,20 L20,30 L10,30 L20,40 L10,40 L0,30 Z" fill="black"/>
  <path d="M20,20 L30,20 L40,30 L30,30 L40,40 L30,40 L20,30 Z" fill="black"/>
  <!-- Additional squares to complete the pattern -->
  <rect x="10" y="10" width="10" height="10" fill="black"/>
  <rect x="30" y="10" width="10" height="10" fill="white"/>
  <rect x="10" y="30" width="10" height="10" fill="white"/>
  <rect x="30" y="30" width="10" height="10" fill="black"/>
</svg>
