<?xml version="1.0" encoding="iso-8859-1"?>
<!-- Generator: Adobe Illustrator 19.0.0, SVG Export Plug-In . SVG Version: 6.00 Build 0)  -->
<svg version="1.1" id="Layer_1" xmlns="http://www.w3.org/2000/svg" xmlns:xlink="http://www.w3.org/1999/xlink" x="0px" y="0px"
	 viewBox="0 0 512.001 512.001" style="enable-background:new 0 0 512.001 512.001;" xml:space="preserve">
<g>
	<g>
		<path d="M268.215,40.662H61.049c-4.469,0-8.091,3.622-8.091,8.091v211.62c0,4.469,3.622,8.091,8.091,8.091h207.165
			c4.469,0,8.091-3.622,8.091-8.091V48.753C276.306,44.283,272.684,40.662,268.215,40.662z M260.124,252.281H69.14v-10.724h190.984
			V252.281z M260.124,225.375H69.14V56.844h190.984V225.375z"/>
	</g>
</g>
<g>
	<g>
		<path d="M162.439,276.371c-37.654,0-68.286,30.634-68.286,68.287c0,37.652,30.633,68.285,68.286,68.285
			c37.653,0,68.287-30.633,68.287-68.285C230.727,307.005,200.093,276.371,162.439,276.371z M162.439,396.762
			c-28.73,0-52.104-23.373-52.104-52.103c0-28.731,23.374-52.106,52.104-52.106c28.731,0.001,52.106,23.375,52.106,52.106
			C214.545,373.388,191.171,396.762,162.439,396.762z"/>
	</g>
</g>
<g>
	<g>
		<path d="M162.675,322.547c-12.191,0-22.109,9.919-22.109,22.111c0,12.19,9.917,22.108,22.109,22.108s22.11-9.917,22.11-22.108
			C184.785,332.466,174.867,322.547,162.675,322.547z M162.675,350.584c-3.268,0-5.927-2.658-5.927-5.926
			c0-3.269,2.659-5.929,5.927-5.929c3.269,0,5.928,2.66,5.928,5.929C168.603,347.926,165.944,350.584,162.675,350.584z"/>
	</g>
</g>
<g>
	<g>
		<path d="M472.957,92.558h-2.288c-2.361,0-4.631,0.388-6.764,1.086c-2.888-8.674-11.066-14.95-20.697-14.95h-7.437
			c-12.032,0-21.821,9.788-21.821,21.821v26.888c0,12.032,9.788,21.821,21.821,21.821h7.437c1.953,0,3.837-0.283,5.64-0.765v44.272
			c0,9.873,6.596,18.225,15.609,20.908v33.839c0,26.477-21.541,48.017-48.018,48.017h-48.017V136.758
			c0-0.528-0.054-1.043-0.151-1.543c8.675-2.887,14.953-11.065,14.953-20.697V70.245c1.802,0.483,3.686,0.765,5.639,0.765h7.438
			c12.032,0,21.821-9.788,21.821-21.821V22.304c0-12.032-9.788-21.821-21.821-21.821h-7.438c-9.63,0-17.809,6.278-20.695,14.95
			c-2.132-0.697-4.401-1.086-6.764-1.086h-2.288c-12.032,0-21.821,9.788-21.821,21.821v78.351c0,9.682,6.343,17.9,15.088,20.745
			c-0.091,0.484-0.143,0.983-0.143,1.493v226.916v27.387v56.742c0,26.477-21.541,48.017-48.018,48.017
			c-20.207,0-38.086-12.766-44.984-31.226h8.977c4.469,0,8.091-3.622,8.091-8.091v-17.133H278c18.767,0,34.036-15.268,34.036-34.036
			V34.036C312.036,15.269,296.768,0,278,0H51.261C32.494,0,17.224,15.268,17.224,34.036v305.158c0,4.469,3.622,8.091,8.091,8.091
			s8.091-3.622,8.091-8.091V34.036c0-9.845,8.01-17.854,17.855-17.854h226.741c9.845,0,17.854,8.009,17.854,17.854v371.298
			c0,9.845-8.009,17.854-17.854,17.854h-9.787h-39.148H51.261c-9.845,0-17.855-8.009-17.855-17.854v-38.087
			c0-4.469-3.622-8.091-8.091-8.091s-8.091,3.622-8.091,8.091v38.087c0,18.767,15.268,34.036,34.037,34.036h169.714v17.133
			c0,4.469,3.622,8.091,8.091,8.091h13.198c7.492,27.694,32.929,47.407,61.958,47.407c35.399,0,64.2-28.799,64.2-64.199V391.06
			v-27.387v-51.999h48.017c35.399,0,64.2-28.799,64.2-64.199v-34.35c8.247-3.118,14.138-11.073,14.138-20.398v-78.35
			C494.777,102.346,484.989,92.558,472.957,92.558z M448.848,114.379v13.023c0,3.109-2.53,5.638-5.64,5.638h-7.437
			c-3.109,0-5.639-2.53-5.639-5.639v-26.887c0-3.109,2.53-5.639,5.639-5.639h7.437c3.11,0,5.64,2.53,5.64,5.639V114.379z
			 M383.224,36.167V22.304c0-3.109,2.53-5.639,5.639-5.639h7.438c3.109,0,5.639,2.53,5.639,5.639v26.888
			c0,3.109-2.53,5.639-5.639,5.639h-7.438c-3.109,0-5.639-2.53-5.639-5.639V36.167z M237.157,448.411v-9.042h22.966v9.042H237.157z
			 M367.044,49.191v65.328c0,3.109-2.53,5.639-5.639,5.639h-2.288c-3.109,0-5.639-2.53-5.639-5.639V36.167
			c0-3.109,2.53-5.639,5.639-5.639h2.288c3.109,0,5.639,2.53,5.639,5.639V49.191z M478.595,192.729c0,3.11-2.53,5.64-5.639,5.64
			h-2.288c-3.109,0-5.639-2.53-5.639-5.64v-65.327v-13.023c0.001-3.109,2.531-5.639,5.639-5.639h2.288
			c3.109,0,5.639,2.53,5.639,5.639V192.729z"/>
	</g>
</g>
<g>
</g>
<g>
</g>
<g>
</g>
<g>
</g>
<g>
</g>
<g>
</g>
<g>
</g>
<g>
</g>
<g>
</g>
<g>
</g>
<g>
</g>
<g>
</g>
<g>
</g>
<g>
</g>
<g>
</g>
</svg>
