<svg viewBox="0 0 512 512" xmlns="http://www.w3.org/2000/svg"><g id="Cardigan_sweater"><path d="m449.39 153.8354a75.5042 75.5042 0 0 0 -30.9687-60.83c-15.0176-10.9351-53.6738-31.3657-75.3789-42.57a66.749 66.749 0 0 0 -30.4932-7.399h-.1894a6.0006 6.0006 0 0 0 -3.2862.98c-24.1787 15.83-48.8281 20.751-73.2695 14.6275a82.0012 82.0012 0 0 1 -29.9873-14.1866 5.977 5.977 0 0 0 -3.8838-1.411l.0093-.01h-.0024-2.61a66.7477 66.7477 0 0 0 -30.4922 7.3985c-21.7051 11.2046-60.3584 31.6343-75.3808 42.5718a75.5023 75.5023 0 0 0 -30.9668 60.8295v277.2239c0 4.2439 1.9213 8.1689 5.3535 11.5849v18.12c0 3.9848 1.8867 11.4941 14.5215 17.0122 7.7861 3.4008 18.0058 5.2734 28.7783 5.2734 10.7676 0 20.9853-1.8726 28.77-5.2734 12.6338-5.5186 14.5205-13.0274 14.5205-17.0122v-18.1184a18.2551 18.2551 0 0 0 4.64-7.2078c23.4964 9.3017 59.2662 14.7449 98.1709 14.7449 37.3482 0 72.3455-5.1237 95.8746-13.8694a18.9505 18.9505 0 0 0 4.4926 6.4934v17.9566c0 3.9848 1.8867 11.4941 14.5215 17.0127 7.7861 3.4 18.0068 5.2729 28.7783 5.2729 10.7686 0 20.9864-1.8726 28.7715-5.2734 12.6338-5.5186 14.5205-13.0274 14.5205-17.0122v-18.29c3.3262-3.3763 5.1865-7.2411 5.1865-11.4151zm-12 0v277.2246c0 4.2866-12.9365 12.63-36.65 12.63s-36.65-8.3433-36.65-12.63v-3.2585l.0009-.0135v-162.4999a6 6 0 0 0 -12 0v125.1241c-17.3957 7.8405-40.7561 13.0105-67.7006 15.083v-191.5764a34.82 34.82 0 0 1 3.4362-15.0362l63.0883-130.8185c21.33 11.2089 48.7375 26.1193 60.4416 34.641a63.4657 63.4657 0 0 1 26.0336 51.1303zm-121.2473-98.46.1035-.2133a54.6888 54.6888 0 0 1 21.291 5.9346c.8806.4546 1.7988.93 2.7332 1.4138l-63.2536 131.1595a46.6134 46.6134 0 0 0 -4.6276 20.2489v192.2856q-7.5993.3156-15.5005.3194-7.87 0-15.4995-.33v-186.6484l21.1323-53.3961-.0762-.03zm-83.8386 14.76c16.0352 4.123 39.5781 5.6645 66.6367-6.7867l-42.017 86.6533-41.0049-85.66a99.1076 99.1076 0 0 0 16.3848 5.7933zm-34.1382-15.087 52.2341 109.118-12.5433 31.6946-64.3135-134.351c.2649-.1369.5386-.2786.7986-.4128a54.7058 54.7058 0 0 1 23.8237-6.0489zm-123.6766 98.787a63.4646 63.4646 0 0 1 26.0312-51.1293c12.0637-8.7836 40.7949-24.3464 62.3721-35.6543l66.4966 138.9125v199.5011c-27.8658-2.19-52.2478-7.7189-69.6-15.93v-124.2473a6 6 0 0 0 -12 0v165.7719c0 4.2866-12.9356 12.63-36.6495 12.63s-36.65-8.3433-36.65-12.63zm67.9443 306.9288c0 3.5317-12.1856 10.2856-31.291 10.2856-19.11 0-31.3-6.7539-31.3-10.2856v-10.5054c.1916.0781.3911.1514.5854.2279l.0025-.0448c8.2607 3.31 18.8581 5.2476 30.7089 5.2476 12.0921 0 22.886-2.0138 31.2173-5.448l-.0085.0514c.0281-.0112.0574-.0218.0852-.0331zm209.6564-36.917c-22.0175 9.01-57.0263 14.3364-94.8457 14.3364-39.1191 0-75.9023-5.8745-97.455-15.4468v-20.0552c24.44 10.2574 58.4238 15.8423 97.1 15.8423 37.5566 0 70.8838-5.3139 95.2011-15.07zm80.1133 36.917c0 3.5317-12.1865 10.2856-31.292 10.2856-19.11 0-31.3-6.7539-31.3-10.2856v-10.4414c.27.109.55.2121.8252.3181-.0056-.0153-.009-.0312-.0146-.0465 8.2016 3.2163 18.6509 5.0951 30.3174 5.0951 11.5 0 21.819-1.8246 29.9692-4.9564-.0078.0192-.0132.04-.021.0587.5127-.1937 1.0193-.3914 1.5156-.5955z"/><circle cx="256.864" cy="234.373" r="7.244"/><circle cx="256.864" cy="282.609" r="7.244"/><circle cx="256.864" cy="330.845" r="7.244"/><circle cx="256.864" cy="379.081" r="7.244"/></g></svg>