<?xml version="1.0"?>
<svg xmlns="http://www.w3.org/2000/svg" id="Outline" viewBox="0 0 512 512" width="512" height="512"><path d="M487.761,326.06l-7.486-29.944a30.8,30.8,0,0,0-23.24-37.416l-45.976-10.216L244.211,145.2A8,8,0,0,0,232,152v38.75a34.969,34.969,0,0,0,20.347,31.713l20.594,9.437-5.8,6.529L34.062,176.27a8,8,0,0,0-9.652,5.2C24.067,182.5,16,207.08,16,240a206.162,206.162,0,0,0,8,57.231V352a8,8,0,0,0,8,8H144a8,8,0,0,0,8-8V337.7c29.915,5.7,121.777,22.3,176,22.3,64.332,0,150.47-23.291,154.1-24.282A8,8,0,0,0,487.761,326.06ZM315.476,208.132l24.9,15.412L285.7,271.382l-22.456-4.491Zm-56.464-.215A18.927,18.927,0,0,1,248,190.75V166.361l53.666,33.222-17.609,19.811ZM37.592,193.771l217.646,58.045-13.217,14.869a8,8,0,0,0,4.41,13.16l40,8a8,8,0,0,0,6.837-1.824L354.6,232.353,403.789,262.8a8.019,8.019,0,0,0,2.476,1.008l47.3,10.509a14.807,14.807,0,0,1,11.594,15.027C443.965,294.088,361.688,312,328,312c-38.884,0-181.251-23.652-182.685-23.891A8.046,8.046,0,0,0,144,288H38.04a193.815,193.815,0,0,1-.448-94.229ZM328,344c-62.468,0-181.238-23.606-182.432-23.845A8,8,0,0,0,136,328v16H40V304H143.339c11.89,1.975,145.428,24,184.661,24,34.5,0,113.114-16.893,138.136-22.472l4.179,16.717C447.747,327.932,379.425,344,328,344Z"/></svg>
