<svg fill="none" height="24" viewBox="0 0 24 24" width="24" xmlns="http://www.w3.org/2000/svg"><path clip-rule="evenodd" d="m6 5c0 .55228-.44772 1-1 1s-1-.44772-1-1 .44772-1 1-1 1 .44772 1 1zm0 7c0 .5523-.44772 1-1 1s-1-.4477-1-1 .44772-1 1-1 1 .4477 1 1zm-1 8c.55228 0 1-.4477 1-1s-.44772-1-1-1-1 .4477-1 1 .44772 1 1 1zm8-8c0 .5523-.4477 1-1 1s-1-.4477-1-1 .4477-1 1-1 1 .4477 1 1zm-1-6c.5523 0 1-.44772 1-1s-.4477-1-1-1-1 .44772-1 1 .4477 1 1 1zm1 13c0 .5523-.4477 1-1 1s-1-.4477-1-1 .4477-1 1-1 1 .4477 1 1zm6-6c.5523 0 1-.4477 1-1s-.4477-1-1-1-1 .4477-1 1 .4477 1 1 1zm1-8c0 .55228-.4477 1-1 1s-1-.44772-1-1 .4477-1 1-1 1 .44772 1 1zm-1 15c.5523 0 1-.4477 1-1s-.4477-1-1-1-1 .4477-1 1 .4477 1 1 1z" fill="rgb(0,0,0)" fill-rule="evenodd"/></svg>