<svg id="Capa_1" enable-background="new 0 0 512 512" height="512" viewBox="0 0 512 512" width="512" xmlns="http://www.w3.org/2000/svg"><g><path d="m353.5 100.139v-70.139c0-16.542-13.458-30-30-30s-30 13.458-30 30v45h-82.5c-37.22 0-67.5 30.28-67.5 67.5v242c0 4.143 3.358 7.5 7.5 7.5s7.5-3.357 7.5-7.5v-242c0-28.948 23.551-52.5 52.5-52.5h90c28.949 0 52.5 23.552 52.5 52.5v317c0 20.678-16.822 37.5-37.5 37.5h-120c-9.967 0-19.37-3.914-26.478-11.022-10.186-10.185-11.011-22.857-11.022-26.478v-45c0-4.143-3.358-7.5-7.5-7.5s-7.5 3.357-7.5 7.5v45.021c.019 6.528 1.559 23.207 15.416 37.063 9.94 9.941 23.11 15.416 37.084 15.416h120c28.949 0 52.5-23.552 52.5-52.5v-317c0-16.033-5.629-30.769-15-42.361zm-45-24.712v-45.427c0-8.271 6.729-15 15-15s15 6.729 15 15v56.406c-8.77-5.882-18.99-9.756-30-10.979z"/><path d="m317 317c-12.407 0-22.5 10.094-22.5 22.5s10.093 22.5 22.5 22.5 22.5-10.094 22.5-22.5-10.093-22.5-22.5-22.5zm0 30c-4.136 0-7.5-3.364-7.5-7.5s3.364-7.5 7.5-7.5 7.5 3.364 7.5 7.5-3.364 7.5-7.5 7.5z"/><path d="m257 317c-12.407 0-22.5 10.094-22.5 22.5s10.093 22.5 22.5 22.5 22.5-10.094 22.5-22.5-10.093-22.5-22.5-22.5zm0 30c-4.136 0-7.5-3.364-7.5-7.5s3.364-7.5 7.5-7.5 7.5 3.364 7.5 7.5-3.364 7.5-7.5 7.5z"/><path d="m197 317c-12.407 0-22.5 10.094-22.5 22.5s10.093 22.5 22.5 22.5 22.5-10.094 22.5-22.5-10.093-22.5-22.5-22.5zm0 30c-4.136 0-7.5-3.364-7.5-7.5s3.364-7.5 7.5-7.5 7.5 3.364 7.5 7.5-3.364 7.5-7.5 7.5z"/><path d="m257 377c-12.407 0-22.5 10.094-22.5 22.5s10.093 22.5 22.5 22.5 22.5-10.094 22.5-22.5-10.093-22.5-22.5-22.5zm0 30c-4.136 0-7.5-3.364-7.5-7.5s3.364-7.5 7.5-7.5 7.5 3.364 7.5 7.5-3.364 7.5-7.5 7.5z"/><path d="m197 377c-12.407 0-22.5 10.094-22.5 22.5s10.093 22.5 22.5 22.5 22.5-10.094 22.5-22.5-10.093-22.5-22.5-22.5zm0 30c-4.136 0-7.5-3.364-7.5-7.5s3.364-7.5 7.5-7.5 7.5 3.364 7.5 7.5-3.364 7.5-7.5 7.5z"/><path d="m317 377c-12.407 0-22.5 10.094-22.5 22.5s10.093 22.5 22.5 22.5 22.5-10.094 22.5-22.5-10.093-22.5-22.5-22.5zm0 30c-4.136 0-7.5-3.364-7.5-7.5s3.364-7.5 7.5-7.5 7.5 3.364 7.5 7.5-3.364 7.5-7.5 7.5z"/><path d="m257 437c-12.407 0-22.5 10.094-22.5 22.5s10.093 22.5 22.5 22.5 22.5-10.094 22.5-22.5-10.093-22.5-22.5-22.5zm0 30c-4.136 0-7.5-3.364-7.5-7.5s3.364-7.5 7.5-7.5 7.5 3.364 7.5 7.5-3.364 7.5-7.5 7.5z"/><path d="m197 437c-12.407 0-22.5 10.094-22.5 22.5s10.093 22.5 22.5 22.5 22.5-10.094 22.5-22.5-10.093-22.5-22.5-22.5zm0 30c-4.136 0-7.5-3.364-7.5-7.5s3.364-7.5 7.5-7.5 7.5 3.364 7.5 7.5-3.364 7.5-7.5 7.5z"/><path d="m317 437c-12.407 0-22.5 10.094-22.5 22.5s10.093 22.5 22.5 22.5 22.5-10.094 22.5-22.5-10.093-22.5-22.5-22.5zm0 30c-4.136 0-7.5-3.364-7.5-7.5s3.364-7.5 7.5-7.5 7.5 3.364 7.5 7.5-3.364 7.5-7.5 7.5z"/><path d="m173.5 172.498-.019 91.933c-.003 20.671 16.81 37.496 37.48 37.506 0 0 90.028.035 90.028.035 10.023 0 19.438-3.898 26.519-10.976 7.084-7.081 10.986-16.497 10.986-26.516l.005-91.98c0-20.678-16.822-37.5-37.5-37.5h-90c-20.677 0-37.499 16.822-37.499 37.498zm150 .002-.005 91.98c0 6.01-2.341 11.659-6.59 15.906s-9.896 6.585-15.905 6.585c-.005 0-90.032-.035-90.032-.035-12.401-.006-22.488-10.101-22.486-22.503l.018-91.933c0-12.406 10.093-22.5 22.5-22.5h90c12.407 0 22.5 10.094 22.5 22.5z"/><path d="m203.5 172.503v76.934c0 4.141 3.356 7.498 7.497 7.5l89.997.035c1.991 0 3.898-.79 5.305-2.195 1.407-1.407 2.198-3.314 2.198-5.305l.003-76.972c0-1.989-.79-3.896-2.197-5.304-1.406-1.406-3.314-2.196-5.303-2.196l-90 .003c-4.142 0-7.5 3.358-7.5 7.5zm15 7.5 75-.003-.002 61.939h-74.998z"/><circle cx="256" cy="112.5" r="6"/><circle cx="226" cy="112.5" r="6"/><circle cx="286" cy="112.5" r="6"/></g></svg>