<svg id="Layer_1" enable-background="new 0 0 512 512" height="512" viewBox="0 0 512 512" width="512" xmlns="http://www.w3.org/2000/svg"><g><path d="m74.651 434.501c24.288 0 44.048-19.76 44.048-44.048s-19.76-44.048-44.048-44.048-44.047 19.76-44.047 44.048c0 8.826 2.603 17.344 7.527 24.633 2.318 3.432 6.981 4.336 10.413 2.016 3.432-2.319 4.335-6.981 2.016-10.413-3.242-4.799-4.956-10.413-4.956-16.235 0-16.017 13.031-29.048 29.048-29.048s29.048 13.031 29.048 29.048-13.031 29.048-29.048 29.048c-4.142 0-7.5 3.358-7.5 7.5s3.357 7.499 7.499 7.499z"/><path d="m74.651 243.309c-24.288 0-44.047 19.76-44.047 44.048s19.76 44.048 44.047 44.048c24.288 0 44.048-19.76 44.048-44.048s-19.76-44.048-44.048-44.048zm0 73.096c-16.017 0-29.048-13.031-29.048-29.048s13.031-29.048 29.048-29.048 29.048 13.031 29.048 29.048-13.031 29.048-29.048 29.048z"/><path d="m126.031 213.368h-102.76c-12.825 0-23.259 10.434-23.259 23.259v267.873c0 4.142 3.358 7.5 7.5 7.5h134.278c4.142 0 7.5-3.358 7.5-7.5v-214.786c0-4.142-3.358-7.5-7.5-7.5s-7.5 3.358-7.5 7.5v159.286h-119.278v-212.373c0-4.554 3.705-8.259 8.259-8.259h102.76c4.554 0 8.259 3.705 8.259 8.259v18.423c0 4.142 3.358 7.5 7.5 7.5s7.5-3.358 7.5-7.5v-18.423c0-12.825-10.434-23.259-23.259-23.259zm8.259 250.632v33h-119.278v-33z"/><path d="m437.341 346.405c-24.288 0-44.048 19.76-44.048 44.048s19.76 44.048 44.048 44.048 44.047-19.76 44.047-44.048c.001-24.288-19.759-44.048-44.047-44.048zm0 73.096c-16.017 0-29.048-13.031-29.048-29.048s13.031-29.048 29.048-29.048 29.048 13.031 29.048 29.048-13.031 29.048-29.048 29.048z"/><path d="m437.341 243.309c-24.288 0-44.048 19.76-44.048 44.048s19.76 44.048 44.048 44.048 44.047-19.76 44.047-44.048c.001-24.288-19.759-44.048-44.047-44.048zm0 73.096c-16.017 0-29.048-13.031-29.048-29.048s13.031-29.048 29.048-29.048 29.048 13.031 29.048 29.048-13.031 29.048-29.048 29.048z"/><path d="m488.721 213.368h-102.76c-12.825 0-23.259 10.434-23.259 23.259v267.873c0 4.142 3.358 7.5 7.5 7.5h134.278c4.142 0 7.5-3.358 7.5-7.5v-79.354c0-4.142-3.358-7.5-7.5-7.5s-7.5 3.358-7.5 7.5v23.854h-119.278v-212.373c0-4.554 3.705-8.259 8.259-8.259h102.76c4.554 0 8.259 3.705 8.259 8.259v153.826c0 4.142 3.358 7.5 7.5 7.5s7.5-3.358 7.5-7.5v-153.826c0-12.825-10.434-23.259-23.259-23.259zm8.259 250.632v33h-119.278v-33z"/><path d="m339.22 255.05c0-2.375-1.125-4.609-3.031-6.023s-4.371-1.843-6.643-1.154l-98.999 30c-3.163.958-5.325 3.874-5.325 7.178v39.849c-.002.102-.002.203 0 .305v93.325c-5.635-3.918-12.475-6.217-19.843-6.217-19.213 0-34.843 15.63-34.843 34.843s15.63 34.843 34.843 34.843 34.843-15.63 34.843-34.843v-116.542l37.494-11.362c3.964-1.201 6.204-5.389 5.002-9.353-1.201-3.964-5.39-6.204-9.353-5.002l-33.143 10.044v-24.326l83.999-25.455v24.326l-17.984 5.45c-3.964 1.201-6.204 5.389-5.002 9.353.981 3.239 3.957 5.327 7.175 5.327.72 0 1.453-.104 2.178-.324l13.634-4.131v83.371c-5.635-3.918-12.475-6.217-19.843-6.217-19.213 0-34.843 15.63-34.843 34.843s15.63 34.843 34.843 34.843 34.843-15.63 34.843-34.843v-121.959c.002-.102.002-.203 0-.305v-39.844zm-133.842 211.95c-10.941 0-19.843-8.902-19.843-19.843s8.902-19.843 19.843-19.843 19.843 8.902 19.843 19.843-8.902 19.843-19.843 19.843zm98.999-30c-10.941 0-19.843-8.902-19.843-19.843s8.902-19.843 19.843-19.843 19.843 8.902 19.843 19.843-8.902 19.843-19.843 19.843z"/><ellipse cx="437.348" cy="287.355" rx="7.496" ry="7.496" transform="matrix(.997 -.084 .084 .997 -22.562 37.697)"/><path d="m437.34 383.104c-4.14 0-7.496 3.356-7.496 7.496s3.356 7.496 7.496 7.496 7.496-3.356 7.496-7.496-3.356-7.496-7.496-7.496z"/><ellipse cx="74.651" cy="287.355" rx="7.496" ry="7.496" transform="matrix(.125 -.992 .992 .125 -219.79 325.432)"/><path d="m82.139 390.601c0-4.14-3.356-7.496-7.496-7.496s-7.496 3.356-7.496 7.496 3.356 7.496 7.496 7.496c4.14-.001 7.496-3.357 7.496-7.496z"/><path d="m324.729 476.208c-4.14 0-7.496 3.356-7.496 7.496s3.356 7.496 7.496 7.496 7.496-3.356 7.496-7.496-3.356-7.496-7.496-7.496z"/><path d="m446.241 151.15c-3.736 1.788-5.315 6.267-3.527 10.003l12.303 25.705c1.289 2.692 3.973 4.264 6.771 4.264 1.085 0 2.188-.237 3.232-.737 3.736-1.788 5.315-6.267 3.527-10.003l-12.303-25.705c-1.789-3.735-6.267-5.316-10.003-3.527z"/><path d="m277.924 193.418c2.591 0 5.112-1.345 6.501-3.75 2.072-3.586.844-8.174-2.743-10.246l-24.667-14.25c-3.586-2.072-8.174-.845-10.246 2.743-2.072 3.586-.844 8.174 2.743 10.246l24.667 14.25c1.182.682 2.471 1.007 3.745 1.007z"/><path d="m25.993 187.337c2.478 0 4.904-1.228 6.333-3.473l15.305-24.036c2.225-3.494 1.196-8.13-2.298-10.354-3.495-2.226-8.13-1.196-10.354 2.298l-15.305 24.036c-2.225 3.494-1.196 8.13 2.298 10.354 1.248.795 2.642 1.175 4.021 1.175z"/><path d="m190.661 238.693c2.248 0 4.472-1.007 5.949-2.926l12.97-16.854c2.526-3.283 1.913-7.992-1.37-10.518s-7.992-1.913-10.518 1.37l-12.97 16.854c-2.526 3.283-1.913 7.992 1.37 10.518 1.364 1.048 2.973 1.556 4.569 1.556z"/><path d="m364.418 143.868 29.555-98.968c8.425-.628 16.256-1.317 23.534-2.06v78.058c0 3.204 2.035 6.053 5.064 7.094.799.274 1.621.407 2.434.407 2.27 0 4.471-1.033 5.92-2.894l22.871-29.381 18.413 12.915c2.291 1.607 5.285 1.805 7.767.514s4.04-3.856 4.04-6.654v-72.089c21.611-7.09 27.02-15.213 27.925-22.368.52-4.109-2.39-7.862-6.499-8.382-4.111-.517-7.863 2.39-8.382 6.5-.01.08-2.068 8.235-39.659 15.511-41.058 7.945-108.818 11.974-201.401 11.974s-160.343-4.029-201.4-11.975c-37.591-7.276-39.649-15.431-39.659-15.511-.52-4.11-4.276-7.016-8.382-6.5-4.109.521-7.019 4.273-6.499 8.383.905 7.155 6.314 15.277 27.925 22.368v72.09c0 2.798 1.557 5.363 4.04 6.654 2.48 1.291 5.476 1.093 7.767-.514l18.413-12.915 22.871 29.381c1.449 1.861 3.65 2.894 5.92 2.894.813 0 1.635-.132 2.434-.407 3.03-1.041 5.064-3.89 5.064-7.094v-78.058c7.278.743 15.109 1.432 23.534 2.06l29.555 98.968c.946 3.167 3.853 5.341 7.157 5.354h.03c3.292 0 6.202-2.148 7.169-5.298l29.371-95.616c7.362.181 15.005.33 22.938.446v74.97c0 2.687 1.437 5.167 3.767 6.505 2.33 1.337 5.198 1.327 7.517-.029l30.468-17.803 30.469 17.802c1.169.683 2.476 1.024 3.784 1.024 1.288 0 2.577-.332 3.733-.995 2.33-1.337 3.767-3.818 3.767-6.505v-74.97c7.934-.116 15.577-.265 22.938-.446l29.371 95.616c.968 3.15 3.876 5.298 7.169 5.298h.03c3.305-.013 6.211-2.187 7.157-5.354zm68.089-102.729c14.678-1.849 26.689-3.948 36.508-6.216v53.555l-12.448-8.731c-3.272-2.296-7.771-1.621-10.225 1.533l-13.835 17.774zm-353.014 57.916-13.835-17.775c-2.456-3.153-6.952-3.83-10.225-1.533l-12.448 8.731v-53.555c9.819 2.268 21.83 4.367 36.508 6.216zm75.376 16.796-20.867-69.879c12.692.763 26.573 1.401 41.751 1.893zm127.884-5.194-22.97-13.42c-2.337-1.366-5.229-1.366-7.566 0l-22.97 13.42v-61.727c8.594.076 17.508.116 26.753.116s18.159-.039 26.753-.116zm74.378 5.194-20.884-67.985c15.178-.493 29.059-1.13 41.751-1.893z"/><path d="m119.74 180.724c0-4.14-3.356-7.496-7.496-7.496s-7.496 3.356-7.496 7.496 3.356 7.496 7.496 7.496c4.14.001 7.496-3.355 7.496-7.496z"/><path d="m248.508 234.894c0 4.14 3.356 7.496 7.496 7.496s7.496-3.356 7.496-7.496-3.356-7.496-7.496-7.496c-4.14.001-7.496 3.356-7.496 7.496z"/><path d="m372.79 186.785c0-4.14-3.356-7.496-7.496-7.496s-7.496 3.356-7.496 7.496 3.356 7.496 7.496 7.496 7.496-3.356 7.496-7.496z"/></g></svg>