<svg id="Layer_1" enable-background="new 0 0 511.836 511.836" height="512" viewBox="0 0 511.836 511.836" width="512" xmlns="http://www.w3.org/2000/svg"><g><g><path d="m61.539 249.234c-.657 75.744 66.364 137.652 142.064 135.957 2.281 0 4.578-.049 6.879-.146 39.952-1.691 79.458-18.404 108.392-45.851 10.309-9.779 20.221-20.682 30.304-33.33 34.708-42.075 63.018-105.32 80.571-165.865 3.895-12.199-9.326-23.33-20.668-17.365-22.338 11.487-68.115 28.507-123.727 13.455-12.651-3.437-25.665-8.731-38.304-13.13-23.057-8.042-51.173-11.166-71.63-7.958-16.46 2.595-32.176 8.195-46.709 16.642-3.594 2.089-4.815 6.697-2.726 10.291 2.09 3.595 6.697 4.814 10.291 2.726 12.917-7.508 26.876-12.483 41.482-14.786 20.682-3.245 47.215 1.33 64.332 7.301 3.83 1.336 7.759 2.775 11.56 4.166 9.087 3.327 18.484 6.767 27.768 9.281 59.779 16.183 109.064-1.673 133.661-14.145-.63 2.041-1.158 3.742-1.472 4.743-3.033 9.644-5.638 17.649-8.201 25.194-17.818 52.466-40.062 95.01-68.002 130.066-9.644 12.098-19.095 22.497-28.894 31.792-26.332 24.982-62.295 40.192-98.666 41.732-37.903 1.608-72.768-11.471-98.118-36.822-46.065-44.23-46.613-123.594-1.179-168.447 2.899-2.98 2.834-7.746-.146-10.645-2.981-2.9-7.747-2.834-10.646.146-24.874 25.564-38.446 59.303-38.216 94.998z"/><path d="m140.446 287.322c11.583 17.187 29.81 28.444 51.323 31.697 4.148.627 8.347.936 12.554.936 16.333 0 32.744-4.656 46.456-13.381 2.057-1.309 4.138-2.712 6.185-4.168 3.388-2.411 4.18-7.111 1.768-10.498-2.41-3.387-7.109-4.18-10.498-1.768-1.836 1.306-3.699 2.562-5.538 3.732-14.219 9.048-31.96 12.787-48.676 10.261-17.296-2.615-31.888-11.573-41.087-25.224-25.083-36.6 3.181-87.434 47.427-85.52 8.293.305 19.719 3.925 28.435 9.008 27.169 18.264 52.969 23.124 77.632 18.244-1.155 2.084-2.247 4.026-3.297 5.86-9.296 16.245-18.96 29.719-29.545 41.189-2.82 3.055-2.629 7.818.427 10.638 3.053 2.82 7.816 2.629 10.637-.427 11.363-12.313 21.683-26.68 31.549-43.922 1.962-3.43 4.064-7.212 6.422-11.561.376-.694 1.147-2.131 2.003-3.73 2.012-3.761 1.562-8.321-1.148-11.615-2.706-3.29-7.088-4.609-11.161-3.362-22.294 6.792-47.324 5.159-75.936-14.321-10.83-6.317-24.751-10.653-35.471-11.048-14.653-.529-29.418 3.711-41.597 11.933-31.937 21.559-40.399 65.094-18.864 97.047z"/><path d="m202.412 210.912c-19.865 0-36.026 16.161-36.026 36.026 1.811 47.728 70.248 47.714 72.052 0-.001-19.865-16.161-36.026-36.026-36.026zm0 56.996c-11.562 0-20.97-9.407-20.97-20.97 1.054-27.782 40.889-27.774 41.939 0 0 11.563-9.407 20.97-20.969 20.97z"/><path d="m179.694 168.391c-.177-6.966-10.388-6.965-10.563 0 .176 6.966 10.387 6.964 10.563 0z"/><path d="m202.411 170.422c6.966-.177 6.965-10.388 0-10.564-6.966.177-6.964 10.388 0 10.564z"/><path d="m235.925 170.422c-.177-6.966-10.388-6.965-10.564 0 .177 6.966 10.388 6.964 10.564 0z"/><path d="m257.16 185.826c6.966-.177 6.965-10.388 0-10.563-6.967.176-6.965 10.387 0 10.563z"/><path d="m288.957 191.107c-.177-6.966-10.388-6.965-10.564 0 .178 6.967 10.389 6.965 10.564 0z"/><path d="m318.345 191.107c-.177-6.966-10.388-6.965-10.564 0 .177 6.967 10.388 6.965 10.564 0z"/><path d="m342.53 185.826c-6.966.177-6.965 10.388 0 10.564 6.966-.177 6.964-10.389 0-10.564z"/><path d="m318.345 262.231c-6.966.177-6.965 10.388 0 10.564 6.966-.177 6.964-10.388 0-10.564z"/><path d="m339.217 217.663c.177 6.966 10.388 6.965 10.563 0-.176-6.966-10.387-6.964-10.563 0z"/><path d="m328.654 242.256c.177 6.966 10.388 6.965 10.564 0-.177-6.966-10.389-6.965-10.564 0z"/><path d="m151.514 180.544c-.177-6.966-10.388-6.965-10.564 0 .177 6.966 10.389 6.964 10.564 0z"/><path d="m125.464 205.11c6.966-.177 6.965-10.388 0-10.564-6.966.177-6.965 10.389 0 10.564z"/><path d="m107.112 224.678c.177 6.966 10.388 6.965 10.563 0-.176-6.966-10.387-6.965-10.563 0z"/><path d="m115.251 252.22c-.177-6.966-10.388-6.965-10.563 0 .177 6.966 10.388 6.965 10.563 0z"/><path d="m109.97 278.077c.177 6.966 10.388 6.965 10.563 0-.177-6.966-10.388-6.965-10.563 0z"/><path d="m122.957 301.794c.177 6.966 10.388 6.965 10.564 0-.177-6.967-10.388-6.965-10.564 0z"/><path d="m143.774 321.122c.177 6.966 10.388 6.965 10.564 0-.177-6.966-10.388-6.965-10.564 0z"/><path d="m165.991 336.739c.177 6.966 10.388 6.965 10.564 0-.177-6.966-10.388-6.965-10.564 0z"/><path d="m197.13 342.021c.177 6.966 10.388 6.965 10.564 0-.177-6.966-10.389-6.965-10.564 0z"/><path d="m228.268 338.855c.177 6.966 10.388 6.965 10.564 0-.177-6.966-10.388-6.965-10.564 0z"/><path d="m255.775 326.404c.177 6.966 10.388 6.965 10.563 0-.177-6.966-10.388-6.965-10.563 0z"/><path d="m280.699 305.277c-6.966.177-6.965 10.388 0 10.564 6.966-.177 6.965-10.389 0-10.564z"/><path d="m295.64 289.497c.177 6.966 10.388 6.965 10.563 0-.176-6.966-10.387-6.964-10.563 0z"/><path d="m288.957 113.484c13.844 0 25.106-11.263 25.106-25.106-1.262-33.261-48.955-33.252-50.212 0 0 13.843 11.263 25.106 25.106 25.106zm0-35.157c5.542 0 10.05 4.508 10.05 10.05-.505 13.315-19.597 13.311-20.1 0 0-5.541 4.508-10.05 10.05-10.05z"/><path d="m360.107 118.915c13.844 0 25.106-11.263 25.106-25.106-1.262-33.26-48.954-33.252-50.211 0 0 13.844 11.263 25.106 25.105 25.106zm0-35.156c5.542 0 10.05 4.508 10.05 10.05-.505 13.314-19.596 13.311-20.099 0 0-5.542 4.508-10.05 10.049-10.05z"/><path d="m427.976 101.337c13.843 0 25.105-11.263 25.105-25.106-1.262-33.261-48.954-33.251-50.211 0 0 13.844 11.263 25.106 25.106 25.106zm0-35.156c5.541 0 10.049 4.508 10.049 10.05-.505 13.315-19.596 13.31-20.099 0 0-5.541 4.508-10.05 10.05-10.05z"/><path d="m486.73 80.849c-13.843 0-25.105 11.263-25.105 25.106 1.262 33.261 48.954 33.251 50.211 0 0-13.843-11.263-25.106-25.106-25.106zm0 35.156c-5.541 0-10.049-4.508-10.049-10.05.505-13.315 19.596-13.31 20.099 0 0 5.542-4.508 10.05-10.05 10.05z"/><path d="m473.168 148.566c-13.844 0-25.106 11.263-25.106 25.106 1.262 33.26 48.954 33.252 50.211 0 0-13.843-11.263-25.106-25.105-25.106zm0 35.156c-5.542 0-10.05-4.509-10.05-10.05.505-13.314 19.596-13.311 20.099 0 0 5.542-4.508 10.05-10.049 10.05z"/><path d="m218.276 101.337c13.844 0 25.106-11.263 25.106-25.106-1.262-33.26-48.955-33.251-50.212 0 0 13.844 11.263 25.106 25.106 25.106zm0-35.156c5.542 0 10.05 4.508 10.05 10.05-.505 13.314-19.597 13.311-20.1 0 0-5.541 4.508-10.05 10.05-10.05z"/><path d="m146.233 101.337c13.844 0 25.106-11.263 25.106-25.106-1.262-33.26-48.955-33.251-50.212 0 0 13.844 11.262 25.106 25.106 25.106zm0-35.156c5.542 0 10.05 4.508 10.05 10.05-.505 13.314-19.597 13.311-20.1 0 0-5.541 4.508-10.05 10.05-10.05z"/><path d="m79.538 136.493c13.844 0 25.106-11.262 25.106-25.106-1.262-33.261-48.955-33.252-50.212 0 0 13.844 11.263 25.106 25.106 25.106zm0-35.156c5.542 0 10.05 4.508 10.05 10.05-.505 13.314-19.597 13.31-20.1 0 0-5.541 4.508-10.05 10.05-10.05z"/><path d="m33.908 196.455c13.844 0 25.106-11.263 25.106-25.106-1.262-33.261-48.955-33.252-50.212 0 0 13.843 11.263 25.106 25.106 25.106zm0-35.156c5.542 0 10.05 4.509 10.05 10.05-.505 13.315-19.597 13.311-20.1 0 0-5.542 4.508-10.05 10.05-10.05z"/><path d="m50.049 246.938c0-13.844-11.263-25.106-25.106-25.106-33.261 1.262-33.252 48.955 0 50.212 13.843 0 25.106-11.262 25.106-25.106zm-35.157 0c0-5.542 4.508-10.05 10.05-10.05 13.314.505 13.311 19.597 0 20.1-5.542 0-10.05-4.509-10.05-10.05z"/><path d="m59.014 315.84c0-13.844-11.263-25.106-25.106-25.106-33.261 1.262-33.252 48.955 0 50.212 13.844 0 25.106-11.262 25.106-25.106zm-25.106 10.05c-5.542 0-10.05-4.508-10.05-10.05.505-13.315 19.597-13.311 20.1 0 0 5.542-4.508 10.05-10.05 10.05z"/><path d="m69.064 349.563c-13.843 0-25.105 11.262-25.105 25.106 1.262 33.261 48.954 33.251 50.211 0 0-13.844-11.263-25.106-25.106-25.106zm0 35.156c-5.541 0-10.049-4.508-10.049-10.05.505-13.314 19.596-13.31 20.099 0 0 5.541-4.508 10.05-10.05 10.05z"/><path d="m124.691 389.877c-13.844 0-25.106 11.263-25.106 25.106 1.262 33.26 48.954 33.252 50.211 0 0-13.843-11.263-25.106-25.105-25.106zm0 35.156c-5.542 0-10.05-4.508-10.05-10.05.505-13.314 19.596-13.311 20.099 0 0 5.542-4.508 10.05-10.049 10.05z"/><path d="m193.769 410.499c-13.844 0-25.106 11.263-25.106 25.106 1.262 33.26 48.955 33.251 50.212 0 0-13.843-11.262-25.106-25.106-25.106zm0 35.156c-5.542 0-10.05-4.508-10.05-10.05.505-13.315 19.597-13.311 20.1 0 0 5.541-4.508 10.05-10.05 10.05z"/><path d="m262.442 407.455c-13.844 0-25.106 11.262-25.106 25.106 1.262 33.26 48.954 33.253 50.211 0 0-13.843-11.263-25.106-25.105-25.106zm0 35.156c-5.542 0-10.05-4.508-10.05-10.05.505-13.313 19.596-13.311 20.099 0 0 5.542-4.508 10.05-10.049 10.05z"/><path d="m328.653 376.327c-13.843 0-25.105 11.262-25.105 25.106 1.262 33.261 48.954 33.251 50.211 0 0-13.844-11.262-25.106-25.106-25.106zm0 35.156c-5.541 0-10.049-4.508-10.049-10.05.505-13.314 19.596-13.31 20.099 0 0 5.541-4.508 10.05-10.05 10.05z"/><path d="m376.925 328.376c-13.844 0-25.106 11.262-25.106 25.106 1.262 33.261 48.955 33.252 50.212 0 0-13.844-11.263-25.106-25.106-25.106zm0 35.156c-5.542 0-10.05-4.508-10.05-10.05.505-13.314 19.597-13.31 20.1 0 0 5.542-4.508 10.05-10.05 10.05z"/><path d="m420.433 273.156c-13.844 0-25.106 11.263-25.106 25.106 1.262 33.261 48.955 33.252 50.212 0 .001-13.843-11.262-25.106-25.106-25.106zm0 35.156c-5.542 0-10.05-4.508-10.05-10.05.505-13.315 19.597-13.311 20.1 0 0 5.542-4.508 10.05-10.05 10.05z"/><path d="m449.829 211.868c-13.844 0-25.106 11.263-25.106 25.106 1.262 33.26 48.955 33.251 50.212 0 0-13.844-11.263-25.106-25.106-25.106zm0 35.156c-5.542 0-10.05-4.508-10.05-10.05.505-13.315 19.597-13.311 20.1 0 0 5.541-4.508 10.05-10.05 10.05z"/></g></g></svg>