<svg id="_x30_6_Cargo_Pants_1_" enable-background="new 0 0 64 64" height="512" viewBox="0 0 64 64" width="512" xmlns="http://www.w3.org/2000/svg"><path d="m54.3 60.4-1.9-14.4c1.2-.4 1.9-1.5 1.8-2.7l-.9-6.3c.7-.3.9-1 .9-1.6l-.6-4.6c-.2-1.2-1.2-2.2-2.5-2.2h-1l-1.6-12.2c-.5-3.4-.8-7-.8-10.6 0-1.5.1-3 .2-4.7 0-.6-.4-1.1-1-1.1h-29.8c-.6 0-1 .5-1 1.1.1 1.7.2 3.2.2 4.7 0 3.6-.3 7.3-.8 10.8l-1.6 12.2h-1c-1.2 0-2.3.9-2.5 2.2l-.6 4.6c-.1.6.2 1.2.9 1.6l-.8 6.3c-.1 1.1.5 2.3 1.8 2.7l-2 14.2c-.2 2 1.3 3.6 3.2 3.6h8.8c1.5 0 2.8-1 3.1-2.5l7.2-33.9 7.2 33.9c.3 1.5 1.6 2.5 3.1 2.5h8.8c1.9 0 3.4-1.6 3.2-3.6zm-8.8-25.9 5.7 2.3.9 6.8c0 .3-.2.6-.5.6h-5.6c-.3 0-.6-.2-.6-.6zm6.1-3.3.5 3.8-6.6-2.6v-1.6h5.6c.3-.1.5.1.5.4zm-4.9-13.6c-2.8-2.2-5.1-6-6.3-10.8h5.3c0 3.4.3 6.8.8 10.1zm-19.1-12.8v-2.8h8.7v2.8zm18.1 0h-7.4v-2.8h7.5c0 1-.1 1.9-.1 2.8zm-20.1-2.8v2.8h-7.4c0-.9 0-1.8-.1-2.8zm-7.3 4.8h5.3c-1.2 4.8-3.4 8.7-6.3 10.8l.1-.7c.5-3.4.8-6.7.9-10.1zm-5.9 24.4c0-.2.2-.4.5-.4h5.6v1.6l-6.6 2.6zm-.1 12.9c-.3 0-.5-.3-.5-.6l.9-6.8 5.7-2.3v9c0 .3-.2.6-.6.6zm10.5 17c-.1.5-.6.9-1.2.9h-8.8c-.7 0-1.3-.6-1.2-1.3l1.9-14.6h4.3c1.4 0 2.6-1.1 2.6-2.6v-13.8c0-.6-.4-1-1-1h-3.6l1.1-8.5c4-2.2 7.2-7.2 8.6-13.4h8.5v7.5c0 1.3-.9 2.5-2.2 2.8-.5.1-.8.5-.8 1v4.7zm28.3.9h-8.8c-.5 0-1-.4-1.1-.9l-8.2-38.4v-3.9c1.8-.7 3-2.5 3-4.5v-7.5h2.3c1.5 6.2 4.7 11.2 8.7 13.4l1.1 8.5h-3.6c-.6 0-1 .4-1 1v13.8c0 1.4 1.1 2.6 2.6 2.6h4.3l1.9 14.6c.1.7-.5 1.3-1.2 1.3zm-19.1-51.6c.5 0 1-.5 1-1s-.5-1-1-1-1 .4-1 1 .5 1 1 1zm0 3.8c.5 0 1-.5 1-1s-.5-1-1-1-1 .4-1 1 .5 1 1 1z"/></svg>