<svg id="O" enable-background="new 0 0 64 64" viewBox="0 0 64 64" xmlns="http://www.w3.org/2000/svg"><g><path d="m49.8 7.3c-.1-.1-.2-.2-.4-.3l-7.4-2.8c-.4-2.3-2.5-4.2-5-4.2h-10c-2.5 0-4.6 1.9-4.9 4.3l-7.4 2.8c-.2.1-.3.2-.4.3-.3.2-6.3 7.3-6.3 17.6v2c0 .6.4 1 1 1h7c.1 1.6.5 3.1.8 4.8.5 2.3 1.1 5 1.1 8.2 0 2.3-.6 4.1-1.4 6.3-1 3.5-2.5 7.8-2.5 15.7 0 .6.4 1 1 1h34c.6 0 1-.4 1-1 0-7.9-1.5-12.2-2.6-15.7-.8-2.2-1.4-4-1.4-6.3 0-3.2.6-5.9 1.1-8.2.4-1.6.7-3.2.8-4.8h7c.6 0 1-.4 1-1v-2c.1-10.3-5.9-17.4-6.1-17.7zm-20.8 6.8 3-1 3 1v9.9h-6zm3-3.7-3.6-4.4h7.2zm1.7 1.1 5.4-6.6c.3-.4.5-.8.6-1.2.2.4.3.8.3 1.3v8.6zm3.1-9.5c.6 0 .8.4.9.6.1.1.2.6-.1 1.1l-.3.3h-10.6l-.3-.4c-.4-.5-.2-.9-.1-1.1.1-.1.3-.5.9-.5zm-12.8 3c0-.5.1-.9.3-1.3.1.4.3.8.6 1.2l5.4 6.6-6.3 2.1zm30 21h-6v-4c0-.6-.4-1-1-1s-1 .4-1 1v5c0 1.7-.4 3.4-.8 5.4-.6 2.4-1.2 5.2-1.2 8.6 0 2.6.7 4.6 1.5 7 1.1 3.2 2.4 7.1 2.5 14h-32c.1-6.9 1.4-10.8 2.5-14 .8-2.4 1.5-4.4 1.5-7 0-3.4-.6-6.2-1.2-8.6-.4-2-.8-3.7-.8-5.4v-5c0-.6-.4-1-1-1s-1 .4-1 1v4h-6v-1c0-8.6 4.7-15 5.6-16.2l6.4-2.4v8.6c0 .3.2.6.4.8.3.2.6.2.9.1l3.7-1.2v10.3c0 .6.4 1 1 1h8c.6 0 1-.4 1-1v-10.3l3.7 1.2c.1 0 .2.1.3.1.2 0 .4-.1.6-.2.3-.2.4-.5.4-.8v-8.6l6.4 2.4c.9 1.2 5.6 7.6 5.6 16.2z"/><circle cx="32" cy="17" r="1"/><circle cx="32" cy="21" r="1"/></g></svg>