<svg id="Capa_1" enable-background="new 0 0 508.018 508.018" height="512" viewBox="0 0 508.018 508.018" width="512" xmlns="http://www.w3.org/2000/svg"><g><circle cx="283.072" cy="275.173" r="7.5"/><circle cx="235.122" cy="275.173" r="7.5"/><circle cx="283.072" cy="310.16" r="7.5"/><circle cx="235.122" cy="310.16" r="7.5"/><circle cx="283.072" cy="345.146" r="7.5"/><circle cx="235.122" cy="345.146" r="7.5"/><path d="m465.273 351.694-22.343-60.498c-1.435-3.886-5.748-5.871-9.634-4.438-3.886 1.435-5.873 5.749-4.438 9.634l22.343 60.498c.516 1.396.439 2.9-.216 4.236s-1.798 2.319-3.217 2.767l-46.699 14.721-44.494-210.917c15.556 1.594 29.177 11.975 34.669 26.845l26.963 73.008c1.119 3.029 3.986 4.904 7.037 4.904.863 0 1.741-.15 2.597-.466 3.886-1.435 5.873-5.749 4.438-9.634l-26.963-73.009c-7.555-20.455-26.401-34.675-47.853-36.629 2.27-10.172 3.431-20.663 3.431-31.322 0-66.936-45.632-121.394-101.721-121.394-32.456 0-63.226 18.693-82.31 50.003-2.156 3.537-1.036 8.152 2.501 10.308 3.538 2.155 8.152 1.036 10.308-2.501 16.582-27.206 41.914-42.81 69.501-42.81 47.818 0 86.721 47.729 86.721 106.395 0 11.249-1.423 22.28-4.231 32.863l-17.732 7.817c4.787-11.449 7.328-24.145 7.328-37.198 0-46.101-31.608-83.607-70.461-83.607-38.852 0-70.46 37.506-70.46 83.607 0 13.99 2.863 27.411 8.245 39.365l-21.781-9.602c-2.877-10.704-4.349-21.867-4.349-33.246 0-12.942 1.877-25.588 5.578-37.586 1.221-3.958-.998-8.156-4.956-9.377-3.956-1.222-8.156.998-9.377 4.956-4.144 13.431-6.245 27.564-6.245 42.007 0 10.568 1.149 20.981 3.384 31.083h-5.215c-23.508 0-44.774 14.816-52.919 36.869l-59.958 162.348c-1.923 5.207-1.625 11.052.819 16.037 2.443 4.984 6.881 8.8 12.175 10.469l57.08 17.993-16.736 79.332c-.801 3.796 1.426 7.577 5.134 8.717 51.545 15.851 104.562 23.777 157.581 23.776 53.018 0 106.037-7.925 157.582-23.777 3.708-1.14 5.935-4.92 5.134-8.716l-17.333-82.164 48.098-15.162c5.294-1.669 9.732-5.485 12.176-10.47 2.443-4.983 2.741-10.828.818-16.035zm-242.348-176.756c-11.341-13.133-17.587-30.912-17.587-50.062 0-37.83 24.879-68.607 55.46-68.607s55.461 30.777 55.461 68.607c0 17.657-5.434 34.44-15.301 47.258-.024.031-.043.065-.067.097l-42.092 18.556-35.831-15.796c-.016-.017-.028-.036-.043-.053zm-162.676 188.956c-1.419-.448-2.562-1.43-3.217-2.766s-.732-2.841-.216-4.237l59.958-162.348c5.979-16.189 21.59-27.066 38.848-27.066h5.447l-45.139 213.969zm68.657 28.709c.001-.004.002-.009.003-.013l46.837-222.023 29.875 13.17v50.947c0 4.142 3.358 7.5 7.5 7.5s7.5-3.358 7.5-7.5v-44.334l30.677 13.523v289.075c-46.786-.679-93.515-7.695-139.115-21.074zm137.392 100.345v-289.074l36.755-16.203v47.014c0 4.142 3.358 7.5 7.5 7.5s7.5-3.358 7.5-7.5v-53.626l23.797-10.49 63.563 301.307c-45.6 13.377-92.329 20.394-139.115 21.072z"/><path d="m213.122 382.944h-52.837c-4.142 0-7.5 3.358-7.5 7.5v37.905c0 18.703 15.216 33.918 33.918 33.918 18.703 0 33.918-15.216 33.918-33.918v-37.905c.001-4.142-3.357-7.5-7.499-7.5zm-7.5 45.405c0 10.432-8.487 18.918-18.918 18.918-10.432 0-18.918-8.487-18.918-18.918v-30.405h37.837v30.405z"/><path d="m303.097 382.944c-4.142 0-7.5 3.358-7.5 7.5v37.905c0 18.703 15.216 33.918 33.918 33.918 18.703 0 33.918-15.216 33.918-33.918v-37.905c0-4.142-3.358-7.5-7.5-7.5zm45.337 45.405c0 10.432-8.487 18.918-18.918 18.918-10.432 0-18.918-8.487-18.918-18.918v-30.405h37.837v30.405z"/></g></svg>