<?xml version="1.0" encoding="UTF-8"?>
<svg xmlns="http://www.w3.org/2000/svg" xmlns:xlink="http://www.w3.org/1999/xlink" version="1.1" id="Layer_1" x="0px" y="0px" viewBox="0 0 512 512" style="enable-background:new 0 0 512 512;" xml:space="preserve" width="512" height="512">
<g>
	
		<path style="fill-rule:evenodd;clip-rule:evenodd;fill:none;stroke:#000000;stroke-width:20;stroke-linecap:round;stroke-linejoin:round;stroke-miterlimit:22.9256;" d="&#10;&#9;&#9;M15,323.858h184.1l182.601,10l112.694-11.878 M219.688,158.586c0,0-57.384,89.169-177.583,20c-16.25,10.25-32.105,29-32.105,60&#10;&#9;&#9;v140.555h363.198c11.943,0,26.613-1.759,33.036-2.455c31.912-3.459,63.844-6.729,95.766-10.094l-4.599-44.929&#10;&#9;&#9;c-4.067-39.725-33.41-67.078-104.644-67.078L175.129,132.859c0,0-22.312,31.099-5.188,60.759"/>
	
		<line style="fill-rule:evenodd;clip-rule:evenodd;fill:none;stroke:#000000;stroke-width:20;stroke-linecap:round;stroke-linejoin:round;stroke-miterlimit:22.9256;" x1="255.012" y1="181.117" x2="243.296" y2="202.063"/>
	
		<line style="fill-rule:evenodd;clip-rule:evenodd;fill:none;stroke:#000000;stroke-width:20;stroke-linecap:round;stroke-linejoin:round;stroke-miterlimit:22.9256;" x1="298.649" y1="205.525" x2="286.933" y2="226.471"/>
	
		<line style="fill-rule:evenodd;clip-rule:evenodd;fill:none;stroke:#000000;stroke-width:20;stroke-linecap:round;stroke-linejoin:round;stroke-miterlimit:22.9256;" x1="342.286" y1="229.932" x2="330.571" y2="250.879"/>
	
		<line style="fill-rule:evenodd;clip-rule:evenodd;fill:none;stroke:#000000;stroke-width:20;stroke-linecap:round;stroke-linejoin:round;stroke-miterlimit:22.9256;" x1="392.757" y1="254.585" x2="351.385" y2="328.552"/>
	
		<polyline style="fill-rule:evenodd;clip-rule:evenodd;fill:none;stroke:#000000;stroke-width:20;stroke-linecap:round;stroke-linejoin:round;stroke-miterlimit:22.9256;" points="&#10;&#9;&#9;106.523,204.871 73.555,263.813 15,263.813 &#9;"/>
</g>















</svg>
