<?xml version="1.0"?>
<svg xmlns="http://www.w3.org/2000/svg" viewBox="0 0 512 512" width="512" height="512"><g id="outline"><path d="M472,392a24.028,24.028,0,0,0-24,24,32.036,32.036,0,0,1-32,32H280.24v-2.38a37.964,37.964,0,0,0-25.981-36.05L230.9,401.788,281.141,282.46A35.975,35.975,0,0,0,283.782,272H334.35l14.311,7.155a7.987,7.987,0,0,0,3.577.845h22a26.029,26.029,0,0,0,26-26V232a8,8,0,0,0-8-8H378.127l-14.311-7.155a8,8,0,0,0-7.155,0l-.436.218-31.988-18.714A53.636,53.636,0,0,0,326.365,192h9.081l10.939,2.188a77.071,77.071,0,0,0,53.687-8.684L419.8,198.656a8,8,0,0,0,12.328-5.341l7.658-45.944,3.994-4.993A55.718,55.718,0,0,0,429.6,60.15a32,32,0,1,0-59.093.236,55.678,55.678,0,0,0-9.377,7.429c-.022.022-.047.043-.069.065-.081.081-.166.155-.247.236l-24.392,24.39-55.6-61.781a29.413,29.413,0,0,0-34.924-6.614l-7.927,3.963a13.4,13.4,0,0,1-11.928,0L203.578,16.845a8,8,0,0,0-8.378.755l-32,24a8,8,0,0,0,2.008,13.9c.36.134,36.235,13.5,54.262,20.092a29.427,29.427,0,0,0,26.418-3.18,13.366,13.366,0,0,1,16.855,1.648l10.3,10.3a284.951,284.951,0,0,0-125.2,10.82L49.98,37.929l5.175-10.351a8,8,0,0,0-14.31-7.156l-4.706,9.411L28.04,25.1a8,8,0,0,0-8.08,13.81l9.009,5.27-4.124,8.247a8,8,0,1,0,14.31,7.156l3.654-7.307,85.548,50.041a64.32,64.32,0,0,0-25.373,21.033l0,0,0,.007a64.5,64.5,0,0,0,.9,76.164l71.506,90.35L144.892,396.6l-3.809,5.714a76.239,76.239,0,0,0-12.845,42.423V448H40a24,24,0,0,0,0,48H416a80.091,80.091,0,0,0,80-80A24.028,24.028,0,0,0,472,392ZM264.24,445.62V448h-16v-2.377a37.939,37.939,0,0,0-8.573-24.051l9.532,3.177A21.979,21.979,0,0,1,264.24,445.62ZM266.4,276.246,212.608,404.018l-.017.041-.846,2.01-10.038-3.346c7.127-24.77,34.314-102.566,42.6-126.171a35.685,35.685,0,0,0,1.283-4.71c1.045.093,2.1.158,3.163.158h18.9A19.993,19.993,0,0,1,266.4,276.246ZM312,112h16v47.916a36.033,36.033,0,0,0-16-25.986Zm54.247-26.695,15.17,18.2-12.639,12.639L353.611,97.941Zm33.241,80.132L384.238,154a20.1,20.1,0,0,1-8-16v-6.685l16-16L420.925,144ZM312.238,164v13.891a37.853,37.853,0,0,1-5.3,19.365c-.037.06-.079.114-.114.175s-.056.111-.087.166a38.072,38.072,0,0,1-8.761,9.967l-4.858,3.886-25.01-20.008,1.763-1.762A7.973,7.973,0,0,0,272.24,184c0-.013,0-.026,0-.039V164a20,20,0,0,1,40,0Zm-79.45,40.137L223.956,192h20.969Zm2.727,19.9,21.211-21.211L280.313,221.7l-5.072,4.058a8,8,0,0,0,5,14.247H320v16s-76.278-.52-78.54-1.472c-.126-.056-.252-.109-.38-.159a18.741,18.741,0,0,1-5.565-30.332Zm137.146,15.118a7.987,7.987,0,0,0,3.577.845h8v14a10.011,10.011,0,0,1-10,10H354.127l-14.311-7.155a7.994,7.994,0,0,0-3.578-.845H336V240h8.238a7.994,7.994,0,0,0,3.578-.845l12.422-6.211ZM336.4,224H304q0-.368-.035-.733l4.012-3.209a54.464,54.464,0,0,0,8.059-7.973Zm13.126-45.5-5.283-1.057V111.69l16,19.2V138a36.172,36.172,0,0,0,14.4,28.8l10.811,8.109A61.177,61.177,0,0,1,349.523,178.5Zm68.858-.019-5.586-3.723,7.448-7.449Zm13.186-46.465-1.652-1.651-.018-.021L398.154,98.6,378.092,74.525a39.755,39.755,0,0,1,53.475,57.49ZM384,48a16,16,0,1,1,30.9,5.775,56.152,56.152,0,0,0-29.762.115A15.955,15.955,0,0,1,384,48ZM236.979,59.118a13.385,13.385,0,0,1-12.011,1.446c-10.885-3.983-28.308-10.444-40.447-14.955l16.324-12.242,18.035,9.017a29.475,29.475,0,0,0,26.24,0l7.926-3.963a13.372,13.372,0,0,1,15.876,3.007L318.037,96H307.314l-5.127-5.127-.013-.013L274.057,62.743A29.4,29.4,0,0,0,236.979,59.118Zm46.705,43.165,8.969,1.684L296,107.313V128.2A36,36,0,0,0,256.618,158.8L166.89,106.316A268.859,268.859,0,0,1,283.684,102.283Zm-158,20.272a48.841,48.841,0,0,1,12.376-7c2.645-1.015,5.314-1.975,7.978-2.9L254.328,176H210.351L153.28,143.636l-31.389-17.8A48.213,48.213,0,0,1,125.682,122.555Zm64.7,160.323L116.68,189.92a48.474,48.474,0,0,1-4.4-51.138l27.091,15.363,63.414,35.961,18.7,25.7a34.743,34.743,0,0,0,8.728,50.859,19.864,19.864,0,0,1-1.011,4.581c-8.357,23.8-35.849,102.482-42.978,127.39l-23.917-4.783L191.933,290.2A8,8,0,0,0,190.386,282.878ZM144.238,444.734A60.282,60.282,0,0,1,154.4,411.186l1.527-2.29,22.849,4.569c.063.014.126.026.19.038l11.219,2.244,27.014,9a21.973,21.973,0,0,1,15.043,20.872V448h-88ZM416,480H40a8,8,0,0,1,0-16H416a48.055,48.055,0,0,0,48-48,8,8,0,0,1,16,0A64.072,64.072,0,0,1,416,480Z"/><path d="M112,352a8,8,0,0,0,0,16h16a8,8,0,0,0,0-16Z"/><path d="M24,352a8,8,0,0,0,0,16H80a8,8,0,0,0,0-16Z"/><path d="M80,304a8,8,0,0,0,8,8h48a8,8,0,0,0,0-16H88A8,8,0,0,0,80,304Z"/><path d="M24,312H56a8,8,0,0,0,0-16H24a8,8,0,0,0,0,16Z"/><path d="M104,264a8,8,0,0,0,0-16H96a8,8,0,0,0,0,16Z"/><path d="M64,248H24a8,8,0,0,0,0,16H64a8,8,0,0,0,0-16Z"/></g></svg>
