<svg id="Capa_1" enable-background="new 0 0 505.272 505.272" height="512" viewBox="0 0 505.272 505.272" width="512" xmlns="http://www.w3.org/2000/svg"><path d="m504.639 282.982-3.416-11.634c-1.161-3.957-3.794-7.225-7.413-9.201-3.62-1.977-7.793-2.425-11.748-1.263l-34.542 10.143-12.057-24.75c-1.499-3.077-3.985-5.338-6.953-6.526l-131.821-61.573c-10.264-4.796-22.141-5.023-32.58-.629-10.441 4.395-18.578 13.047-22.324 23.738l-26.485 75.587-196.807-17.975c-4.734-.434-9.46 1.157-12.97 4.361-3.51 3.203-5.523 7.767-5.523 12.519v32.04c0 9.607 7.815 17.423 17.423 17.423h102.191c3.68 0 7.197-1.573 9.651-4.315l7.105-7.939 194.05 16.797c8.313.72 16.618 1.079 24.902 1.079 27.264 0 54.296-3.892 80.65-11.63l58.203-17.09c3.957-1.162 7.224-3.795 9.199-7.414 1.979-3.62 2.427-7.792 1.265-11.748zm-80.446-25.588 8.729 17.919-5.969 1.753c-2.378.698-4.764 1.354-7.153 1.986zm66.018 30.147c-.087.159-.214.196-.261.21l-58.203 17.09c-32.564 9.562-66.22 12.928-100.033 10l-197.785-17.12c-2.341-.203-4.66.711-6.235 2.471l-8.995 10.051h-101.276c-1.336 0-2.423-1.087-2.423-2.423v-32.04c0-.711.346-1.176.636-1.441.289-.265.779-.566 1.492-.502l243.035 22.197c4.132.383 7.774-2.661 8.151-6.787.377-4.125-2.661-7.774-6.786-8.151l-30.827-2.816 25.24-72.034c2.382-6.797 7.349-12.079 13.987-14.873 6.64-2.795 13.887-2.654 20.413.394l120.522 56.296c-.142.453-.27.914-.366 1.39l-6.759 33.329c-25.583 5.139-51.68 6.559-77.867 4.19l-34.165-3.12c-4.113-.379-7.773 2.663-8.15 6.787-.377 4.125 2.662 7.774 6.787 8.151l34.171 3.121c36.047 3.262 71.937-.256 106.666-10.453l55.106-16.181c.049-.014.176-.05.334.036s.195.212.209.26l3.416 11.635c.016.048.053.174-.034.333z"/></svg>