<svg id="Capa_1" enable-background="new 0 0 512 512" height="512" viewBox="0 0 512 512" width="512" xmlns="http://www.w3.org/2000/svg"><g><path d="m255.999 512c-13.596 0-24.657-11.061-24.657-24.656l-.001-36.09-20.753 19.834c-9.828 9.393-25.467 9.04-34.861-.789-9.394-9.831-9.04-25.47.79-34.862l14.263-13.632c3.001-2.867 7.758-2.76 10.625.241 2.867 3 2.76 7.756-.24 10.624l-14.263 13.632c-3.838 3.667-3.977 9.774-.308 13.613 3.668 3.838 9.774 3.978 13.611.308l33.459-31.978c4.261-4.332 12.713-1.247 12.707 5.432l.002 53.666c0 5.308 4.318 9.626 9.627 9.626s9.628-4.319 9.628-9.628l-.002-53.668c-.188-6.072 7.882-10.053 12.707-5.432l33.462 31.981c3.28 3.268 9.897 3.735 13.612-.309 3.668-3.838 3.529-9.944-.308-13.612l-57.152-54.62c-1.483-1.418-2.322-3.381-2.322-5.432l-.001-43.752c0-2.685 1.432-5.165 3.757-6.508l49.887-28.802c2.308-1.332 5.147-1.34 7.462-.03l37.842 21.445c1.785 1.012 3.079 2.71 3.581 4.7l19.34 76.645c3.939 12.665 21.264 7.145 18.67-4.712l-11.324-44.874c-1.668-5.841 5.182-11.674 10.991-8.377l46.69 26.459c3.874 2.424 10.6 1.097 13.123-3.63 2.617-4.618.989-10.505-3.629-13.121l-46.692-26.461c-5.376-2.83-4.859-11.815 1.539-13.734l44.322-13.342c5.083-1.53 7.974-6.911 6.443-11.994-1.321-4.682-6.712-7.973-11.993-6.444l-75.701 22.79c-1.966.591-4.086.352-5.871-.658l-38.305-21.707c-2.354-1.335-3.81-3.832-3.81-6.538v-55.204c0-2.706 1.456-5.203 3.81-6.538l38.306-21.708c1.786-1.01 3.908-1.247 5.871-.658l27.468 8.269c3.974 1.197 6.226 5.387 5.029 9.362-1.197 3.974-5.389 6.224-9.362 5.029l-24.391-7.343-31.701 17.965v46.447l31.7 17.964 72.623-21.864c12.224-4.005 27.171 3.597 30.718 16.502 3.92 13.018-3.482 26.798-16.501 30.719l-27.491 8.276 31.399 17.794c11.828 6.702 15.998 21.779 9.295 33.608-6.264 11.418-21.942 16.132-33.609 9.296l-31.398-17.794 7.023 27.833c3.325 13.184-4.694 26.615-17.876 29.94-12.773 3.454-26.852-4.887-29.939-17.874l-18.554-73.53-31.308-17.742-42.408 24.483.002 36.201 54.828 52.401c9.829 9.392 10.183 25.031.79 34.861-8.715 9.483-25.355 10.277-34.861.791l-20.756-19.837.001 36.091c.002 13.594-11.059 24.656-24.655 24.656zm-140.815-79.749c-2.027 0-4.061-.254-6.044-.754-12.624-2.891-21.405-16.982-17.876-29.94l7.024-27.837-31.398 17.797c-11.002 6.612-27.338 2.456-33.609-9.293-6.609-11.039-2.508-27.295 9.294-33.609l31.397-17.796-27.488-8.275c-13.018-3.92-20.421-17.7-16.502-30.717 3.919-13.016 17.699-20.419 30.716-16.505l72.618 21.862 31.699-17.966v-46.438l-31.699-17.966-72.616 21.862c-12.377 4.052-27.114-3.773-30.718-16.503-3.918-13.019 3.485-26.798 16.502-30.718l27.489-8.275-31.398-17.796c-28.668-18.479-3.216-57.706 24.316-42.9l31.397 17.796-7.024-27.837c-3.445-12.395 4.821-26.982 17.875-29.94 13.19-3.317 26.616 4.701 29.94 17.876l3.402 13.483c1.016 4.024-1.424 8.109-5.448 9.125-4.029 1.014-8.11-1.425-9.125-5.448l-3.403-13.484c-1.297-5.144-6.543-8.278-11.694-6.978-4.734 1.105-8.26 6.348-6.975 11.689l11.325 44.881c1.669 5.841-5.184 11.676-10.992 8.376l-46.69-26.464c-11.398-5.893-20.145 10.226-9.494 16.751l46.689 26.464c5.376 2.83 4.858 11.814-1.539 13.733l-44.318 13.342c-5.083 1.53-7.974 6.911-6.444 11.995 1.632 4.714 6.481 8.045 11.998 6.442l75.688-22.787c1.964-.592 4.086-.353 5.872.658l38.303 21.709c2.354 1.334 3.809 3.831 3.809 6.537v55.196c0 2.706-1.455 5.204-3.809 6.537l-38.303 21.709c-1.785 1.013-3.907 1.25-5.872.659l-75.692-22.788c-5.081-1.527-10.464 1.361-11.994 6.444s1.361 10.464 6.444 11.994l44.318 13.341c5.868 1.569 7.353 10.445 1.539 13.733l-46.688 26.463c-10.863 6.686-1.625 22.583 9.492 16.751l46.692-26.464c2.618-1.481 5.868-1.262 8.26.562 2.393 1.823 3.468 4.898 2.731 7.815l-11.325 44.88c-2.574 12.817 15.218 16.546 18.669 4.711l19.342-76.654c.502-1.989 1.796-3.687 3.581-4.699l37.827-21.439c2.318-1.313 5.156-1.302 7.463.029l49.892 28.806c2.325 1.342 3.757 3.823 3.757 6.508l.001 43.757c0 2.052-.839 4.015-2.323 5.432l-21.148 20.214c-3 2.868-7.757 2.76-10.624-.241-2.867-3-2.76-7.757.241-10.624l18.826-17.992-.001-36.206-42.412-24.487-31.292 17.736-18.557 73.538c-2.767 10.967-12.592 18.627-23.894 18.627zm140.81-111.929c-1.298 0-2.595-.336-3.757-1.007l-49.181-28.395c-2.325-1.342-3.757-3.823-3.757-6.508v-56.791c0-2.685 1.433-5.165 3.757-6.508l49.181-28.395c2.325-1.342 5.19-1.342 7.515 0l49.183 28.395c2.325 1.342 3.757 3.823 3.757 6.508v56.791c0 2.685-1.432 5.165-3.757 6.508l-49.183 28.395c-1.163.671-2.46 1.007-3.758 1.007zm-41.666-40.249 41.666 24.057 41.668-24.057v-48.113l-41.668-24.057-41.666 24.057zm90.849 4.339h.01zm153.237-46.686c-2.403 0-4.796-.353-7.112-1.049l-19.452-5.856c-3.974-1.197-6.226-5.388-5.029-9.362 1.196-3.975 5.388-6.224 9.362-5.029l19.449 5.855c4.172 1.551 10.777-1.435 11.994-6.444 1.531-5.083-1.36-10.464-6.443-11.994l-44.322-13.342c-2.881-.867-4.967-3.369-5.301-6.359-.335-2.989 1.145-5.891 3.763-7.375l46.692-26.461c4.618-2.616 6.246-8.503 3.629-13.122-2.616-4.617-8.504-6.245-13.124-3.629l-46.688 26.46c-5.189 3.157-12.632-1.902-10.991-8.377l11.324-44.876c1.298-5.147-1.833-10.391-6.98-11.69-5.145-1.298-10.392 1.833-11.691 6.979l-19.34 76.645c-.502 1.989-1.796 3.688-3.581 4.7l-37.87 21.462c-2.316 1.312-5.155 1.301-7.462-.03l-49.86-28.786c-2.325-1.342-3.757-3.823-3.757-6.508l.001-43.786c0-2.052.839-4.015 2.322-5.433l57.151-54.621c8.939-9.211-3.992-22.239-13.302-13.92l-33.464 31.981c-4.259 4.332-12.713 1.247-12.707-5.433l.002-53.668c0-5.309-4.319-9.628-9.628-9.628s-9.627 4.318-9.627 9.626l-.002 53.667c.188 6.072-7.881 10.053-12.707 5.433l-33.459-31.978c-3.259-3.258-9.915-3.739-13.612.308-3.254 3.254-3.739 9.915.308 13.61l57.145 54.616c1.483 1.418 2.322 3.381 2.322 5.432l-.001 43.792c0 2.685-1.432 5.165-3.757 6.508l-49.864 28.789c-2.307 1.333-5.145 1.343-7.463.029l-37.854-21.456c-1.785-1.012-3.079-2.709-3.581-4.699l-8.585-34.021c-1.016-4.024 1.423-8.11 5.448-9.125 4.024-1.017 8.109 1.424 9.125 5.448l7.799 30.907 31.32 17.751 42.383-24.47.001-36.241-54.822-52.395c-9.536-8.7-10.257-25.371-.79-34.86 8.706-9.531 25.373-10.275 34.862-.788l20.752 19.833.001-36.091c.002-13.594 11.062-24.655 24.658-24.655s24.657 11.062 24.657 24.657l-.001 36.091 20.755-19.836c9.116-9.126 25.812-9.102 34.861.788 9.131 9.127 9.101 25.811-.79 34.862l-54.828 52.401-.002 36.234 42.38 24.467 31.336-17.758 18.554-73.529c3.327-13.179 16.757-21.194 29.938-17.875 13.183 3.326 21.202 16.756 17.878 29.939l-7.024 27.834 31.398-17.794c11.829-6.702 26.906-2.531 33.609 9.296 6.703 11.829 2.533 26.905-9.295 33.608l-31.399 17.794 27.49 8.276c13.019 3.921 20.421 17.702 16.501 30.719-3.112 10.334-12.818 17.552-23.603 17.552z"/></g></svg>