<?xml version="1.0"?>
<svg xmlns="http://www.w3.org/2000/svg" id="OutLine" viewBox="0 0 512 512" width="512" height="512"><path d="M384.282,322.1A8,8,0,0,0,392,328h40a8,8,0,0,0,7.746-10l-64-248h-.006a7.994,7.994,0,0,0-5.542-5.694L310.5,47.251l-15.554-27.22A8,8,0,0,0,288,16H224a8,8,0,0,0-6.946,4.031L201.5,47.251,141.8,64.308A7.994,7.994,0,0,0,136.26,70h-.006l-64,248A8,8,0,0,0,80,328h40a8,8,0,0,0,7.718-5.9l32.841-120.416,7.163,37.6-23.212,61.9A8,8,0,0,0,152,312h5.02A103.434,103.434,0,0,0,152,344V488a8,8,0,0,0,8,8H352a8,8,0,0,0,8-8V344a103.571,103.571,0,0,0-5.023-32H360a8,8,0,0,0,7.49-10.809l-23.212-61.9,7.163-37.6ZM398.11,312,358.26,165.887l10.917-57.312L421.674,312ZM243.428,148.306,201.3,79.849l19.378-33.913ZM233.973,32h44.054L256,131.122Zm57.348,13.936L310.7,79.849l-42.127,68.457ZM113.89,312H90.326l52.5-203.425,10.917,57.311Zm69.6-69.191a7.981,7.981,0,0,0,.368-4.306L153.227,77.684l36.908-10.546-5.081,8.893a8,8,0,0,0,.133,8.161L248,186.264V296H163.544ZM344,344V480H312V392a8,8,0,0,0-16,0v88H168V344a87.33,87.33,0,0,1,6-32H337.974A87.441,87.441,0,0,1,344,344Zm4.456-48H264V186.264L326.813,84.192a8,8,0,0,0,.133-8.161l-5.081-8.893,36.908,10.546L328.142,238.5a7.981,7.981,0,0,0,.368,4.306Z"/></svg>
