<svg height="512" viewBox="0 0 128 128" width="512" xmlns="http://www.w3.org/2000/svg"><path d="m108.912 22.108a1.828 1.828 0 0 0 -.943-1.307l-23.822-12.001a1.9 1.9 0 0 0 -1.791.133c-11.645 8.032-25.057 8.04-36.712 0a1.907 1.907 0 0 0 -1.791-.133l-23.821 12a1.8 1.8 0 0 0 -.944 1.311c-5.075 31.419-7.818 63.678-9.835 95.421a1.751 1.751 0 0 0 1.747 1.858h12.18a1.751 1.751 0 0 0 1.669-1.223c2.488-7.879 4.621-16.962 6.312-25.081 0 4.273-.029 8.905-.071 16.542v.2c-.009 2.542-.019 5.14-.019 7.816a1.751 1.751 0 0 0 1.75 1.75h62.359a1.751 1.751 0 0 0 1.75-1.75c0-10-.091-15.2-.091-24.554 1.693 8.127 3.809 17.155 6.312 25.081a1.751 1.751 0 0 0 1.669 1.223h12.18a1.75 1.75 0 0 0 1.747-1.861c-2.011-31.657-4.747-63.953-9.835-95.425zm-5.054 85.782c-2.186-8.381-4.343-18.568-6.751-31.882.551-14.335 2.142-29.937 9.274-47.414 3.464 22.824 6.162 48.86 8.225 79.3zm-39.858-89.41a34.8 34.8 0 0 0 16.511-4.312 17.853 17.853 0 0 1 -33.022 0 34.812 34.812 0 0 0 16.511 4.312zm-20.588-5.542a21.316 21.316 0 0 0 41.176 0l4.091 2.062a25.819 25.819 0 0 1 -49.358 0zm-7.245 3.65a29.3 29.3 0 0 0 55.666 0l13.054 6.576c-8.887 19.729-10.687 37.072-11.287 52.9v.029c-.37 9.841-.262 20.835-.2 31.8h-58.8c.06-10.7.169-21.977-.2-31.8v-.029c-.6-15.828-2.4-33.171-11.285-52.9zm-12.026 91.3h-10.747c2.062-30.435 4.761-56.471 8.224-79.3 7.133 17.477 8.724 33.079 9.275 47.414-2.407 13.319-4.564 23.504-6.752 31.888zm-11.276 8c.1-1.506.2-3 .294-4.5h10.041c-.312 1.126-.705 2.548-1.3 4.5zm21.706 0q0-2.284.012-4.5h58.834q.007 2.218.012 4.5zm71.537 0c-.5-1.638-.886-3-1.3-4.5h10.036c.1 1.5.2 2.993.294 4.5z"/></svg>