<svg id="Expand" viewBox="0 0 128 128" xmlns="http://www.w3.org/2000/svg"><path d="m7.78 26.4 16.13 22a2.16 2.16 0 0 0 1.33.79 2.51 2.51 0 0 0 1.51-.4l2.44-1.91c2.73 14.72.55 27.9-1.88 42.52-1.86 11.24-3.79 22.88-3.79 36.61a2 2 0 0 0 2 2h77a2 2 0 0 0 2-2c0-13.73-2-25.38-3.83-36.64-2.48-14.58-4.69-27.72-1.97-42.37l2.62 1.82a2 2 0 0 0 1.14.36 2 2 0 0 0 1.61-.81l16.13-22a2.54 2.54 0 0 0 .27-1.87 31.82 31.82 0 0 0 -19.88-19.32c-6-2-11.52-3.72-16.43-5.1a2 2 0 0 0 -1.72.3c-1.12.81-2.39 1.91-3.73 3.08-4.16 3.63-9.34 8.15-14.73 8.15s-10.57-4.52-14.73-8.15c-1.34-1.17-2.61-2.27-3.73-3.08a2 2 0 0 0 -1.72-.3c-4.91 1.38-10.44 3.09-16.43 5.1a31.82 31.82 0 0 0 -19.88 19.35 2.49 2.49 0 0 0 .27 1.87zm20.88-17.4c5.54-1.88 10.68-3.49 15.34-4.8.81.64 1.73 1.44 2.69 2.28 4.42 3.85 10.47 9.13 17.36 9.13s12.94-5.28 17.36-9.13c1-.84 1.88-1.64 2.69-2.28 4.56 1.31 9.7 2.92 15.24 4.8a27.8 27.8 0 0 1 17 16l-14.34 19.45-2.38-1.67a81.33 81.33 0 0 1 4.67-13.53 2 2 0 1 0 -3.66-1.62 144.08 144.08 0 0 0 -5.25 15.8c-3.68 16.63-1.24 31.29 1.32 46.57 1.77 10.54 3.59 21.43 3.77 34h-72.94c.18-12.55 2-23.43 3.73-34 2.55-15.39 5-30.12 1.22-46.9a146.34 146.34 0 0 0 -5.13-15.5 2 2 0 1 0 -3.66 1.6 83.32 83.32 0 0 1 4.56 13.3l-2.34 1.82-14.25-19.39a27.8 27.8 0 0 1 17-15.93z"/></svg>