<?xml version="1.0"?>
<svg xmlns="http://www.w3.org/2000/svg" id="OutLine" viewBox="0 0 512 512" width="512" height="512"><path d="M392,168.085c.135-12.735-12.566-54.313-16-65.309V24a8,8,0,0,0-8-8H336a8,8,0,0,0-8,8V72a72,72,0,0,1-144,0V24a8,8,0,0,0-8-8H144a8,8,0,0,0-8,8v78.776c-3.434,11-16.135,52.574-16,65.309.171,16.027,9.789,39.468,19.972,64.283C149.818,256.365,160,281.179,160,296c0,12.144-6.767,36.038-14.6,63.7C134.083,399.666,120,449.4,120,488a8,8,0,0,0,8,8H384a8,8,0,0,0,8-8c0-38.6-14.083-88.334-25.4-128.3-7.834-27.666-14.6-51.56-14.6-63.7,0-14.822,10.182-39.636,20.028-63.633C382.211,207.552,391.829,184.112,392,168.085ZM336,296c0,14.365,6.71,38.062,15.206,68.063,10.255,36.214,22.838,80.649,24.588,115.937H136.206c1.75-35.288,14.333-79.723,24.588-115.937,8.5-30,15.206-53.7,15.206-68.063,0-17.977-10.791-44.274-21.226-69.705-9.163-22.329-18.636-45.419-18.774-58.38-.089-8.285,9.541-42.13,15.632-61.518A7.985,7.985,0,0,0,152,104V32h16V72a88,88,0,1,0,176,0V32h16v72a8,8,0,0,0,.368,2.4c6.091,19.385,15.721,53.228,15.632,61.517-.138,12.961-9.611,36.05-18.774,58.378C346.79,251.726,336,278.023,336,296Z"/></svg>
