<?xml version="1.0" encoding="iso-8859-1"?>
<!-- Generator: Adobe Illustrator 19.0.0, SVG Export Plug-In . SVG Version: 6.00 Build 0)  -->
<svg version="1.1" id="Capa_1" xmlns="http://www.w3.org/2000/svg" xmlns:xlink="http://www.w3.org/1999/xlink" x="0px" y="0px"
	 viewBox="0 0 511.999 511.999" style="enable-background:new 0 0 511.999 511.999;" xml:space="preserve">
<g>
	<g>
		<g>
			<path d="M294.891,325.625c4.143,0,7.5-3.358,7.5-7.5v-0.971c0-4.142-3.357-7.5-7.5-7.5s-7.5,3.358-7.5,7.5v0.971
				C287.391,322.267,290.748,325.625,294.891,325.625z"/>
			<path d="M294.891,374.16c4.143,0,7.5-3.358,7.5-7.5v-0.971c0-4.142-3.357-7.5-7.5-7.5s-7.5,3.358-7.5,7.5v0.971
				C287.391,370.802,290.748,374.16,294.891,374.16z"/>
			<path d="M294.891,212.584c-4.143,0-7.5,3.358-7.5,7.5v0.971c0,4.142,3.357,7.5,7.5,7.5s7.5-3.358,7.5-7.5v-0.971
				C302.391,215.942,299.033,212.584,294.891,212.584z"/>
			<path d="M238.777,220.084v0.971c0,4.142,3.357,7.5,7.5,7.5c4.142,0,7.5-3.358,7.5-7.5v-0.971c0-4.142-3.357-7.5-7.5-7.5
				S238.777,215.942,238.777,220.084z"/>
			<path d="M302.391,171.549c0-4.142-3.357-7.5-7.5-7.5s-7.5,3.358-7.5,7.5v0.971c0,4.142,3.357,7.5,7.5,7.5s7.5-3.358,7.5-7.5
				V171.549z"/>
			<path d="M246.277,374.16c4.142,0,7.5-3.358,7.5-7.5v-0.971c0-4.142-3.357-7.5-7.5-7.5s-7.5,3.358-7.5,7.5v0.971
				C238.777,370.802,242.134,374.16,246.277,374.16z"/>
			<path d="M246.277,325.625c4.142,0,7.5-3.358,7.5-7.5v-0.971c0-4.142-3.357-7.5-7.5-7.5s-7.5,3.358-7.5,7.5v0.971
				C238.777,322.267,242.134,325.625,246.277,325.625z"/>
			<path d="M480.57,260.872l-5.032-18.753c-1.764-6.574-8.554-10.49-15.127-8.732l-0.021,0.006L423.6,100.516
				c-3.646-13.165-12.859-23.998-25.278-29.72l-58.059-26.753v-8.334c0-6.586-3.669-12.494-9.576-15.417L293.314,1.789
				C290.95,0.619,288.306,0,285.668,0c-0.085,0-0.167,0.01-0.25,0.013C285.334,0.01,285.252,0,285.168,0h-58.337
				c-0.085,0-0.167,0.01-0.25,0.013C226.497,0.01,226.415,0,226.331,0c-2.638,0-5.282,0.619-7.645,1.79l-42.777,21.177
				c-2.556,1.264-4.173,3.869-4.173,6.721v14.354l-58.059,26.753c-12.419,5.722-21.632,16.555-25.278,29.72l-36.79,132.878
				l-0.023-0.006c-6.57-1.761-13.361,2.158-15.125,8.731l-5.033,18.753c-0.857,3.189-0.419,6.52,1.232,9.379
				c1.594,2.76,4.138,4.749,7.179,5.652l-2.359,8.52c-1.233,4.454-0.649,9.115,1.646,13.127c2.297,4.016,6.026,6.887,10.498,8.083
				l28.543,7.636c1.495,0.4,2.997,0.591,4.476,0.591c7.313,0,14.044-4.679,16.379-11.958l3.438-10.714
				c4.317-0.991,7.967-4.267,9.192-8.833l5.033-18.753c0.857-3.189,0.419-6.521-1.232-9.38c-0.233-0.401-0.489-0.782-0.76-1.151
				l38.092-118.687l16.688,108.293h-5.841c-6.816,0-12.361,5.542-12.361,12.354v29.121c0,5.034,3.033,9.368,7.366,11.29
				l-31.728,121.425c-1.047,4.007,1.353,8.105,5.36,9.152c0.635,0.166,1.273,0.246,1.901,0.246c3.33,0,6.37-2.234,7.252-5.606
				l32.441-124.154h6.576v65.156c0,6.893,5.608,12.5,12.5,12.5h16.672v122.672c-24.215-0.665-48.438-3.385-72.169-8.124
				c-5.829-1.163-10.06-6.312-10.06-12.241V476c0-1.062,0.135-2.121,0.404-3.149l7.18-27.476c1.048-4.007-1.352-8.105-5.359-9.152
				c-4.009-1.049-8.105,1.352-9.152,5.36l-7.18,27.475c-0.593,2.265-0.893,4.601-0.893,6.942v0.467
				c0,13.057,9.305,24.391,22.123,26.951c28.515,5.694,57.717,8.581,86.796,8.581h65.739c24.989,0,50.148-2.138,74.779-6.353
				l14.934-2.556c13.252-2.269,22.87-13.661,22.87-27.09c0-2.341-0.3-4.677-0.893-6.941l-45.365-173.62
				c4.333-1.922,7.366-6.256,7.366-11.29v-29.121c0-6.812-5.545-12.354-12.361-12.354h-5.841l16.688-108.294l10.17,31.688
				c1.266,3.944,5.492,6.115,9.433,4.849c3.945-1.266,6.116-5.489,4.85-9.433l-11.42-35.581c-1.958-6.097-7.794-10.098-14.189-9.717
				c-6.559,0.386-12.045,5.376-13.045,11.865l-17.663,114.623h-20.119c-4.143,0-7.5,3.358-7.5,7.5c0,4.142,3.357,7.5,7.5,7.5h26.547
				c0.004,0,0.009,0.001,0.013,0.001c0.007,0,0.014-0.001,0.021-0.001h11.916v23.828H234.334v-23.828h47.445
				c4.143,0,7.5-3.358,7.5-7.5c0-4.142-3.357-7.5-7.5-7.5h-47.771c-1.069-4.657-4.739-8.324-9.398-9.386v-48.362
				c0-0.406,0.11-0.805,0.367-1.233l6.538-11.196l88.892-44.322c4.399-2.194,7.657-6.172,8.937-10.915
				c1.279-4.739,0.468-9.812-2.226-13.917l-7.015-10.688h2.94c9.496,0,17.222-7.719,17.222-17.207v-14.89l51.782,23.861
				c8.401,3.871,14.633,11.198,17.098,20.1l36.756,132.751l-34.914,9.34l-18.817-58.632c-1.267-3.944-5.494-6.114-9.434-4.849
				c-3.945,1.266-6.116,5.489-4.85,9.433l19.419,60.508c-0.27,0.369-0.527,0.75-0.759,1.151c-1.651,2.859-2.088,6.191-1.232,9.38
				l5.032,18.753c1.225,4.567,4.875,7.843,9.193,8.834l3.438,10.713c2.336,7.28,9.066,11.959,16.379,11.959
				c1.478,0,2.981-0.191,4.476-0.591l28.542-7.636c4.473-1.196,8.202-4.067,10.499-8.083c2.294-4.011,2.878-8.673,1.646-13.125
				l-2.359-8.522c3.042-0.904,5.586-2.893,7.179-5.652C480.99,267.392,481.427,264.062,480.57,260.872z M186.736,75.449V34.343
				l32.596-16.137v47.536c0,1.361,0.37,2.696,1.071,3.863l4.838,8.051h-36.283C187.732,77.656,186.735,76.666,186.736,75.449
				L186.736,75.449z M84.738,297.319c-0.36,1.127-1.547,1.768-2.695,1.46l-28.544-7.636c-0.741-0.198-1.145-0.675-1.354-1.041
				c-0.208-0.362-0.412-0.946-0.21-1.675l2.39-8.631l33.188,8.878L84.738,297.319z M97.851,275.912l-51.25-13.71l3.661-13.641
				l51.25,13.71L97.851,275.912z M180.439,281.504H166.27v-23.828h14.169V281.504z M219.332,359.16H195.44V247.969h21.62
				c0.016,0,0.032,0.002,0.048,0.002s0.032-0.002,0.048-0.002h2.175h0.001V359.16z M234.331,361.659v-65.156h103.804l46.08,176.35
				c0.268,1.027,0.404,2.086,0.404,3.148c0,6.098-4.374,11.273-10.401,12.305l-14.934,2.556
				c-23.797,4.073-48.105,6.138-72.248,6.138h-62.429V373.839C230.166,372.571,234.331,367.597,234.331,361.659z M212.069,176.053
				c-1.609,2.68-2.461,5.75-2.461,8.877v48.04h-16.669c-3.622,0-6.88,1.558-9.165,4.029l-16.788-108.946
				c-1-6.489-6.487-11.478-13.047-11.865c-6.423-0.374-12.23,3.621-14.187,9.717l-38.739,120.706l-34.913-9.34l36.756-132.75
				c2.465-8.903,8.697-16.229,17.098-20.1l51.782-23.861v14.89c0,9.488,7.725,17.207,17.222,17.207h1.32l-7.016,10.688
				c-2.695,4.104-3.505,9.177-2.226,13.917c1.28,4.744,4.538,8.722,8.937,10.915l38.765,19.328L212.069,176.053z M196.666,114.753
				c-0.775-0.387-1.052-1.044-1.149-1.401c-0.096-0.356-0.187-1.059,0.284-1.777l12.418-18.919h26.035l2.898,4.822
				c2.134,3.551,6.742,4.699,10.292,2.565c3.55-2.134,4.699-6.742,2.565-10.292L234.33,63.662V15h43.337v48.713l-41.349,70.811
				L196.666,114.753z M314.86,113.352c-0.096,0.358-0.374,1.014-1.149,1.401l-68.391,34.1l32.816-56.197h24.022l12.417,18.919
				C315.047,112.293,314.956,112.997,314.86,113.352z M325.263,35.709v39.739c0,1.217-0.996,2.207-2.222,2.207h-36.146l4.749-8.132
				c0.669-1.148,1.023-2.453,1.023-3.782V18.205l31.366,15.529C324.792,34.11,325.263,34.867,325.263,35.709L325.263,35.709z
				 M459.852,290.102c-0.208,0.366-0.613,0.843-1.354,1.041l-28.543,7.636c-1.151,0.306-2.335-0.334-2.696-1.461l-2.774-8.643
				l33.189-8.879l2.39,8.632C460.265,289.156,460.061,289.74,459.852,290.102z M414.147,275.913l-3.661-13.642l51.25-13.71
				l3.661,13.641L414.147,275.913z"/>
		</g>
	</g>
</g>
<g>
</g>
<g>
</g>
<g>
</g>
<g>
</g>
<g>
</g>
<g>
</g>
<g>
</g>
<g>
</g>
<g>
</g>
<g>
</g>
<g>
</g>
<g>
</g>
<g>
</g>
<g>
</g>
<g>
</g>
</svg>
