<svg id="Capa_1" enable-background="new 0 0 512 512" height="512" viewBox="0 0 512 512" width="512" xmlns="http://www.w3.org/2000/svg"><g><path d="m462.495 90.82h-1.742v-15.31c0-10.448-8.5-18.947-18.947-18.947h-58.392c-10.447 0-18.947 8.5-18.947 18.947v15.31h-19.68v-15.31c0-10.448-8.5-18.947-18.947-18.947h-29.39c-10.447 0-18.947 8.5-18.947 18.947v15.31h-154.833c-4.143 0-7.5 3.358-7.5 7.5s3.357 7.5 7.5 7.5h339.824c19.026 0 34.505 15.479 34.505 34.505v97.462c-11.349 10.377-23.493 20.121-36.247 29.088v-20.423c0-8.569-6.972-15.541-15.541-15.541h-378.423c-8.569 0-15.541 6.972-15.541 15.541v69.103c-12.909 1.221-25.043 3.62-36.247 7.161v-182.391c0-19.026 15.479-34.505 34.505-34.505h38.162c4.143 0 7.5-3.358 7.5-7.5s-3.357-7.5-7.5-7.5h-38.162c-27.297 0-49.505 22.208-49.505 49.505v265.606c0 27.297 22.208 49.505 49.505 49.505h326.584c4.143 0 7.5-3.358 7.5-7.5s-3.357-7.5-7.5-7.5h-326.584c-19.026.001-34.505-15.478-34.505-34.504v-67.402c11.006-3.919 23.159-6.562 36.247-7.9v7.301c0 25.709 20.916 46.625 46.625 46.625h316.256c25.709 0 46.625-20.916 46.625-46.625v-52.881c12.645-8.386 24.787-17.504 36.247-27.243v148.125c0 19.026-15.479 34.505-34.505 34.505h-51.401c-4.143 0-7.5 3.358-7.5 7.5s3.357 7.5 7.5 7.5h51.401c27.297 0 49.505-22.208 49.505-49.505v-265.607c0-27.297-22.208-49.505-49.505-49.505zm-169.993 0v-15.31c0-2.177 1.771-3.947 3.947-3.947h29.39c2.177 0 3.947 1.771 3.947 3.947v15.31zm86.964 0v-15.31c0-2.177 1.771-3.947 3.947-3.947h58.392c2.177 0 3.947 1.771 3.947 3.947v15.31zm66.286 247.111c0 17.438-14.187 31.625-31.625 31.625h-316.255c-17.438 0-31.625-14.187-31.625-31.625v-91.477c0-.298.243-.541.541-.541h378.423c.298 0 .541.243.541.541z"/><path d="m209.558 131.699h-145.715c-6.946 0-12.596 5.651-12.596 12.596v24.631c0 6.946 5.65 12.596 12.596 12.596h145.715c6.945 0 12.596-5.651 12.596-12.596v-24.631c0-6.946-5.651-12.596-12.596-12.596zm-2.404 34.823h-140.907v-19.823h140.907z"/><path d="m51.247 207.214c0 4.142 3.358 7.5 7.5 7.5h197.253c4.143 0 7.5-3.358 7.5-7.5s-3.357-7.5-7.5-7.5h-197.253c-4.142 0-7.5 3.358-7.5 7.5z"/><path d="m359.378 214.714c4.143 0 7.5-3.358 7.5-7.5s-3.357-7.5-7.5-7.5h-68.375c-4.143 0-7.5 3.358-7.5 7.5s3.357 7.5 7.5 7.5z"/><path d="m154.356 313.04c.351-.35.66-.73.94-1.14.27-.41.5-.84.68-1.3.19-.45.34-.92.431-1.4.1-.48.149-.98.149-1.47s-.05-.98-.149-1.46c-.091-.48-.24-.95-.431-1.4-.18-.46-.41-.89-.68-1.3-.28-.41-.59-.79-.94-1.14-1.739-1.74-4.319-2.54-6.77-2.05-.47.1-.95.24-1.4.43s-.89.42-1.29.69c-.42.27-.8.59-1.14.93-.35.35-.66.73-.94 1.14-.27.41-.5.84-.689 1.3-.18.45-.33.92-.42 1.4-.101.48-.15.97-.15 1.46s.05.99.15 1.47c.09.48.24.95.42 1.4.189.46.42.89.689 1.3.28.41.591.79.94 1.14.34.34.72.66 1.14.93.4.27.84.5 1.29.69s.931.33 1.4.43c.49.09.979.14 1.47.14 1.97 0 3.91-.8 5.3-2.19z"/><path d="m362.944 263.356c-.065 0-.129.005-.194.005-.033 0-.064-.005-.097-.005h-213.306c-.033 0-.065.005-.097.005-.065 0-.129-.005-.194-.005-24.47 0-44.378 19.908-44.378 44.378s19.908 44.378 44.378 44.378c.065 0 .129-.005.194-.005.033 0 .064.005.097.005h213.306c.033 0 .065-.005.097-.005.065 0 .129.005.194.005 24.47 0 44.378-19.908 44.378-44.378s-19.908-44.378-44.378-44.378zm-75.028 73.756c-3.666-9.342-5.539-19.205-5.539-29.378 0-10.174 1.869-20.036 5.535-29.378h41.811c-6.935 7.833-11.157 18.119-11.157 29.378s4.222 21.546 11.157 29.378zm-105.639 0c6.935-7.833 11.157-18.119 11.157-29.378s-4.222-21.545-11.157-29.378h16.796c5.228 8.881 7.985 18.983 7.985 29.378 0 10.394-2.757 20.497-7.984 29.378zm33.613-58.756h56.086c-3.054 9.442-4.599 19.285-4.599 29.378 0 10.092 1.544 19.936 4.599 29.378h-56.086c4.05-9.204 6.168-19.18 6.168-29.378s-2.118-20.174-6.168-29.378zm-96.212 29.378c0-16.199 13.179-29.378 29.378-29.378s29.378 13.179 29.378 29.378-13.179 29.378-29.378 29.378-29.378-13.179-29.378-29.378zm243.266 29.378c-16.199 0-29.378-13.179-29.378-29.378s13.179-29.378 29.378-29.378 29.378 13.179 29.378 29.378-13.179 29.378-29.378 29.378z"/><path d="m369.867 304.87c-.181-.46-.42-.89-.69-1.3s-.58-.79-.93-1.14c-.351-.35-.73-.66-1.141-.93-.409-.27-.84-.5-1.29-.69-.46-.19-.93-.33-1.409-.43-.971-.19-1.96-.19-2.931 0-.479.1-.95.24-1.399.43-.45.19-.891.42-1.301.69-.409.27-.79.58-1.14.93-.34.35-.66.73-.93 1.14-.271.41-.5.84-.69 1.3-.189.45-.33.92-.43 1.4-.09.48-.14.98-.14 1.47 0 .48.05.98.14 1.46.1.48.24.95.43 1.4.19.46.42.89.69 1.3s.59.79.93 1.14c.35.34.73.66 1.14.93s.851.5 1.301.69c.449.19.92.33 1.399.43.48.1.98.14 1.471.14.489 0 .979-.04 1.46-.14.479-.1.949-.24 1.409-.43.45-.19.881-.42 1.29-.69.41-.27.79-.59 1.141-.93.35-.35.66-.73.93-1.14.271-.41.51-.84.69-1.3.189-.45.33-.92.43-1.4s.15-.98.15-1.46c0-.49-.051-.99-.15-1.47s-.241-.95-.43-1.4z"/><path d="m447.016 143.36c.271.41.59.8.931 1.14.35.35.729.66 1.14.93.41.28.84.51 1.3.69.45.19.92.34 1.4.43.479.1.979.15 1.47.15.479 0 .979-.05 1.46-.15.48-.09.95-.24 1.4-.43.46-.18.89-.41 1.3-.69.41-.27.79-.58 1.14-.93.34-.34.66-.73.93-1.14.271-.4.5-.84.69-1.29s.33-.93.43-1.4c.101-.49.15-.98.15-1.47s-.05-.98-.15-1.47c-.1-.47-.239-.95-.43-1.4-.19-.45-.42-.89-.69-1.29-.27-.41-.59-.8-.93-1.14-.35-.35-.729-.66-1.14-.94-.41-.27-.84-.5-1.3-.69-.45-.18-.92-.33-1.4-.42-.97-.2-1.96-.2-2.93 0-.48.09-.95.24-1.4.42-.46.19-.89.42-1.3.69-.41.28-.79.59-1.14.94-.341.34-.66.73-.931 1.14-.27.4-.5.84-.689 1.29-.19.45-.33.93-.431 1.4-.1.49-.149.98-.149 1.47s.05.98.149 1.47c.101.47.24.95.431 1.4.189.45.42.89.689 1.29z"/><path d="m425.117 146.55c.479-.09.949-.24 1.399-.43.45-.18.891-.42 1.3-.69.41-.27.79-.58 1.141-.93.34-.34.649-.73.93-1.14.271-.4.5-.84.69-1.29.189-.46.33-.93.43-1.41.09-.48.14-.97.14-1.46s-.05-.98-.14-1.47c-.1-.48-.24-.95-.43-1.4s-.42-.89-.69-1.29c-.28-.41-.59-.8-.93-1.14-.351-.35-.73-.66-1.141-.94-.409-.27-.85-.5-1.3-.69-.45-.18-.92-.33-1.399-.42-2.44-.49-5.03.31-6.771 2.05-.35.34-.66.73-.93 1.14-.271.4-.51.84-.69 1.29-.189.45-.33.92-.43 1.4-.1.49-.15.98-.15 1.47 0 1.98.801 3.91 2.2 5.3 1.39 1.4 3.33 2.2 5.3 2.2.49 0 .98-.05 1.471-.15z"/><path d="m387.806 143.36c.28.41.59.8.94 1.14.34.35.729.66 1.14.93.4.27.84.51 1.29.69.45.19.93.34 1.4.43.489.1.979.15 1.47.15s.979-.05 1.46-.15c.479-.09.95-.24 1.41-.43.45-.18.89-.42 1.29-.69.41-.27.8-.58 1.14-.93.351-.34.66-.73.93-1.14.28-.4.511-.84.7-1.29.181-.46.33-.93.42-1.41.101-.48.15-.97.15-1.46s-.05-.98-.15-1.47c-.09-.48-.239-.95-.42-1.4-.189-.45-.42-.89-.7-1.29-.27-.42-.579-.8-.93-1.14-.34-.35-.729-.66-1.14-.94-.4-.27-.84-.5-1.29-.69-.46-.18-.931-.33-1.41-.42-.96-.2-1.96-.2-2.93 0-.471.09-.95.24-1.4.42-.45.19-.89.42-1.29.69-.41.28-.8.59-1.14.94-.351.34-.66.72-.94 1.14-.27.4-.5.84-.689 1.29-.181.45-.33.92-.42 1.4-.101.49-.15.98-.15 1.47s.05.98.15 1.46c.09.48.239.95.42 1.41.189.45.42.89.689 1.29z"/></g></svg>