<svg id="Capa_1" enable-background="new 0 0 512 512" height="512" viewBox="0 0 512 512" width="512" xmlns="http://www.w3.org/2000/svg"><g><path d="m494 12.882h-21.386c-9.925 0-17.999 8.075-17.999 18v58.358h-8.119v-.482c0-11.124-9.05-20.174-20.174-20.174h-30.51c-11.124 0-20.174 9.05-20.174 20.174v.482h-64.86v-4.964c0-28.013-22.79-50.803-50.803-50.803h-7.951c-28.012 0-50.802 22.79-50.802 50.803v4.964h-64.861v-.482c0-11.124-9.05-20.174-20.174-20.174h-30.509c-11.124 0-20.174 9.05-20.174 20.174v.482h-8.118v-58.358c0-9.925-8.075-18-18-18h-21.386c-9.925 0-18 8.075-18 18v33.801c0 4.142 3.358 7.5 7.5 7.5s7.5-3.358 7.5-7.5v-33.801c0-1.654 1.346-3 3-3h21.386c1.654 0 3 1.346 3 3v131.726c0 1.654-1.346 3-3 3h-21.386c-1.654 0-3-1.346-3-3v-62.925c0-4.142-3.358-7.5-7.5-7.5s-7.5 3.358-7.5 7.5v62.925c0 9.925 8.075 18 18 18h21.386c9.925 0 18-8.075 18-18v-58.368h8.594c.987 4.869 3.465 9.2 6.931 12.505v96.005c0 9.303 4.306 17.262 11.813 21.837 8.767 5.342 20.628 5.354 30.962.025 21.272-11.001 38.506-22.107 53.983-34.805 1.862 4.411 4.187 8.635 6.934 12.595 6.997 10.06 10.953 22.095 11.549 34.985-3.965-1.711-8.318-2.657-12.86-2.657-16.349 0-30.263 12.227-32.365 28.439l-5.161 39.81c-1.78 13.728-.406 27.925 3.971 41.057 2.632 7.898 3.967 16.124 3.967 24.447v51.292l-18.687 31.28c-2.33 3.898-3.561 8.36-3.561 12.903 0 13.872 11.286 25.158 25.157 25.158h38.236c7.452 0 14.474-3.273 19.266-8.98s6.801-13.189 5.512-20.53l-6.748-38.414v-52.709c0-7.758 1.175-15.427 3.464-22.829 8.683 3.374 17.995 5.134 27.367 5.134h40.58c9.371 0 18.683-1.76 27.367-5.134 2.289 7.401 3.464 15.07 3.464 22.829v52.709l-6.748 38.414c-1.289 7.34.72 14.823 5.512 20.53s11.813 8.98 19.266 8.98h38.236c13.872 0 25.157-11.286 25.157-25.158 0-4.541-1.231-9.001-3.561-12.902l-18.688-31.281v-14.436c0-4.142-3.357-7.5-7.5-7.5s-7.5 3.358-7.5 7.5v9.005h-29.175v-45.862c0-9.939-1.594-19.761-4.737-29.19-3.666-10.998-4.816-22.888-3.326-34.385l5.161-39.81c1.136-8.761 8.654-15.368 17.489-15.368s16.354 6.607 17.489 15.368l5.161 39.81c1.49 11.498.34 23.388-3.326 34.386-3.143 9.431-4.736 19.252-4.736 29.19v1.857c0 4.142 3.357 7.5 7.5 7.5s7.5-3.358 7.5-7.5v-1.857c0-8.323 1.335-16.549 3.967-24.447 4.377-13.131 5.75-27.329 3.971-41.057l-5.161-39.81c-2.102-16.213-16.016-28.439-32.364-28.439-4.542 0-8.895.947-12.86 2.657.596-12.891 4.552-24.926 11.555-34.993 2.741-3.953 5.064-8.175 6.928-12.588 15.481 12.701 32.713 23.806 53.991 34.809 10.326 5.326 22.188 5.314 30.955-.028 7.507-4.575 11.812-12.535 11.812-21.837v-96.005c3.465-3.306 5.943-7.636 6.93-12.505h8.595v58.367c0 9.925 8.074 18 17.999 18h21.387c9.925 0 18-8.075 18-18v-131.725c0-9.925-8.075-18-18-18zm-98.188 70.702h30.51c2.853 0 5.174 2.321 5.174 5.174v10.733c0 4.884-3.973 8.857-8.856 8.857h-23.144c-4.884 0-8.857-3.974-8.857-8.857v-10.733c0-2.853 2.321-5.174 5.173-5.174zm-19.697 20.656c1.633 8.051 7.334 14.639 14.855 17.528v22.514c-7.835-9.428-17.337-16.85-28.737-22.485-8.48-4.191-18.223-6.406-28.173-6.406h-23.851c.363-2.41.57-4.951.57-7.643v-3.507h65.336zm-56.661 105.355c-7.009 12.238-10.694 26.348-10.694 41.215v.985c-11.779 3.941-21.483 12.253-27.145 23.483-1.079 2.136-3.23 3.462-5.615 3.462h-40c-2.385 0-4.537-1.327-5.613-3.456-5.663-11.236-15.368-19.548-27.147-23.489v-.985c0-14.869-3.686-28.98-10.694-41.215 8.194-22.963 8.45-51.25 6.907-79.205h7.269c2.155 4.176 4.919 8.042 8.212 11.483-.799 4.583-1.205 9.319-1.205 14.137 0 33.151 18.567 59.12 42.27 59.12 23.702 0 42.27-25.969 42.27-59.12 0-4.85-.412-9.618-1.222-14.229 2.896-3.092 5.823-6.853 8.229-11.39h7.268c-1.54 27.954-1.284 56.241 6.91 79.204zm-69.807-48.246h12.706c7.58 0 14.913-2.534 20.867-7.162.016.608.05 1.211.05 1.823 0 23.916-12.488 44.12-27.27 44.12s-27.27-20.205-27.27-44.12c0-.612.034-1.216.05-1.824 5.954 4.628 13.287 7.163 20.867 7.163zm-33.425-77.073c0-19.742 16.061-35.803 35.802-35.803h7.951c19.741 0 35.803 16.061 35.803 35.803v23.471c0 13.433-6.771 22.032-17.053 30.471-1.685 1.382-3.059 2.511-4.158 3.688-3.421 2.868-7.741 4.443-12.215 4.443h-12.706c-4.608 0-9.055-1.672-12.522-4.707l-9.171-8.031c-7.456-6.527-11.731-15.955-11.731-25.864zm-14.399 31.114h-23.833c-10.377 0-20.665 2.481-29.758 7.179-10.731 5.555-19.73 12.725-27.203 21.713v-22.514c7.521-2.888 13.223-9.477 14.856-17.528h65.337v3.507c0 2.578.208 5.131.601 7.643zm-121.32-26.632c0-2.853 2.321-5.174 5.174-5.174h30.509c2.853 0 5.174 2.321 5.174 5.174v10.733c0 4.884-3.973 8.857-8.857 8.857h-23.142c-4.884 0-8.857-3.974-8.857-8.857v-10.733zm93.326 95.163c-4.06-1.074-8.406-.107-11.629 2.593-15.173 12.729-32.142 23.778-53.397 34.771-5.621 2.899-12.008 3.093-16.273.494-3.064-1.868-4.619-4.905-4.619-9.028v-89.449c.48.029.963.048 1.451.048h16.669v38.081c0 5.342 4.33 9.694 9.696 9.694 3.462 0 6.747-1.858 8.496-4.994 7.504-13.468 17.614-23.36 30.901-30.237 6.969-3.6 14.876-5.503 22.868-5.503h6.455c.937 15.853 1.74 39.618-2.321 60.302-1.658-3.323-4.67-5.813-8.297-6.772zm-21.187 130.988 5.161-39.81c1.136-8.761 8.654-15.368 17.489-15.368 8.834 0 16.353 6.607 17.489 15.368l5.161 39.81c1.49 11.498.34 23.388-3.326 34.386-3.143 9.431-4.737 19.251-4.737 29.19v45.862h-29.175v-45.862c0-9.939-1.594-19.76-4.737-29.19-3.666-11-4.816-22.89-3.325-34.386zm41.986 165.583c-1.935 2.304-4.77 3.626-7.779 3.626h-38.236c-5.601 0-10.157-4.557-10.157-10.158 0-1.834.497-3.635 1.438-5.209l17.566-29.404h33.622l5.772 32.856c.521 2.963-.291 5.985-2.226 8.289zm41.082-134.702c-8.107 0-16.155-1.641-23.569-4.777 1.636-9.242 1.881-18.744.677-28.033 0 0-5.438-41.602-5.626-42.479 4.085 2.968 7.457 6.884 9.805 11.542 3.646 7.215 10.929 11.697 19.004 11.697h40c8.076 0 15.357-4.482 19.007-11.704 2.346-4.654 5.718-8.568 9.802-11.535-.189.877-.348 1.766-.465 2.669l-5.161 39.811c-1.204 9.288-.959 18.79.677 28.032-7.415 3.136-15.463 4.777-23.569 4.777zm118.83 93.557 17.566 29.403c.941 1.575 1.438 3.377 1.438 5.21 0 5.601-4.557 10.158-10.157 10.158h-38.237c-3.009 0-5.844-1.321-7.778-3.625s-2.746-5.326-2.226-8.289l5.772-32.856h33.622zm69.55-226.597c0 4.123-1.554 7.161-4.619 9.028-4.263 2.599-10.651 2.405-16.266-.49-21.263-10.996-38.232-22.045-53.41-34.779-3.218-2.694-7.565-3.661-11.623-2.588-3.63.959-6.643 3.452-8.296 6.77-4.06-20.684-3.258-44.448-2.321-60.3h6.505c7.658 0 15.103 1.678 21.526 4.853 13.908 6.876 24.439 16.98 32.194 30.891 1.748 3.133 5.032 4.991 8.494 4.991 5.363 0 9.695-4.351 9.695-9.694v-38.081s17.64-.019 18.12-.048v89.447zm72.91-50.143c0 1.654-1.346 3-3 3h-21.386c-1.653 0-2.999-1.346-2.999-3v-131.725c0-1.654 1.346-3 2.999-3h21.386c1.654 0 3 1.346 3 3z"/></g></svg>