<?xml version="1.0" encoding="UTF-8"?>
<svg xmlns="http://www.w3.org/2000/svg" id="Icons" viewBox="0 0 60 60" width="512" height="512"><path d="M11,54v2.6a3.019,3.019,0,0,0,2.218,2.9A14.219,14.219,0,0,0,17,60a21.141,21.141,0,0,0,4.011-.463A25.477,25.477,0,0,1,26,59a29.621,29.621,0,0,1,4.583.414A46.406,46.406,0,0,0,38,60c6.93,0,11.2-1.162,13.562-2.137A3.958,3.958,0,0,0,54,54.18V51a5.006,5.006,0,0,0-5-5H44A10.011,10.011,0,0,1,34,36,172.788,172.788,0,0,1,37.463,3.6,3,3,0,0,0,34.527,0H11A3,3,0,0,0,8,3c0,20.284,2.1,27.708,3.628,33.129A26.156,26.156,0,0,1,13,44a10.588,10.588,0,0,1-.855,4.053A15.426,15.426,0,0,0,11,54Zm41,.18a1.966,1.966,0,0,1-1.2,1.834C48.6,56.92,44.6,58,38,58a44.585,44.585,0,0,1-7.13-.565A31.574,31.574,0,0,0,26,57a27.538,27.538,0,0,0-5.35.57A19.249,19.249,0,0,1,17,58a12.237,12.237,0,0,1-3.251-.434A1,1,0,0,1,13,56.6V55.433A14.27,14.27,0,0,0,17,56a21.141,21.141,0,0,0,4.011-.463A25.477,25.477,0,0,1,26,55a29.621,29.621,0,0,1,4.583.414A46.406,46.406,0,0,0,38,56c7.508,0,11.88-1.378,14-2.326ZM44,48h5a3,3,0,0,1,3,3v.44C50.769,52.12,46.59,54,38,54a42.538,42.538,0,0,1-6.349-.454,9.753,9.753,0,0,1,4.168-8.792A11.941,11.941,0,0,0,44,48Zm-9.532-4.74a11.785,11.785,0,0,0-4.825,10A26.693,26.693,0,0,0,26,53a27.538,27.538,0,0,0-5.35.57A19.249,19.249,0,0,1,17,54a11.963,11.963,0,0,1-3.982-.667,13.706,13.706,0,0,1,1-4.594A12.527,12.527,0,0,0,15,44a24.744,24.744,0,0,0-1.054-7h3.9a6.963,6.963,0,0,0,6.919-5.936l.439-2.822A4.974,4.974,0,0,1,30.15,24h2.384C32.212,27.825,32,31.885,32,36A11.923,11.923,0,0,0,34.468,43.26ZM10,3a1,1,0,0,1,1-1H34.527a.983.983,0,0,1,.772.366,1,1,0,0,1,.2.833A186.517,186.517,0,0,0,32.714,22H30.15a6.963,6.963,0,0,0-6.919,5.936l-.439,2.822A4.974,4.974,0,0,1,17.85,35H13.388C11.908,29.734,10,22.283,10,3Z"/><path d="M14.391,11.664A1.992,1.992,0,0,0,15.5,12H25a3,3,0,0,0,0-6H15.5a1.992,1.992,0,0,0-1.109.336l-1.5,1a2,2,0,0,0,0,3.328ZM15.5,8H25a1,1,0,0,1,0,2H15.5L14,9Z"/></svg>
