<?xml version="1.0"?>
<svg xmlns="http://www.w3.org/2000/svg" id="Layer_3" data-name="Layer 3" viewBox="0 0 64 64" width="512" height="512"><path d="M59,57H56V55h1a1,1,0,0,0,1-1V50a1,1,0,0,0-1-1H56V47h1a1,1,0,0,0,1-1V42a1,1,0,0,0-1-1H56V38h5a1,1,0,0,0,.653-1.757L55,30.5V21.456A4.012,4.012,0,0,0,56.874,19a4.023,4.023,0,0,0,4.1-3.532A3.991,3.991,0,0,0,59,8a3.947,3.947,0,0,0-1.5.3,3.986,3.986,0,0,0-4.147.716,3.912,3.912,0,0,0-3.989,2.346,3.959,3.959,0,0,0-2.338,3.17A3.972,3.972,0,0,0,47,21.444v2.144l-7.347-6.345a1,1,0,0,0-1.306,0l-2.913,2.516L33.135,17H36a1,1,0,0,0,.841-1.541l-9-14a1.038,1.038,0,0,0-1.682,0l-9,14A1,1,0,0,0,18,17h2.865L12.231,27.36A1,1,0,0,0,13,29h4.9L6.224,43.37A1,1,0,0,0,7,45h6.955L1.211,61.386A1,1,0,0,0,2,63H62a1,1,0,0,0,1-1V61A4,4,0,0,0,59,57Zm-5,0H38V55H54ZM26,43v2H22V43Zm0,4v2H24V47Zm0,4v2H22V51Zm-2,4h2v2H24Zm12,2H28V41h8Zm20-4H38V51H56Zm-6-4H47V41h3Zm-5,0H42V41h3Zm9,0H52V47h2Zm2-4H52V43h4Zm-4-4V40a1,1,0,0,0-1-1H41a1,1,0,0,0-1,1v9H38V40a1,1,0,0,0-1-1H27a1,1,0,0,0-1,1v1H24V37.476L27.047,35H50.953L54,37.476V41ZM31.97,31H46.03l2.461,2H29.509Zm2.462-2L39,25.289,43.568,29ZM48.347,16.123a1,1,0,0,0,.67-.994A.6.6,0,0,0,49,15a1.981,1.981,0,0,1,1.429-1.9,1,1,0,0,0,.67-.67A1.978,1.978,0,0,1,53,11a2.039,2.039,0,0,1,.469.063,1,1,0,0,0,1-.333A1.971,1.971,0,0,1,57,10.28a1,1,0,0,0,1.008,0A1.954,1.954,0,0,1,59,10a1.992,1.992,0,0,1,.653,3.877,1,1,0,0,0-.67.994A.6.6,0,0,0,59,15a2,2,0,0,1-2,2,1.97,1.97,0,0,1-.68-.13,1,1,0,0,0-1.337,1.017c0,.021.014.092.017.113a2,2,0,0,1-2,2H49a1.992,1.992,0,0,1-.653-3.877ZM49,22h4v6.77l-4-3.455ZM39,19.321,58.312,36H55.355L39.631,23.224a1,1,0,0,0-1.262,0L22.645,36H19.688ZM15,61H4.045L16.789,44.614A1,1,0,0,0,16,43H9.1L20.776,28.63A1,1,0,0,0,20,27H15.135l8.634-10.36A1,1,0,0,0,23,15H19.832L27,3.849,34.168,15H31a1,1,0,0,0-.769,1.64l3.689,4.426L16.347,36.243A1,1,0,0,0,17,38h5v3H21a1,1,0,0,0-1,1v4a1,1,0,0,0,1,1h1v2H21a1,1,0,0,0-1,1v4a1,1,0,0,0,1,1h1v2H19A4,4,0,0,0,15,61Zm2,0a2,2,0,0,1,2-2H59a2,2,0,0,1,2,2Z"/><rect x="33" y="49" width="2" height="2"/><path d="M6,14a4.807,4.807,0,0,0,1.663-.3,4.935,4.935,0,0,0,6.314.3H14a5,5,0,1,0-.411-9.98A5.025,5.025,0,0,0,9,1,4.966,4.966,0,0,0,4.3,4.3,5,5,0,0,0,6,14ZM5.33,6.083a1,1,0,0,0,.752-.752,3,3,0,0,1,5.851.045,1,1,0,0,0,1.252.755A2.968,2.968,0,0,1,14,6a3,3,0,1,1-.058,5.99h-.018l-.176-.02a.987.987,0,0,0-.754.252,2.948,2.948,0,0,1-4.315-.351A1,1,0,0,0,7.9,11.5a.991.991,0,0,0-.476.121A2.958,2.958,0,0,1,6,12a3,3,0,0,1-.67-5.917Z"/></svg>
